<?xml version="1.0" encoding="UTF-8" standalone="no"?>
<svg
   width="58"
   height="66.667"
   fill="none"
   version="1.1"
   id="svg16"
   sodipodi:docname="dtp.svg"
   inkscape:version="1.4 (86a8ad7, 2024-10-11)"
   inkscape:export-filename="dtp.svg"
   inkscape:export-xdpi="96"
   inkscape:export-ydpi="96"
   xmlns:inkscape="http://www.inkscape.org/namespaces/inkscape"
   xmlns:sodipodi="http://sodipodi.sourceforge.net/DTD/sodipodi-0.dtd"
   xmlns:xlink="http://www.w3.org/1999/xlink"
   xmlns="http://www.w3.org/2000/svg"
   xmlns:svg="http://www.w3.org/2000/svg">
  <sodipodi:namedview
     id="namedview16"
     pagecolor="#ffffff"
     bordercolor="#000000"
     borderopacity="0.25"
     inkscape:showpageshadow="2"
     inkscape:pageopacity="0.0"
     inkscape:pagecheckerboard="0"
     inkscape:deskcolor="#d1d1d1"
     inkscape:zoom="9.1124545"
     inkscape:cx="-46.804075"
     inkscape:cy="53.937169"
     inkscape:window-width="2560"
     inkscape:window-height="1417"
     inkscape:window-x="-8"
     inkscape:window-y="-8"
     inkscape:window-maximized="1"
     inkscape:current-layer="svg16"
     showgrid="false" />
  <defs
     id="defs16">
    <clipPath
       clipPathUnits="userSpaceOnUse"
       id="clipPath2">
      <use
         x="0"
         y="0"
         xlink:href="#g1"
         id="use2" />
    </clipPath>
    <clipPath
       clipPathUnits="userSpaceOnUse"
       id="clipPath11">
      <use
         x="0"
         y="0"
         xlink:href="#g10"
         id="use11" />
    </clipPath>
    <clipPath
       clipPathUnits="userSpaceOnUse"
       id="clipPath12">
      <path
         fill-rule="evenodd"
         clip-rule="evenodd"
         d="m 329.1102,907.4525 c 114.25731,0 206.87256,-47.50096 206.87256,-106.1018 0,-58.60084 -92.61525,-106.1018 -206.87256,-106.1018 -114.25732,0 -206.87258,47.50096 -206.87258,106.1018 0,58.60084 92.61526,106.1018 206.87258,106.1018 z"
         fill="#1ab3ff"
         id="path12"
         style="fill:none;stroke:#f40000;stroke-width:18.6291;stroke-dasharray:none;stroke-opacity:1" />
    </clipPath>
  </defs>
  <path
     fill-rule="evenodd"
     clip-rule="evenodd"
     d="M37.434 56.755C49.337 53.142 58 42.082 58 29 58 12.984 45.016 0 29 0S0 12.984 0 29c0 13.083 8.663 24.142 20.566 27.755l6.834 9.112a2 2 0 0 0 3.2 0z"
     fill="#fff"
     id="path1" />
  <g
     id="g2"
     clip-path="url(#clipPath2)">
    <g
       inkscape:label="Clip"
       id="g1" />
  </g>
  <g
     id="g11"
     clip-path="url(#clipPath11)">
    <g
       inkscape:label="Clip"
       id="g10">
      <g
         id="layer1"
         inkscape:label="damage.svg"
         transform="matrix(0.12568124,0,0,0.24504768,-12.362978,-167.36913)"
         clip-path="url(#clipPath12)" />
    </g>
  </g>
  <g
     id="g3836"
     transform="matrix(0.10062799,0,0,0.27879056,-15.137937,-160.59015)"
     style="fill:#999999">
    <rect
       id="rect2881-8"
       style="fill:#ff2a2a"
       transform="scale(1,-1)"
       height="36.429001"
       width="5"
       y="-675.58002"
       x="379.29001" />
    <rect
       id="rect2881-8-6"
       style="fill:#ff2a2a"
       transform="matrix(0.90631,-0.42262,-0.42262,-0.90631,0,0)"
       height="36.429001"
       width="5"
       y="-768.03998"
       x="48.499001" />
    <rect
       id="rect2881-8-2"
       style="fill:#ff2a2a"
       transform="rotate(-155)"
       height="36.429001"
       width="5"
       y="-445.34"
       x="-643.53003" />
    <rect
       id="rect2881-8-3"
       style="fill:#ff2a2a"
       transform="matrix(-0.70711,0.70711,0.70711,0.70711,0,0)"
       height="36.429001"
       width="5"
       y="692.58002"
       x="221.39999" />
    <rect
       id="rect2881-8-4"
       style="fill:#ff2a2a"
       transform="rotate(-135)"
       height="36.429001"
       width="5"
       y="-189.09"
       x="-766.33002" />
  </g>
  <g
     id="g3832"
     transform="matrix(0.07459247,0,0,0.16917911,-0.45657685,-89.125019)"
     style="fill:#333333;fill-opacity:1;stroke-width:0.997189;stroke-dasharray:none">
    <path
       id="path2962"
       style="fill:#333333;fill-opacity:1;stroke-width:0.997189;stroke-dasharray:none"
       d="m 409.67934,759.27448 c -7.2193,-2.2812 -13.759,-8.4255 -16.176,-15.198 -1.8631,-5.2206 -1.1627,-15.368 1.3968,-20.237 4.5629,-8.6792 12.968,-13.216 23.337,-12.595 6.3509,0.37981 14.103,3.9163 17.214,7.853 2.7548,3.4858 5.4134,10.696 5.714,15.497 0.57022,9.106 -7.0724,20.984 -15.423,23.97 -4.2549,1.5215 -12.36,1.8796 -16.063,0.70974 z m 228.41,11.001 c -5.8006,-2.4062 -11.81,-8.2598 -14.042,-13.677 -1.0737,-2.6068 -1.2486,-5.6188 -0.67515,-11.63 0.70412,-7.3815 1.105,-8.5251 4.4484,-12.691 11.206,-13.963 34.391,-11.387 41.47,4.6069 3.2874,7.4278 3.3916,13.271 0.36032,20.192 -5.6235,12.84 -18.971,18.422 -31.562,13.199 z m -271.5,-39.1 c -3.4892,-1.4572 -3.8141,-3.6523 -2.958,-19.988 0.59246,-11.305 1.2416,-16.582 2.1809,-17.729 1.0458,-1.2775 11.641,-2.8259 48.607,-7.104 l 47.27,-5.4704 23.78,-21.338 23.78,-21.338 65.108,3.4122 65.108,3.4122 28.478,25.111 c 15.663,13.811 29.431,26.274 30.595,27.695 2.0631,2.517 2.0876,3.157 0.95304,24.806 -1.4011,26.736 -1.1352,26.112 -10.912,25.599 l -6.7096,-0.35163 -1.3609,-6.0796 c -1.9282,-8.6137 -3.6236,-11.79 -9.3508,-17.52 -7.324,-7.3274 -12.035,-9.434 -22.3,-9.972 -10.158,-0.53235 -15.661,1.2127 -23.034,7.3038 -5.1295,4.2376 -11.104,13.822 -11.364,18.229 -0.30991,5.2636 3.8988,5.2414 -82.582,0.43449 l -80.711,-4.4862 -1.3512,-6.079 c -1.912,-8.6023 -3.6088,-11.785 -9.341,-17.52 -7.1716,-7.1749 -12.07,-9.4088 -21.801,-9.9418 -9.8762,-0.54093 -15.107,1.0089 -22.464,6.6558 -5.8798,4.5131 -12.166,14.035 -12.416,18.807 -0.076,1.4502 -0.70571,3.1477 -1.3993,3.7722 -1.2583,1.133 -12.888,0.89629 -15.805,-0.32158 z m 198.31,-38.958 c 1.2613,-0.70637 1.7793,-4.1861 2.801,-18.813 0.81773,-11.707 0.90968,-18.678 0.26459,-20.052 -0.9622,-2.0489 -1.7704,-2.1467 -29.937,-3.6229 l -28.948,-1.5171 -18.329,15.797 c -14.91,12.85 -18.356,16.301 -18.471,18.502 -0.3036,5.7931 -0.11699,5.8257 47.603,8.3098 25.591,1.3322 44.105,1.9063 45.016,1.3961 z m 87.403,2.6307 c 1.7553,-1.4847 2.7585,-3.3502 2.8618,-5.3218 0.13531,-2.5838 -1.9944,-5.4276 -14.306,-19.101 l -14.465,-16.065 -23.6,-1.2368 c -12.98,-0.68025 -24.325,-1.0013 -25.212,-0.71345 -1.392,0.45209 -1.7482,3.1338 -2.6159,19.69 -0.72708,13.874 -0.68189,19.525 0.16372,20.464 0.89435,0.99325 9.7609,1.681 37.819,2.9333 l 36.651,1.6359 2.7028,-2.286 z" />
    <path
       id="path2962-7"
       style="fill:#333333;fill-opacity:1;stroke-width:0.997189;stroke-dasharray:none"
       d="m 252.83499,767.36099 c 7.2193,-2.2812 13.759,-8.4255 16.176,-15.198 1.8631,-5.2206 1.1627,-15.368 -1.3968,-20.237 -4.5629,-8.6792 -12.968,-13.216 -23.337,-12.595 -6.3509,0.37981 -14.103,3.9163 -17.214,7.853 -2.7548,3.4858 -5.4134,10.696 -5.714,15.497 -0.57022,9.106 7.0724,20.984 15.423,23.97 4.2549,1.5215 12.36,1.8796 16.063,0.70974 z m -228.409995,11.001 c 710.404105,-291.91569 710.404105,-291.91569 0,0 z m 271.499995,-39.101 c 3.4892,-1.4572 3.8141,-3.6523 2.958,-19.988 -0.59246,-11.305 -1.2416,-16.582 -2.1809,-17.729 -1.0458,-1.2775 -11.641,-2.8259 -48.607,-7.104 l -47.27,-5.4704 -23.78,-21.338 -23.78,-21.338 -65.107995,3.4122 c -11.11374,14.63885 -51.11907,103.86978 42.479255,98.66726 l 80.711,-4.4862 1.3512,-6.079 c 1.912,-8.6023 3.6088,-11.785 9.341,-17.52 7.1716,-7.1749 12.07,-9.4088 21.801,-9.9418 9.8762,-0.54093 15.107,1.0089 22.464,6.6558 5.8798,4.5131 12.166,14.035 12.416,18.807 0.076,1.4502 0.70571,3.1477 1.3993,3.7722 1.2583,1.133 12.888,0.89629 15.805,-0.32158 z m -198.309995,-38.96 c -1.2613,-0.70637 -1.7793,-4.1861 -2.801,-18.813 -0.81773,-11.707 -0.90968,-18.678 -0.26459,-20.052 0.9622,-2.0489 1.7704,-2.1467 29.936995,-3.6229 l 28.948,-1.5171 18.329,15.797 c 14.91,12.85 18.356,16.301 18.471,18.502 0.3036,5.7931 0.11699,5.8257 -47.603,8.3098 -25.591,1.3322 -44.104995,1.9063 -45.015995,1.3961 z m -10.0659,-20.11735 c 647.280005,-193.73734 647.280005,-193.73734 0,0 z"
       sodipodi:nodetypes="csccssscccccsccccccscscsssscccscscccsccss" />
  </g>
  <path
     fill-rule="evenodd"
     clip-rule="evenodd"
     d="M29 55c14.36 0 26-11.64 26-26S43.36 3 29 3 3 14.64 3 29s11.64 26 26 26z"
     fill="#1ab3ff"
     id="path2"
     style="fill:none;stroke:#f40000;stroke-opacity:1;stroke-width:3.26929134;stroke-dasharray:none" />
  <mask
     id="a"
     maskUnits="userSpaceOnUse"
     x="19.826"
     y="21.522"
     width="26"
     height="27"
     fill="#000">
    <path
       fill="#fff"
       d="M19.826 21.522h26v27h-26z"
       id="path3" />
    <path
       fill-rule="evenodd"
       clip-rule="evenodd"
       d="M33 46c5.596 0 10.174-4.242 10.174-12.435 0-8.192-5.276-9.043-10.513-9.043-4.638 0-9.835.85-9.835 9.043S27.404 46 33 46z"
       id="path4" />
  </mask>
  <mask
     id="b"
     maskUnits="userSpaceOnUse"
     x="16.435"
     y="16.435"
     width="32"
     height="19"
     fill="#000">
    <path
       fill="#fff"
       d="M16.435 16.435h32v19h-32z"
       id="path8" />
    <path
       fill-rule="evenodd"
       clip-rule="evenodd"
       d="M32.66 32.66c7.305 0 13.227-2.96 13.227-6.612s-5.922-6.613-13.226-6.613c-7.305 0-13.226 2.96-13.226 6.613 0 3.652 5.921 6.613 13.226 6.613z"
       id="path9" />
  </mask>
  <mask
     id="c"
     mask-type="alpha"
     maskUnits="userSpaceOnUse"
     x="20"
     y="29"
     width="26"
     height="9">
    <path
       fill-rule="evenodd"
       clip-rule="evenodd"
       d="M21.741 30.74c.521 3.168 5.391 5.651 11.797 5.651 5.388 0 10.202-2.483 10.72-5.652z"
       fill="#fff"
       id="path15" />
    <path
       d="M21.741 30.74v-1.131a1.13 1.13 0 0 0-1.115 1.314zm22.517 0 1.115.182a1.13 1.13 0 0 0-1.115-1.313zm-23.632.183c.346 2.108 2.08 3.758 4.31 4.847 2.27 1.107 5.265 1.752 8.602 1.752V35.26c-3.069 0-5.711-.597-7.61-1.523-1.936-.945-2.897-2.121-3.071-3.182zm12.912 6.599c2.855 0 5.59-.656 7.71-1.767 2.083-1.09 3.784-2.741 4.125-4.834l-2.23-.364c-.177 1.077-1.142 2.252-2.943 3.195-1.762.923-4.13 1.509-6.662 1.509zm10.72-7.913H21.74v2.26h22.517z"
       fill="#fff"
       id="path16" />
  </mask>
</svg>
