<?xml version="1.0" encoding="UTF-8" standalone="no"?>
<svg
   width="58"
   height="66.667"
   fill="none"
   version="1.1"
   id="svg16"
   sodipodi:docname="gas-on.svg"
   inkscape:version="1.4 (86a8ad7, 2024-10-11)"
   xmlns:inkscape="http://www.inkscape.org/namespaces/inkscape"
   xmlns:sodipodi="http://sodipodi.sourceforge.net/DTD/sodipodi-0.dtd"
   xmlns="http://www.w3.org/2000/svg"
   xmlns:svg="http://www.w3.org/2000/svg">
  <sodipodi:namedview
     id="namedview16"
     pagecolor="#ffffff"
     bordercolor="#000000"
     borderopacity="0.25"
     inkscape:showpageshadow="2"
     inkscape:pageopacity="0.0"
     inkscape:pagecheckerboard="0"
     inkscape:deskcolor="#d1d1d1"
     showgrid="false"
     inkscape:zoom="6.4434784"
     inkscape:cx="-19.321862"
     inkscape:cy="49.119432"
     inkscape:window-width="2560"
     inkscape:window-height="1417"
     inkscape:window-x="-8"
     inkscape:window-y="-8"
     inkscape:window-maximized="1"
     inkscape:current-layer="svg16" />
  <defs
     id="defs16" />
  <path
     fill-rule="evenodd"
     clip-rule="evenodd"
     d="M37.434 56.755C49.337 53.142 58 42.082 58 29 58 12.984 45.016 0 29 0S0 12.984 0 29c0 13.083 8.663 24.142 20.566 27.755l6.834 9.112a2 2 0 0 0 3.2 0z"
     fill="#fff"
     id="path1" />
  <path
     fill-rule="evenodd"
     clip-rule="evenodd"
     d="M 29,55 C 43.36,55 55,43.36 55,29 55,14.64 43.36,3 29,3 14.64,3 3,14.64 3,29 3,43.36 14.64,55 29,55 Z"
     fill="#1ab3ff"
     id="path2"
     style="stroke:#1aff00;stroke-width:3.77953;stroke-dasharray:none;stroke-opacity:1;fill:#348933;fill-opacity:1"
     sodipodi:nodetypes="sssss" />
  <mask
     id="a"
     maskUnits="userSpaceOnUse"
     x="19.826"
     y="21.522"
     width="26"
     height="27"
     fill="#000">
    <path
       fill="#fff"
       d="M19.826 21.522h26v27h-26z"
       id="path3" />
    <path
       fill-rule="evenodd"
       clip-rule="evenodd"
       d="M33 46c5.596 0 10.174-4.242 10.174-12.435 0-8.192-5.276-9.043-10.513-9.043-4.638 0-9.835.85-9.835 9.043S27.404 46 33 46z"
       id="path4" />
  </mask>
  <mask
     id="b"
     maskUnits="userSpaceOnUse"
     x="16.435"
     y="16.435"
     width="32"
     height="19"
     fill="#000">
    <path
       fill="#fff"
       d="M16.435 16.435h32v19h-32z"
       id="path8" />
    <path
       fill-rule="evenodd"
       clip-rule="evenodd"
       d="M32.66 32.66c7.305 0 13.227-2.96 13.227-6.612s-5.922-6.613-13.226-6.613c-7.305 0-13.226 2.96-13.226 6.613 0 3.652 5.921 6.613 13.226 6.613z"
       id="path9" />
  </mask>
  <mask
     id="c"
     mask-type="alpha"
     maskUnits="userSpaceOnUse"
     x="20"
     y="29"
     width="26"
     height="9">
    <path
       fill-rule="evenodd"
       clip-rule="evenodd"
       d="M21.741 30.74c.521 3.168 5.391 5.651 11.797 5.651 5.388 0 10.202-2.483 10.72-5.652z"
       fill="#fff"
       id="path15" />
    <path
       d="M21.741 30.74v-1.131a1.13 1.13 0 0 0-1.115 1.314zm22.517 0 1.115.182a1.13 1.13 0 0 0-1.115-1.313zm-23.632.183c.346 2.108 2.08 3.758 4.31 4.847 2.27 1.107 5.265 1.752 8.602 1.752V35.26c-3.069 0-5.711-.597-7.61-1.523-1.936-.945-2.897-2.121-3.071-3.182zm12.912 6.599c2.855 0 5.59-.656 7.71-1.767 2.083-1.09 3.784-2.741 4.125-4.834l-2.23-.364c-.177 1.077-1.142 2.252-2.943 3.195-1.762.923-4.13 1.509-6.662 1.509zm10.72-7.913H21.74v2.26h22.517z"
       fill="#fff"
       id="path16" />
  </mask>
  <path
     d="m 28.928532,16.103914 -0.633136,0.531624 c 0,0 -0.94626,0.757565 -1.871879,1.871319 -0.925615,1.113754 -1.899402,2.589013 -1.899402,4.167938 0,0.93566 0.454203,1.868661 1.211215,2.615594 0.02755,0.02658 0.05506,0.05848 0.08258,0.08505 -0.901525,0.07443 -1.775532,0.18341 -2.615123,0.318975 0.08258,-0.19936 0.151404,-0.412009 0.192696,-0.616685 0.192692,-0.933001 -0.0035,-1.903217 -0.550556,-2.721919 -1.806498,-2.708628 -3.853866,-4.104143 -3.853866,-4.104143 l -0.633136,-0.382769 -0.57808,0.425299 c 0,0 -3.072769,2.272696 -2.560066,5.592692 0.165163,1.06325 0.739805,1.905876 1.293799,2.445474 0.244304,0.239232 0.657221,0.584788 1.211211,0.871865 -0.529906,0.223282 -1.028844,0.462514 -1.486491,0.723009 -0.02755,-0.18341 -0.07915,-0.374795 -0.137636,-0.552889 -0.313131,-0.933 -1.0082,-1.81018 -2.0921,-2.317881 C 11.035579,23.66361 9.411447,22.802378 9.411447,22.802378 L 8.640677,22.398345 8.172704,23.01503 c 0,0 -2.50501,3.040893 -0.192691,5.954197 0.726041,0.911736 1.710155,1.496524 2.505015,1.807524 0.461085,0.180752 1.255946,0.404035 2.202207,0.4253 0.158286,0.0026 0.330331,-0.0079 0.4955,-0.02127 -0.08603,0.292393 -0.13764,0.584788 -0.13764,0.89313 0,1.180207 0.677866,2.243455 1.789295,3.168483 v 2.955832 c 0,1.99891 1.734239,3.726691 4.29431,4.912214 2.560066,1.185523 6.007903,1.892583 9.799831,1.892583 3.791933,0 7.239764,-0.70706 9.799831,-1.892583 2.560071,-1.185523 4.29431,-2.913304 4.29431,-4.912214 v -2.955832 c 1.111429,-0.925028 1.789295,-1.988277 1.789295,-3.168483 0,-0.308343 -0.05162,-0.600737 -0.137635,-0.89313 0.165163,0.01329 0.337214,0.02392 0.495496,0.02127 0.94626,-0.02127 1.74112,-0.244548 2.202211,-0.4253 0.794856,-0.311001 1.782413,-0.895788 2.50501,-1.807524 2.312319,-2.913304 -0.192692,-5.954197 -0.192692,-5.954197 l -0.467972,-0.616685 -0.770772,0.404034 c 0,0 -1.624131,0.861234 -4.597114,2.25409 -1.0839,0.507701 -1.778969,1.384882 -2.092098,2.317884 -0.0585,0.178094 -0.110108,0.369478 -0.137635,0.552889 -0.457647,-0.260496 -0.956587,-0.499728 -1.486492,-0.723009 0.55399,-0.287078 0.966906,-0.632633 1.211215,-0.871865 0.553991,-0.539599 1.128632,-1.382224 1.293795,-2.445474 0.512703,-3.319995 -2.560067,-5.592692 -2.560067,-5.592692 l -0.578079,-0.4253 -0.633136,0.382771 c 0,0 -2.047368,1.395513 -3.853866,4.104142 -0.547112,0.818702 -0.743248,1.788918 -0.550552,2.721919 0.04128,0.204675 0.110108,0.417325 0.192692,0.616685 -0.839591,-0.135565 -1.713593,-0.244548 -2.615122,-0.318976 0.02755,-0.02658 0.05506,-0.05848 0.08258,-0.08506 0.757012,-0.746932 1.211215,-1.679934 1.211215,-2.615592 0,-1.578927 -0.973788,-3.054185 -1.899402,-4.167939 -0.92562,-1.113754 -1.871879,-1.871319 -1.871879,-1.871319 z m 0,2.105233 c 0.316567,0.287078 0.502383,0.422642 1.018524,1.041984 0.836148,1.002113 1.624126,2.301936 1.624126,3.423664 0,0.568839 -0.333769,1.275899 -0.853354,1.786259 -0.1514,0.151513 -0.323451,0.271129 -0.495496,0.382769 0.0069,-0.04253 0.02755,-0.08505 0.02755,-0.12759 0,-1.020718 -1.321328,-2.105233 -1.321328,-2.105233 0,0 -1.321323,1.084515 -1.321323,2.105233 0,0.04253 0.02066,0.08505 0.02755,0.12759 -0.172046,-0.11164 -0.344091,-0.231256 -0.495497,-0.382769 -0.519584,-0.51036 -0.853354,-1.21742 -0.853354,-1.786259 0,-1.121728 0.787978,-2.421551 1.624127,-3.423664 0.516146,-0.619342 0.701956,-0.754906 1.018523,-1.041984 z m -10.432967,1.61614 c 0.629693,0.502384 1.634453,1.390199 2.807819,3.147219 0.344091,0.515674 0.488614,1.251976 0.357856,1.892583 -0.03786,0.18341 -0.08603,0.350872 -0.165165,0.510359 -0.02755,-0.03987 -0.04816,-0.07177 -0.08259,-0.106324 -0.966906,-0.914394 -2.257262,-2.147764 -2.257262,-2.147764 0,0 -0.891209,1.690566 -0.08259,3.104688 -0.0069,-0.0026 -0.02066,0.0026 -0.02755,0 -0.509259,-0.196701 -0.984114,-0.555548 -1.156159,-0.72301 -0.354417,-0.345555 -0.791417,-1.004769 -0.908412,-1.764994 -0.313124,-2.030806 0.874002,-3.317338 1.514019,-3.912757 z m 20.865934,0 c 0.640018,0.595419 1.827149,1.881951 1.51402,3.912757 -0.116991,0.760225 -0.553991,1.419439 -0.908413,1.764994 -0.172046,0.167462 -0.646899,0.526309 -1.156159,0.72301 -0.0069,0.0026 -0.02065,-0.0026 -0.02755,0 0.808625,-1.414122 -0.08259,-3.104688 -0.08259,-3.104688 0,0 -1.290356,1.23337 -2.257263,2.147764 -0.03439,0.03456 -0.05506,0.06645 -0.08259,0.106324 -0.07913,-0.159487 -0.127315,-0.326949 -0.165163,-0.510359 -0.130759,-0.640607 0.01377,-1.376909 0.357859,-1.892583 1.173362,-1.75702 2.178123,-2.644835 2.807815,-3.147219 z M 9.328865,24.375994 c 0.512703,0.265812 1.348856,0.715035 3.771287,1.850054 0.57808,0.271129 1.080457,0.855917 1.2938,1.48855 0.06538,0.196701 0.09979,0.388085 0.110108,0.574154 -0.04816,-0.02658 -0.08602,-0.06379 -0.137637,-0.08505 -1.37294,-0.518335 -3.220735,-1.212105 -3.220735,-1.212105 0,0 0.106675,1.826131 1.596604,2.849509 -0.01031,0 -0.01719,0 -0.02755,0 -0.571197,-0.01329 -1.187125,-0.180752 -1.431435,-0.276445 C 10.774046,29.365299 10.013596,28.900128 9.494011,28.246229 8.148602,26.553001 8.884963,25.088375 9.328846,24.375998 Z m 39.199334,0 c 0.443882,0.712377 1.180244,2.177003 -0.165169,3.870227 -0.519584,0.6539 -1.28003,1.119071 -1.789294,1.31843 -0.244305,0.09569 -0.860238,0.263155 -1.431436,0.276446 -0.01031,0 -0.01719,0 -0.02755,0 1.489935,-1.023378 1.596603,-2.849509 1.596603,-2.849509 0,0 -1.847793,0.693771 -3.220735,1.212104 -0.0516,0.02127 -0.08946,0.05848 -0.137636,0.08505 0.01031,-0.186068 0.04474,-0.377454 0.110113,-0.574155 0.213338,-0.632633 0.715715,-1.21742 1.293795,-1.488549 2.422431,-1.135019 3.258584,-1.584242 3.771287,-1.850055 z m -19.599667,2.275354 c 4.005271,0 7.614828,0.661872 10.157691,1.701199 2.542864,1.039327 3.908922,2.386996 3.908922,3.721374 0,1.334378 -1.366058,2.682046 -3.908922,3.721372 -2.542863,1.039326 -6.15242,1.701199 -10.157691,1.701199 -4.00527,0 -7.614826,-0.661873 -10.157691,-1.701199 -2.542863,-1.039326 -3.908922,-2.386994 -3.908922,-3.721372 0,-1.334378 1.366059,-2.682047 3.908922,-3.721374 2.542865,-1.039327 6.152421,-1.701199 10.157691,-1.701199 z m -12.332374,9.760629 c 0.412916,0.217968 0.856799,0.4253 1.321327,0.616686 0.540232,0.220624 1.128632,0.430616 1.734239,0.616684 0,0.01595 0,0.02658 0,0.04253 0,0.752249 0.68131,1.515129 1.541549,1.701199 0.849916,0.186068 1.555311,-0.260497 1.569074,-0.999455 1.37638,0.244547 2.862871,0.39606 4.404418,0.46783 0,0.0079 0,0.01329 0,0.02127 0,0.752248 0.787978,1.360958 1.761767,1.360958 0.973788,0 1.761766,-0.60871 1.761766,-1.360958 0,-0.0079 0,-0.01329 0,-0.02127 1.541548,-0.07177 3.02804,-0.223283 4.404423,-0.46783 0.01377,0.738958 0.719159,1.185523 1.569072,0.999455 0.860241,-0.18607 1.541547,-0.94895 1.541547,-1.701199 0,-0.01595 0,-0.02658 0,-0.04253 0.605607,-0.186068 1.194012,-0.39606 1.734238,-0.616684 0.46453,-0.191386 0.908411,-0.398718 1.321328,-0.616686 v 1.78626 c 0,1.384882 -1.218097,2.713943 -3.440955,3.742638 -2.222852,1.028693 -5.385088,1.701199 -8.891419,1.701199 -3.506331,0 -6.668567,-0.672506 -8.891419,-1.701199 -2.222857,-1.028695 -3.440955,-2.357756 -3.440955,-3.742638 z"
     id="path1-9"
     style="fill:#530a20;fill-opacity:1;stroke-width:0.774223" />
  <path
     style="fill:#ff0000;stroke:#41479b;stroke-width:0.0164239;stroke-linecap:round;stroke-linejoin:round;stroke-miterlimit:0"
     d="M 11.537465,29.568653 C 10.800056,29.345894 9.7161073,28.484026 9.3171316,27.803226 8.8107496,26.93915 8.7019531,26.349566 8.9100297,25.59708 c 0.3174,-1.147841 0.2580832,-1.144327 2.4048163,-0.142499 1.932942,0.902056 2.745753,1.509377 2.956494,2.209049 0.137681,0.457105 0.05802,0.447467 -1.631978,-0.197462 -0.78786,-0.300659 -1.461816,-0.517309 -1.497679,-0.481446 -0.172045,0.172045 0.203895,1.291625 0.662585,1.973235 0.516864,0.768057 0.486231,0.838175 -0.266803,0.610696 z"
     id="path5" />
  <path
     style="fill:#ff0000;stroke:#41479b;stroke-width:0.0164239;stroke-linecap:round;stroke-linejoin:round;stroke-miterlimit:0"
     d="m 18.140612,25.611157 c -0.720394,-0.567934 -1.203797,-1.811204 -1.099004,-2.826547 0.08666,-0.839678 0.699566,-2.16182 1.220837,-2.633564 0.278793,-0.252304 0.332083,-0.222514 1.201817,0.67184 1.653903,1.700724 2.362539,3.049262 2.116814,4.028309 -0.104714,0.417214 -0.110794,0.413775 -1.224674,-0.692671 -0.61569,-0.611581 -1.161097,-1.111966 -1.212015,-1.111966 -0.206455,0 -0.478166,1.444978 -0.408345,2.171612 0.04107,0.427408 0.03254,0.776332 -0.01895,0.775385 -0.05149,-9.46e-4 -0.310906,-0.173026 -0.576484,-0.382398 z"
     id="path6" />
  <path
     style="fill:#ff0000;stroke:#41479b;stroke-width:0.0164239;stroke-linecap:round;stroke-linejoin:round;stroke-miterlimit:0"
     d="M 26.969396,24.058363 C 26.707607,23.740768 26.455555,23.29161 26.40928,23.060234 26.214861,22.08814 26.979484,20.404403 28.208484,19.098295 l 0.73885,-0.785205 0.780318,0.851043 c 1.820071,1.985037 2.204041,4.04271 0.963825,5.165089 -0.292391,0.264612 -0.310465,0.254028 -0.577519,-0.338193 -0.151625,-0.336244 -0.476896,-0.804128 -0.722823,-1.039741 L 28.943994,22.5229 28.484889,22.96275 c -0.252508,0.241918 -0.589697,0.717322 -0.749309,1.056455 l -0.290204,0.616604 z"
     id="path7" />
  <path
     style="fill:#ff0000;stroke:#41479b;stroke-width:0.0164239;stroke-linecap:round;stroke-linejoin:round;stroke-miterlimit:0"
     d="m 39.106237,24.855962 c -0.0017,-0.622955 -0.09247,-1.270269 -0.206579,-1.473526 -0.202964,-0.361537 -0.206324,-0.359781 -1.262201,0.659582 -0.582282,0.562146 -1.135324,1.022084 -1.228981,1.022084 -0.260401,0 -0.203453,-1.192137 0.08377,-1.753658 0.46938,-0.917632 2.557332,-3.367799 2.869927,-3.367799 0.05955,0 0.326786,0.296811 0.593859,0.659581 0.631337,0.857557 0.998941,2.117943 0.869491,2.981181 -0.117802,0.785557 -0.743304,1.808866 -1.310465,2.143897 l -0.40575,0.239682 z"
     id="path10" />
  <path
     style="fill:#ff0000;stroke:#41479b;stroke-width:0.0164239;stroke-linecap:round;stroke-linejoin:round;stroke-miterlimit:0"
     d="m 46.02276,28.985179 c 0.44162,-0.696364 0.863737,-1.860265 0.724989,-1.999013 -0.03528,-0.03528 -0.739842,0.191332 -1.565689,0.503587 -0.825846,0.312255 -1.551441,0.517835 -1.612431,0.456844 -0.06099,-0.06099 0.03346,-0.367853 0.209902,-0.681916 0.271839,-0.483881 0.638644,-0.730002 2.40356,-1.612753 1.145521,-0.57295 2.168112,-1.044357 2.272424,-1.04757 0.314969,-0.0097 0.676906,1.533212 0.519281,2.21366 -0.265551,1.146356 -1.376595,2.295064 -2.633246,2.722511 -0.800649,0.272339 -0.821101,0.236712 -0.31879,-0.55535 z"
     id="path11" />
  <path
     style="fill:#9d0000;fill-opacity:1;stroke:#41479b;stroke-width:0.0164239;stroke-linecap:round;stroke-linejoin:round;stroke-miterlimit:0"
     d="m 26.22807,37.306013 c -4.286771,-0.326428 -7.907305,-1.43781 -9.953822,-3.055488 -3.537933,-2.796576 0.504178,-6.237208 8.527282,-7.258395 2.533583,-0.322477 7.324862,-0.238265 9.574313,0.168278 5.164018,0.933292 8.535762,2.902545 8.535762,4.985277 0,0.638333 -0.688431,1.674305 -1.511044,2.273864 -2.174507,1.584881 -5.523771,2.544407 -10.131644,2.902598 -2.176493,0.169188 -2.626013,0.16775 -5.040847,-0.01613 z"
     id="path12" />
</svg>
