<?xml version="1.0" encoding="UTF-8" standalone="no"?>
<svg
   width="58"
   height="66.667"
   fill="none"
   version="1.1"
   id="svg16"
   sodipodi:docname="gas-off.svg"
   inkscape:version="1.4 (86a8ad7, 2024-10-11)"
   xmlns:inkscape="http://www.inkscape.org/namespaces/inkscape"
   xmlns:sodipodi="http://sodipodi.sourceforge.net/DTD/sodipodi-0.dtd"
   xmlns="http://www.w3.org/2000/svg"
   xmlns:svg="http://www.w3.org/2000/svg">
  <sodipodi:namedview
     id="namedview16"
     pagecolor="#ffffff"
     bordercolor="#000000"
     borderopacity="0.25"
     inkscape:showpageshadow="2"
     inkscape:pageopacity="0.0"
     inkscape:pagecheckerboard="0"
     inkscape:deskcolor="#d1d1d1"
     showgrid="false"
     inkscape:zoom="12.886957"
     inkscape:cx="48.459851"
     inkscape:cy="7.4105936"
     inkscape:window-width="2560"
     inkscape:window-height="1417"
     inkscape:window-x="-8"
     inkscape:window-y="-8"
     inkscape:window-maximized="1"
     inkscape:current-layer="svg16" />
  <defs
     id="defs16" />
  <path
     fill-rule="evenodd"
     clip-rule="evenodd"
     d="M37.434 56.755C49.337 53.142 58 42.082 58 29 58 12.984 45.016 0 29 0S0 12.984 0 29c0 13.083 8.663 24.142 20.566 27.755l6.834 9.112a2 2 0 0 0 3.2 0z"
     fill="#fff"
     id="path1" />
  <path
     fill-rule="evenodd"
     clip-rule="evenodd"
     d="M29 55c14.36 0 26-11.64 26-26S43.36 3 29 3 3 14.64 3 29s11.64 26 26 26z"
     fill="#1ab3ff"
     id="path2" />
  <mask
     id="a"
     maskUnits="userSpaceOnUse"
     x="19.826"
     y="21.522"
     width="26"
     height="27"
     fill="#000">
    <path
       fill="#fff"
       d="M19.826 21.522h26v27h-26z"
       id="path3" />
    <path
       fill-rule="evenodd"
       clip-rule="evenodd"
       d="M33 46c5.596 0 10.174-4.242 10.174-12.435 0-8.192-5.276-9.043-10.513-9.043-4.638 0-9.835.85-9.835 9.043S27.404 46 33 46z"
       id="path4" />
  </mask>
  <mask
     id="b"
     maskUnits="userSpaceOnUse"
     x="16.435"
     y="16.435"
     width="32"
     height="19"
     fill="#000">
    <path
       fill="#fff"
       d="M16.435 16.435h32v19h-32z"
       id="path8" />
    <path
       fill-rule="evenodd"
       clip-rule="evenodd"
       d="M32.66 32.66c7.305 0 13.227-2.96 13.227-6.612s-5.922-6.613-13.226-6.613c-7.305 0-13.226 2.96-13.226 6.613 0 3.652 5.921 6.613 13.226 6.613z"
       id="path9" />
  </mask>
  <mask
     id="c"
     mask-type="alpha"
     maskUnits="userSpaceOnUse"
     x="20"
     y="29"
     width="26"
     height="9">
    <path
       fill-rule="evenodd"
       clip-rule="evenodd"
       d="M21.741 30.74c.521 3.168 5.391 5.651 11.797 5.651 5.388 0 10.202-2.483 10.72-5.652z"
       fill="#fff"
       id="path15" />
    <path
       d="M21.741 30.74v-1.131a1.13 1.13 0 0 0-1.115 1.314zm22.517 0 1.115.182a1.13 1.13 0 0 0-1.115-1.313zm-23.632.183c.346 2.108 2.08 3.758 4.31 4.847 2.27 1.107 5.265 1.752 8.602 1.752V35.26c-3.069 0-5.711-.597-7.61-1.523-1.936-.945-2.897-2.121-3.071-3.182zm12.912 6.599c2.855 0 5.59-.656 7.71-1.767 2.083-1.09 3.784-2.741 4.125-4.834l-2.23-.364c-.177 1.077-1.142 2.252-2.943 3.195-1.762.923-4.13 1.509-6.662 1.509zm10.72-7.913H21.74v2.26h22.517z"
       fill="#fff"
       id="path16" />
  </mask>
  <path
     d="m 28.304497,13.481081 -0.701138,0.588724 c 0,0 -1.047893,0.838931 -2.072929,2.072308 -1.02503,1.233377 -2.103407,2.867086 -2.103407,4.615596 0,1.036154 0.502986,2.069365 1.341306,2.896522 0.03051,0.02943 0.06097,0.06476 0.09145,0.09419 -0.998353,0.08242 -1.966233,0.20311 -2.896,0.353235 0.09145,-0.220772 0.167665,-0.456261 0.213392,-0.68292 0.213388,-1.03321 -0.0039,-2.107632 -0.609689,-3.014267 C 19.566957,17.40492 17.299691,15.85952 17.299691,15.85952 l -0.701138,-0.423881 -0.640168,0.470979 c 0,0 -3.402801,2.516795 -2.835031,6.193376 0.182903,1.177448 0.819264,2.110576 1.43276,2.70813 0.270544,0.264927 0.72781,0.647597 1.341301,0.965508 -0.58682,0.247263 -1.139347,0.51219 -1.646147,0.800664 -0.03051,-0.20311 -0.08765,-0.41505 -0.152419,-0.612273 C 13.752086,24.928815 12.982363,23.957421 11.782046,23.39519 8.48975,21.852733 6.6911777,20.899 6.6911777,20.899 l -0.8535544,-0.447428 -0.518235,0.68292 c 0,0 -2.7740616,3.367501 -0.2133876,6.593709 0.8040211,1.009661 1.8938341,1.657258 2.7740662,2.001661 0.5106081,0.200166 1.3908411,0.44743 2.4387351,0.470979 0.175287,0.0029 0.365811,-0.0088 0.548719,-0.02355 -0.09527,0.323798 -0.152423,0.647597 -0.152423,0.989057 0,1.306967 0.750673,2.484414 1.981475,3.508794 v 3.273304 c 0,2.213603 1.920505,4.126957 4.755541,5.439811 2.83503,1.312854 6.653182,2.095856 10.852383,2.095856 4.199206,0 8.017352,-0.783002 10.852383,-2.095856 2.835036,-1.312854 4.755541,-3.226208 4.755541,-5.439811 v -3.273304 c 1.230802,-1.02438 1.981474,-2.201828 1.981474,-3.508794 0,-0.341461 -0.05716,-0.665259 -0.152417,-0.989057 0.182902,0.01472 0.373432,0.02649 0.548714,0.02355 1.047893,-0.02355 1.928126,-0.270813 2.43874,-0.470979 0.880228,-0.344404 1.973853,-0.992 2.774061,-2.001661 2.560674,-3.226208 -0.213388,-6.593709 -0.213388,-6.593709 l -0.518235,-0.68292 -0.853556,0.44743 c 0,0 -1.798571,0.953734 -5.090868,2.49619 -1.200317,0.562231 -1.970039,1.533626 -2.3168,2.566837 -0.06478,0.197222 -0.121934,0.409162 -0.152418,0.612272 -0.506801,-0.288474 -1.059329,-0.553401 -1.646149,-0.800664 0.613492,-0.317911 1.070757,-0.700581 1.341306,-0.965508 0.613492,-0.597554 1.249853,-1.530682 1.432755,-2.70813 0.56777,-3.67658 -2.835031,-6.193376 -2.835031,-6.193376 l -0.640168,-0.470979 -0.701138,0.423882 c 0,0 -2.267266,1.545399 -4.267791,4.544948 -0.605875,0.906635 -0.823077,1.981057 -0.609684,3.014267 0.04571,0.226659 0.121934,0.462148 0.213388,0.68292 -0.929767,-0.150125 -1.897641,-0.270813 -2.895999,-0.353235 0.03051,-0.02943 0.06097,-0.06476 0.09145,-0.09419 0.838319,-0.827157 1.341306,-1.860368 1.341306,-2.896521 0,-1.748511 -1.078378,-3.38222 -2.103408,-4.615597 -1.025036,-1.233376 -2.072928,-2.072308 -2.072928,-2.072308 z m 0,2.331346 c 0.350568,0.317912 0.556341,0.468036 1.127918,1.153899 0.925955,1.109745 1.798566,2.549176 1.798566,3.791383 0,0.629935 -0.369618,1.412937 -0.945009,1.978112 -0.167661,0.167787 -0.358191,0.30025 -0.548715,0.423881 0.0076,-0.0471 0.03051,-0.09419 0.03051,-0.141294 0,-1.130349 -1.463246,-2.331346 -1.463246,-2.331346 0,0 -1.46324,1.200997 -1.46324,2.331346 0,0.0471 0.02288,0.09419 0.03051,0.141294 -0.190524,-0.123631 -0.381048,-0.256094 -0.548715,-0.423881 -0.57539,-0.565175 -0.945009,-1.348177 -0.945009,-1.978112 0,-1.242207 0.872611,-2.681638 1.798566,-3.791383 0.571583,-0.685863 0.77735,-0.835987 1.127918,-1.153899 z m -11.553521,1.789722 c 0.697325,0.556343 1.810001,1.539513 3.109393,3.485246 0.381048,0.571061 0.541093,1.386445 0.396291,2.095857 -0.04192,0.203109 -0.09527,0.388557 -0.182904,0.565174 -0.03051,-0.04415 -0.05333,-0.07948 -0.09146,-0.117744 -1.070756,-1.012605 -2.499703,-2.378445 -2.499703,-2.378445 0,0 -0.98693,1.872142 -0.09146,3.438148 -0.0076,-0.0029 -0.02288,0.0029 -0.03051,0 -0.563956,-0.217828 -1.089813,-0.615217 -1.280336,-0.800665 -0.392483,-0.38267 -0.87642,-1.112687 -1.00598,-1.954564 -0.346756,-2.248925 0.967874,-3.673637 1.676632,-4.333007 z m 23.107042,0 c 0.708759,0.65937 2.023394,2.084082 1.676633,4.333007 -0.129556,0.841877 -0.613492,1.571894 -1.005981,1.954564 -0.190524,0.185448 -0.716379,0.582837 -1.280336,0.800665 -0.0076,0.0029 -0.02287,-0.0029 -0.03051,0 0.895475,-1.566006 -0.09146,-3.438148 -0.09146,-3.438148 0,0 -1.428947,1.36584 -2.499704,2.378445 -0.03808,0.03827 -0.06097,0.07359 -0.09146,0.117744 -0.08763,-0.176617 -0.140989,-0.362065 -0.182902,-0.565174 -0.144803,-0.709412 0.01525,-1.524796 0.396295,-2.095857 1.299387,-1.945733 2.412064,-2.928903 3.109388,-3.485246 z M 6.5997255,22.641625 c 0.56777,0.294362 1.4937295,0.791834 4.1763425,2.04876 0.640168,0.300249 1.196503,0.947846 1.43276,1.648427 0.0724,0.217828 0.110505,0.429768 0.121934,0.635822 -0.05333,-0.02943 -0.09526,-0.07064 -0.152419,-0.09419 -1.520401,-0.574006 -3.566659,-1.342291 -3.566659,-1.342291 0,0 0.118132,2.022267 1.768087,3.155561 -0.01142,0 -0.01904,0 -0.03051,0 C 9.716715,28.678994 9.034633,28.493548 8.764083,28.387577 8.200125,28.166803 7.357998,27.65167 6.7826071,26.927539 5.2926946,25.05245 6.1081447,23.430515 6.5997026,22.641625 Z m 43.4095435,0 c 0.491557,0.78889 1.307008,2.410825 -0.182909,4.28591 -0.575391,0.724132 -1.417512,1.239265 -1.981474,1.460036 -0.270544,0.105969 -0.952632,0.291419 -1.585179,0.306137 -0.01142,0 -0.01904,0 -0.03051,0 1.649961,-1.133294 1.768086,-3.155561 1.768086,-3.155561 0,0 -2.046256,0.768286 -3.566659,1.342291 -0.05714,0.02355 -0.09907,0.06476 -0.152418,0.09419 0.01142,-0.206053 0.04954,-0.417994 0.121939,-0.635822 0.236252,-0.700581 0.792587,-1.348177 1.432755,-1.648427 2.682613,-1.256926 3.608573,-1.754398 4.176343,-2.04876 z m -21.704772,2.519739 c 4.435457,0 8.432699,0.732961 11.248679,1.883916 2.815981,1.150956 4.32876,2.643372 4.32876,4.121069 0,1.477697 -1.512779,2.970112 -4.32876,4.121067 -2.81598,1.150955 -6.813222,1.883916 -11.248679,1.883916 -4.435457,0 -8.432698,-0.732961 -11.248679,-1.883916 -2.81598,-1.150955 -4.328761,-2.64337 -4.328761,-4.121067 0,-1.477697 1.512781,-2.970113 4.328761,-4.121069 2.815981,-1.150955 6.813222,-1.883916 11.248679,-1.883916 z M 14.647562,35.970335 c 0.457266,0.241378 0.948824,0.470979 1.463245,0.682921 0.598255,0.24432 1.249853,0.476866 1.920505,0.682919 0,0.01766 0,0.02943 0,0.0471 0,0.833044 0.754486,1.677862 1.707119,1.883916 0.941202,0.206053 1.72236,-0.288475 1.737601,-1.106801 1.52421,0.270812 3.170358,0.438599 4.877475,0.518077 0,0.0088 0,0.01472 0,0.02355 0,0.833044 0.872611,1.507132 1.95099,1.507132 1.078378,0 1.950989,-0.674088 1.950989,-1.507132 0,-0.0088 0,-0.01472 0,-0.02355 1.707118,-0.07948 3.353266,-0.247265 4.87748,-0.518077 0.01525,0.818326 0.7964,1.312854 1.737598,1.106801 0.952636,-0.206054 1.707117,-1.050872 1.707117,-1.883916 0,-0.01766 0,-0.02943 0,-0.0471 0.670653,-0.206053 1.322256,-0.438599 1.920505,-0.682919 0.514422,-0.211942 1.005979,-0.441543 1.463245,-0.682921 v 1.978113 c 0,1.533626 -1.348927,3.005435 -3.810531,4.144617 -2.461598,1.13918 -5.963474,1.883916 -9.846403,1.883916 -3.882929,0 -7.384806,-0.744736 -9.846403,-1.883916 -2.461604,-1.139182 -3.810532,-2.610991 -3.810532,-4.144617 z"
     id="path1-9"
     style="fill:#530a20;fill-opacity:1;stroke-width:0.857379" />
  <path
     style="display:inline;fill:#d40000;stroke:none;stroke-width:0.102047;stroke-linecap:round;stroke-linejoin:round;stroke-miterlimit:0"
     d="M 8.6880905,45.232438 45.549884,8.9462096 49.646596,13.19485 12.640723,49.209764 Z"
     id="path5"
     sodipodi:nodetypes="ccccc" />
  <path
     d="m -82.69945,-325 -11.5,12.5 c 0,0 -17.1875,17.8125 -34,44 -16.8125,26.1875 -34.5,60.87501 -34.5,98 0,22 8.25,43.9375 22,61.5 0.5,0.62496 1,1.37504 1.5,2 -16.37499,1.75 -32.25,4.3125 -47.5,7.5 1.5,-4.6875 2.75,-9.6875 3.5,-14.5 3.5,-21.9375 -0.0624,-44.75 -10,-64 -32.8125,-63.6875 -70,-96.5 -70,-96.5 l -11.5,-9 -10.5,10 c 0,0 -55.8125,53.4375 -46.5,131.5 3,25 13.4375,44.812496 23.5,57.5 4.4375,5.625008 11.9375,13.75 22,20.5 -9.62499,5.25 -18.6875,10.875008 -27,17 -0.5,-4.312496 -1.4375,-8.812496 -2.5,-13 -5.6875,-21.937504 -18.3125,-42.5625 -38,-54.5 -54,-32.75 -83.5,-53 -83.5,-53 l -14,-9.5 -8.5,14.5 c 0,0 -45.5,71.5 -3.5,140 13.1875,21.437504 31.0625,35.187504 45.5,42.5 8.37501,4.25 22.8125,9.5 40,10 2.87501,0.0624 6,-0.18752 9,-0.5 -1.5625,6.875008 -2.5,13.75 -2.5,21 0,27.75 12.3125,52.75 32.5,74.5 v 69.5 c 0,47 31.5,87.62501 78,115.5 46.5,27.87501 109.12501,44.5 178,44.5 68.875008,0 131.5,-16.62499 178,-44.5 46.5,-27.87499 78,-68.5 78,-115.5 V 125 c 20.1875,-21.75 32.5,-46.75 32.5,-74.5 0,-7.25 -0.93744,-14.124992 -2.5,-21 3,0.31248 6.12501,0.56256 9,0.5 17.1875,-0.5 31.62501,-5.75 40,-10 14.4375,-7.312496 32.37501,-21.062496 45.5,-42.5 42,-68.5 -3.5,-140 -3.5,-140 l -8.5,-14.5 -14,9.5 c 0,0 -29.5,20.25 -83.5,53 -19.6875,11.9375 -32.3125,32.562496 -38,54.5 -1.06256,4.187504 -2,8.687504 -2.5,13 -8.3125,-6.124992 -17.37499,-11.75 -27,-17 10.0625,-6.75 17.5625,-14.874992 22,-20.5 10.0625,-12.687504 20.5,-32.5 23.5,-57.5 9.3125,-78.0625 -46.5,-131.5 -46.5,-131.5 l -10.5,-10 -11.5,9 c 0,0 -37.187504,32.8125 -70,96.5 -9.937504,19.25 -13.5,42.0625 -10,64 0.74992,4.8125 2,9.8125 3.5,14.5 -15.25,-3.1875 -31.124992,-5.75 -47.5,-7.5 0.5,-0.62496 1,-1.37504 1.5,-2 13.75,-17.5625 22,-39.5 22,-61.5 0,-37.12499 -17.687504,-71.8125 -34.5,-98 -16.812496,-26.1875 -34,-44 -34,-44 z m 0,49.5 c 5.75,6.75 9.125008,9.9375 18.5,24.5 15.187504,23.5625 29.5,54.12501 29.5,80.5 0,13.37501 -6.062496,30 -15.5,42 -2.75,3.5625 -5.874992,6.37501 -9,9 0.1248,-1 0.5,-2 0.5,-3 0,-24 -24,-49.5 -24,-49.5 0,0 -24,25.5 -24,49.5 0,1 0.37504,2 0.5,3 -3.12499,-2.62499 -6.25,-5.4375 -9,-9 -9.4375,-12 -15.5,-28.62499 -15.5,-42 0,-26.37499 14.3125,-56.9375 29.5,-80.5 9.375008,-14.5625 12.75,-17.75 18.5,-24.5 z m -189.5,38 c 11.4375,11.8125 29.6875,32.6875 51,74 6.25,12.12501 8.87501,29.4375 6.5,44.5 -0.68752,4.3125 -1.56256,8.25 -3,12 -0.5,-0.93744 -0.87504,-1.6875 -1.5,-2.5 -17.5625,-21.5 -41,-50.5 -41,-50.5 0,0 -16.1875,39.75 -1.5,73 -0.1248,-0.0624 -0.37504,0.0624 -0.5,0 -9.25,-4.624992 -17.87499,-13.0625 -21,-17 -6.4375,-8.12499 -14.37499,-23.62499 -16.5,-41.5 -5.6875,-47.75 15.87501,-78 27.5,-92 z m 379,0 c 11.62501,14 33.1875,44.25 27.5,92 -2.12499,17.87501 -10.0625,33.37501 -16.5,41.5 -3.12499,3.9375 -11.75,12.375008 -21,17 -0.1248,0.0624 -0.37504,-0.0624 -0.5,0 14.6875,-33.25 -1.5,-73 -1.5,-73 0,0 -23.437504,29 -41,50.5 -0.62496,0.81248 -1,1.56256 -1.5,2.5 -1.43744,-3.75 -2.312496,-7.6875 -3,-12 -2.374992,-15.0625 0.25008,-32.37499 6.5,-44.5 21.312496,-41.3125 39.562496,-62.1875 51,-74 z m -545.5,107 c 9.3125,6.25 24.5,16.8125 68.5,43.5 10.5,6.375008 19.62501,20.125008 23.5,35 1.1875,4.625008 1.8125,9.125008 2,13.5 -0.87499,-0.624992 -1.5625,-1.5 -2.5,-2 -24.9375,-12.187504 -58.5,-28.5 -58.5,-28.5 0,0 1.9375,42.937504 29,67 -0.1875,0 -0.3125,0 -0.5,0 -10.37499,-0.312496 -21.5625,-4.25 -26,-6.5 -9.25,-4.687504 -23.0625,-15.624992 -32.5,-31 -24.4375,-39.812496 -11.0625,-74.25 -3,-91 z m 712,0 c 8.0625,16.75 21.4375,51.187504 -3,91 -9.4375,15.375008 -23.25,26.312496 -32.5,31 -4.4375,2.25 -15.62499,6.187504 -26,6.5 -0.18752,0 -0.31248,0 -0.5,0 27.0625,-24.062496 29,-67 29,-67 0,0 -33.5625,16.312496 -58.5,28.5 -0.93744,0.5 -1.62499,1.37504 -2.5,2 0.18752,-4.374992 0.81248,-8.874992 2,-13.5 3.87501,-14.874992 13,-28.624992 23.5,-35 44,-26.6875 59.1875,-37.25 68.5,-43.5 z m -356,53.5 c 72.75,0 138.312496,15.562496 184.5,40 46.1875,24.437504 71,56.125008 71,87.5 0,31.375008 -24.8125,63.0625 -71,87.5 -46.187504,24.4375 -111.75,40 -184.5,40 -72.75,0 -138.3125,-15.5625 -184.5,-40 -46.1875,-24.4375 -71,-56.124992 -71,-87.5 0,-31.374992 24.8125,-63.062496 71,-87.5 46.1875,-24.437504 111.75,-40 184.5,-40 z m -224,229.5 c 7.5,5.12501 15.5625,10 24,14.5 9.8125,5.1875 20.5,10.12501 31.5,14.5 0,0.37504 0,0.62496 0,1 0,17.6875 12.37501,35.62501 28,40 15.4375,4.37501 28.25,-6.12499 28.5,-23.5 25,5.75 52,9.3125 80,11 0,0.18752 0,0.31248 0,0.5 0,17.6875 14.3125,32 32,32 17.687504,0 32,-14.3125 32,-32 0,-0.18752 0,-0.31248 0,-0.5 28,-1.6875 55,-5.25 80,-11 0.25008,17.37501 13.062496,27.87501 28.5,23.5 15.625008,-4.37499 28,-22.3125 28,-40 0,-0.37504 0,-0.62496 0,-1 11,-4.37499 21.6875,-9.3125 31.5,-14.5 8.4375,-4.5 16.5,-9.37499 24,-14.5 v 42 c 0,32.5625 -22.12499,63.8125 -62.5,88 -40.374992,24.1875 -97.812496,40 -161.5,40 -63.6875,0 -121.12499,-15.8125 -161.5,-40 -40.37499,-24.1875 -62.5,-55.4375 -62.5,-88 z"
     id="path1-0"
     style="stroke-width:16" />
  <path
     style="fill:#ff0000;fill-opacity:1;stroke:#41479b;stroke-width:0.00821193;stroke-linecap:round;stroke-linejoin:round;stroke-miterlimit:0"
     d="M 9.5553951,28.552032 C 7.8051551,28.204213 6.2724257,26.730557 6.0148487,25.147944 5.901732,24.452928 6.1146617,23.498043 6.5215133,22.875802 L 6.633162,22.705046 7.66206,23.228312 c 0.5658939,0.287797 1.5701176,0.781977 2.2316083,1.098179 0.9336497,0.446298 1.2862547,0.658457 1.5761537,0.948357 0.353918,0.353918 0.675869,0.928906 0.783542,1.399368 l 0.04883,0.213353 -0.29246,-0.114842 c -1.325449,-0.520472 -3.3958124,-1.269465 -3.4258956,-1.239382 -0.076767,0.07677 0.2465199,1.220357 0.4732632,1.67411 0.129664,0.259481 0.4447903,0.695245 0.7002806,0.968365 0.2554898,0.27312 0.4343348,0.4933 0.3974328,0.48929 -0.0369,-0.004 -0.3066417,-0.0549 -0.5994199,-0.113078 z"
     id="path6" />
  <path
     style="fill:#ff0000;fill-opacity:1;stroke:#41479b;stroke-width:0.00821193;stroke-linecap:round;stroke-linejoin:round;stroke-miterlimit:0"
     d="M 16.676166,24.263063 C 15.600424,23.56662 15.09278,22.579519 15.09278,21.18421 c 0,-0.765276 0.123238,-1.301017 0.446251,-1.939946 0.211538,-0.41843 0.738509,-1.132872 1.046069,-1.418212 l 0.190403,-0.176646 0.712181,0.670417 c 0.754597,0.710346 1.697215,1.835248 2.238306,2.671151 0.528942,0.817134 0.680873,1.73283 0.407019,2.453122 -0.07332,0.192838 -0.104315,0.16958 -1.322636,-0.992411 -0.686158,-0.654432 -1.276334,-1.20045 -1.311501,-1.213374 -0.09679,-0.03557 -0.37406,0.767005 -0.469917,1.360194 -0.09158,0.566726 -0.04597,1.179934 0.123483,1.660217 0.05841,0.165547 0.07824,0.300994 0.04407,0.300994 -0.03417,0 -0.268324,-0.133494 -0.520344,-0.296653 z"
     id="path7" />
  <path
     style="fill:#ff0000;fill-opacity:1;stroke:#41479b;stroke-width:0.00821193;stroke-linecap:round;stroke-linejoin:round;stroke-miterlimit:0"
     d="m 26.273926,22.581176 c -0.98748,-1.044114 -1.090778,-2.149196 -0.340306,-3.640585 0.495263,-0.984219 1.587831,-2.438606 2.159488,-2.874629 l 0.249847,-0.190568 0.501017,0.520468 c 0.674093,0.700262 1.40928,1.707409 1.769855,2.424556 0.810799,1.6126 0.715013,2.73982 -0.325097,3.82575 -0.369081,0.385341 -0.529959,0.415033 -0.529959,0.09781 0,-0.440917 -1.126793,-2.064157 -1.432861,-2.064157 -0.05572,0 -0.31904,0.232763 -0.585165,0.517252 -0.48291,0.516232 -0.930514,1.303139 -0.93063,1.636088 -9.2e-5,0.260736 -0.09223,0.217435 -0.536189,-0.251988 z"
     id="path10" />
  <path
     style="fill:#ff0000;fill-opacity:1;stroke:#41479b;stroke-width:0.00821193;stroke-linecap:round;stroke-linejoin:round;stroke-miterlimit:0"
     d="m 39.407629,24.4468 c 0.267199,-0.696309 0.259788,-1.858804 -0.01681,-2.637282 -0.0901,-0.253584 -0.192482,-0.489726 -0.227515,-0.524759 -0.03503,-0.03503 -0.63663,0.477377 -1.336882,1.138688 -1.425444,1.346175 -1.388967,1.335529 -1.454157,0.424416 -0.07055,-0.985976 0.229462,-1.62785 1.484822,-3.176811 0.571683,-0.705386 1.826157,-1.939946 1.971239,-1.939946 0.150141,0 0.706534,0.627827 1.042678,1.176545 0.488371,0.797212 0.643878,1.370282 0.638816,2.354157 -0.0038,0.744395 -0.03097,0.917037 -0.21217,1.34971 -0.281957,0.673256 -0.731729,1.246847 -1.244667,1.587316 -0.562734,0.373521 -0.716153,0.43247 -0.645352,0.247966 z"
     id="path11" />
  <path
     style="fill:#ff0000;fill-opacity:1;stroke:#41479b;stroke-width:0.00821193;stroke-linecap:round;stroke-linejoin:round;stroke-miterlimit:0"
     d="m 46.849131,28.199744 c 0.492094,-0.517131 0.918309,-1.319957 1.069155,-2.013881 0.166001,-0.763643 0.245822,-0.763782 -1.774574,0.0031 l -1.811753,0.687682 0.05292,-0.285486 c 0.0291,-0.157017 0.144775,-0.454918 0.257044,-0.662002 0.382148,-0.704888 0.805895,-0.991502 3.179095,-2.150279 l 2.193486,-1.071028 0.185803,0.366666 c 0.756424,1.492731 0.494637,2.919557 -0.763686,4.162332 -0.828175,0.817941 -1.594887,1.20736 -2.72272,1.38289 l -0.310391,0.04831 z"
     id="path12" />
</svg>
