<?xml version="1.0" encoding="UTF-8" standalone="no"?>
<svg
   width="58"
   height="66.667"
   fill="none"
   version="1.1"
   id="svg16"
   sodipodi:docname="heating-on.svg"
   inkscape:version="1.4 (86a8ad7, 2024-10-11)"
   xmlns:inkscape="http://www.inkscape.org/namespaces/inkscape"
   xmlns:sodipodi="http://sodipodi.sourceforge.net/DTD/sodipodi-0.dtd"
   xmlns="http://www.w3.org/2000/svg"
   xmlns:svg="http://www.w3.org/2000/svg">
  <sodipodi:namedview
     id="namedview16"
     pagecolor="#ffffff"
     bordercolor="#000000"
     borderopacity="0.25"
     inkscape:showpageshadow="2"
     inkscape:pageopacity="0.0"
     inkscape:pagecheckerboard="0"
     inkscape:deskcolor="#d1d1d1"
     showgrid="false"
     inkscape:zoom="9.1124545"
     inkscape:cx="58.655986"
     inkscape:cy="22.441813"
     inkscape:window-width="2560"
     inkscape:window-height="1417"
     inkscape:window-x="-8"
     inkscape:window-y="-8"
     inkscape:window-maximized="1"
     inkscape:current-layer="svg16" />
  <defs
     id="defs16" />
  <path
     fill-rule="evenodd"
     clip-rule="evenodd"
     d="M37.434 56.755C49.337 53.142 58 42.082 58 29 58 12.984 45.016 0 29 0S0 12.984 0 29c0 13.083 8.663 24.142 20.566 27.755l6.834 9.112a2 2 0 0 0 3.2 0z"
     fill="#fff"
     id="path1" />
  <path
     fill-rule="evenodd"
     clip-rule="evenodd"
     d="M 29,55 C 43.36,55 55,43.36 55,29 55,14.64 43.36,3 29,3 14.64,3 3,14.64 3,29 3,43.36 14.64,55 29,55 Z"
     fill="#1ab3ff"
     id="path2"
     style="stroke:#1aff00;stroke-width:2;stroke-dasharray:none;stroke-opacity:1;fill:#348933;fill-opacity:1"
     sodipodi:nodetypes="sssss" />
  <mask
     id="a"
     maskUnits="userSpaceOnUse"
     x="19.826"
     y="21.522"
     width="26"
     height="27"
     fill="#000">
    <path
       fill="#fff"
       d="M19.826 21.522h26v27h-26z"
       id="path3" />
    <path
       fill-rule="evenodd"
       clip-rule="evenodd"
       d="M33 46c5.596 0 10.174-4.242 10.174-12.435 0-8.192-5.276-9.043-10.513-9.043-4.638 0-9.835.85-9.835 9.043S27.404 46 33 46z"
       id="path4" />
  </mask>
  <mask
     id="b"
     maskUnits="userSpaceOnUse"
     x="16.435"
     y="16.435"
     width="32"
     height="19"
     fill="#000">
    <path
       fill="#fff"
       d="M16.435 16.435h32v19h-32z"
       id="path8" />
    <path
       fill-rule="evenodd"
       clip-rule="evenodd"
       d="M32.66 32.66c7.305 0 13.227-2.96 13.227-6.612s-5.922-6.613-13.226-6.613c-7.305 0-13.226 2.96-13.226 6.613 0 3.652 5.921 6.613 13.226 6.613z"
       id="path9" />
  </mask>
  <mask
     id="c"
     mask-type="alpha"
     maskUnits="userSpaceOnUse"
     x="20"
     y="29"
     width="26"
     height="9">
    <path
       fill-rule="evenodd"
       clip-rule="evenodd"
       d="M21.741 30.74c.521 3.168 5.391 5.651 11.797 5.651 5.388 0 10.202-2.483 10.72-5.652z"
       fill="#fff"
       id="path15" />
    <path
       d="M21.741 30.74v-1.131a1.13 1.13 0 0 0-1.115 1.314zm22.517 0 1.115.182a1.13 1.13 0 0 0-1.115-1.313zm-23.632.183c.346 2.108 2.08 3.758 4.31 4.847 2.27 1.107 5.265 1.752 8.602 1.752V35.26c-3.069 0-5.711-.597-7.61-1.523-1.936-.945-2.897-2.121-3.071-3.182zm12.912 6.599c2.855 0 5.59-.656 7.71-1.767 2.083-1.09 3.784-2.741 4.125-4.834l-2.23-.364c-.177 1.077-1.142 2.252-2.943 3.195-1.762.923-4.13 1.509-6.662 1.509zm10.72-7.913H21.74v2.26h22.517z"
       fill="#fff"
       id="path16" />
  </mask>
  <g
     id="g6"
     transform="translate(182.84058,131.89279)" />
  <g
     id="g5"
     transform="matrix(0.15646285,0,0,0.15646285,7.467695,5.6251242)"
     style="fill:#800000">
    <g
       id="g4"
       style="fill:#800000">
      <path
         d="m 245.083,87.639 c -3.958,0 -7.169,3.213 -7.169,7.168 v 28.035 h -8.013 v -6.389 c 0,-15.887 -12.928,-28.814 -28.811,-28.814 -8.629,0 -16.357,3.834 -21.646,9.859 -5.288,-6.025 -13.017,-9.859 -21.642,-9.859 -8.629,0 -16.362,3.834 -21.646,9.859 -5.288,-6.025 -13.019,-9.859 -21.646,-9.859 -8.625,0 -16.358,3.834 -21.644,9.859 -5.286,-6.025 -13.019,-9.859 -21.646,-9.859 -15.885,0 -28.812,12.928 -28.812,28.814 v 6.389 H 27.919 c -3.955,0 -7.168,3.211 -7.168,7.168 0,3.956 3.213,7.169 7.168,7.169 h 14.478 v 106.993 c 0,15.887 12.928,28.814 28.812,28.814 8.627,0 16.36,-3.832 21.646,-9.857 5.286,6.025 13.017,9.857 21.644,9.857 8.627,0 16.358,-3.832 21.644,-9.857 5.285,6.025 13.019,9.857 21.644,9.857 8.625,0 16.362,-3.832 21.646,-9.857 5.283,6.025 13.021,9.857 21.646,9.857 15.887,0 28.814,-12.928 28.814,-28.814 V 137.184 h 15.178 c 3.957,0 7.168,-3.213 7.168,-7.168 V 94.812 c 0.013,-3.96 -3.203,-7.173 -7.156,-7.173 z m -29.52,49.545 v 106.993 c 0,7.985 -6.492,14.478 -14.473,14.478 -7.981,0 -14.477,-6.492 -14.477,-14.478 v -106.993 -14.337 -6.389 c 0,-7.983 6.496,-14.478 14.477,-14.478 7.981,0 14.473,6.494 14.473,14.478 v 6.389 z m -43.292,106.989 c 0,7.984 -6.496,14.477 -14.477,14.477 -7.981,0 -14.478,-6.492 -14.478,-14.477 v -106.989 -14.337 -6.389 c 0,-7.983 6.496,-14.478 14.478,-14.478 7.98,0 14.477,6.494 14.477,14.478 v 6.389 14.337 z m -43.289,0 c 0,7.984 -6.494,14.477 -14.475,14.477 -7.98,0 -14.475,-6.492 -14.475,-14.477 v -106.989 -14.337 -6.389 c 0,-7.983 6.495,-14.478 14.475,-14.478 7.981,0 14.475,6.494 14.475,14.478 v 6.389 14.337 z m -43.292,0 c 0,7.984 -6.497,14.477 -14.477,14.477 -7.981,0 -14.475,-6.492 -14.475,-14.477 v -106.989 -14.337 -6.389 c 0,-7.983 6.494,-14.478 14.475,-14.478 7.98,0 14.477,6.494 14.477,14.478 v 6.389 14.337 z"
         id="path1-1"
         style="fill:#800000" />
      <path
         d="m 88.472,2.404 c -6.461,7.708 -9.12,15.87 -5.918,25.669 3.16,9.667 12.865,18.533 5.12,28.493 -5.603,7.201 4.467,17.429 10.135,10.137 6.38,-8.203 9.138,-16.57 5.918,-26.75 C 100.822,30.768 90.881,21.756 98.607,12.541 104.506,5.505 94.42,-4.692 88.472,2.404 Z"
         id="path2-5"
         style="fill:#ff0000" />
      <path
         d="m 140.825,66.702 c 6.385,-8.203 9.138,-16.57 5.918,-26.75 -2.903,-9.185 -12.847,-18.197 -5.12,-27.412 5.899,-7.036 -4.191,-17.233 -10.135,-10.137 -6.461,7.708 -9.119,15.87 -5.917,25.669 3.16,9.667 12.865,18.533 5.12,28.493 -5.608,7.202 4.461,17.429 10.134,10.137 z"
         id="path3-2"
         style="fill:#ff0000" />
      <path
         d="m 174.493,2.404 c -6.459,7.708 -9.119,15.87 -5.918,25.669 3.164,9.667 12.867,18.533 5.125,28.493 -5.605,7.201 4.462,17.429 10.132,10.137 6.38,-8.203 9.139,-16.57 5.918,-26.75 -2.907,-9.185 -12.849,-18.197 -5.12,-27.412 5.899,-7.036 -4.186,-17.233 -10.137,-10.137 z"
         id="path4-7"
         style="fill:#ff0000" />
    </g>
  </g>
  <path
     style="fill:#00ff66;stroke:none;stroke-width:0.21948;stroke-linecap:round;stroke-linejoin:round;stroke-miterlimit:0;stroke-dasharray:none;stroke-opacity:1"
     d="M 17.661877,45.770519 C 17.035967,45.45264 16.70267,45.06265 16.520263,44.434721 16.430088,44.124298 16.404671,41.118887 16.428313,33.562399 l 0.03268,-10.44331 0.333784,-0.474881 c 1.02411,-1.457025 3.153317,-1.250438 3.831095,0.371713 0.149275,0.357264 0.169847,1.674247 0.169847,10.872929 v 10.466426 l -0.25534,0.483655 c -0.564237,1.068757 -1.812779,1.472832 -2.878497,0.931588 z"
     id="path10" />
  <path
     style="fill:#00ff66;stroke:none;stroke-width:0.21948;stroke-linecap:round;stroke-linejoin:round;stroke-miterlimit:0;stroke-dasharray:none;stroke-opacity:1"
     d="m 24.406957,45.780556 c -0.26601,-0.140438 -0.631804,-0.465665 -0.812875,-0.72273 l -0.32922,-0.467389 -0.02904,-10.637696 c -0.03163,-11.586582 -0.0643,-10.913435 0.563143,-11.603913 0.968416,-1.065707 2.843628,-0.811302 3.516502,0.477075 0.227092,0.434822 0.229561,0.53671 0.261932,10.809382 0.0229,7.267126 -0.0032,10.494113 -0.08725,10.783766 -0.157159,0.541637 -0.711687,1.162469 -1.261362,1.412181 -0.604595,0.274662 -1.239006,0.257015 -1.821824,-0.05068 z"
     id="path11" />
  <path
     style="fill:#00ff66;stroke:none;stroke-width:0.21948;stroke-linecap:round;stroke-linejoin:round;stroke-miterlimit:0;stroke-dasharray:none;stroke-opacity:1"
     d="m 31.268113,45.828178 c -0.606577,-0.275501 -1.111045,-0.915789 -1.258062,-1.596773 -0.08318,-0.385282 -0.109293,-3.674778 -0.08543,-10.76073 0.03845,-11.416902 -0.03109,-10.487441 0.843771,-11.277823 1.175025,-1.061564 3.073166,-0.449721 3.528321,1.137313 0.0657,0.229092 0.106748,4.257381 0.106748,10.476522 0,11.16379 0.01782,10.862601 -0.682867,11.540765 -0.704974,0.682311 -1.615634,0.860815 -2.452484,0.480726 z"
     id="path12" />
  <path
     style="fill:#00ff66;stroke:none;stroke-width:0.21948;stroke-linecap:round;stroke-linejoin:round;stroke-miterlimit:0;stroke-dasharray:none;stroke-opacity:1"
     d="m 38.07881,45.837377 c -0.55274,-0.258825 -1.10516,-0.879988 -1.261361,-1.418326 -0.08405,-0.289653 -0.110155,-3.51664 -0.08726,-10.783766 0.03237,-10.272672 0.03484,-10.37456 0.261932,-10.809382 0.672874,-1.288377 2.548086,-1.542782 3.516503,-0.477075 0.622047,0.68454 0.589128,0.03825 0.587166,11.527922 l -0.0018,10.567916 -0.24604,0.434396 c -0.55341,0.977068 -1.804476,1.410024 -2.769138,0.958315 z"
     id="path13" />
</svg>
