<?xml version="1.0" encoding="UTF-8" standalone="no"?>
<svg
   width="58"
   height="66.667"
   fill="none"
   version="1.1"
   id="svg16"
   sodipodi:docname="heating-off.svg"
   inkscape:version="1.4 (86a8ad7, 2024-10-11)"
   xmlns:inkscape="http://www.inkscape.org/namespaces/inkscape"
   xmlns:sodipodi="http://sodipodi.sourceforge.net/DTD/sodipodi-0.dtd"
   xmlns="http://www.w3.org/2000/svg"
   xmlns:svg="http://www.w3.org/2000/svg">
  <sodipodi:namedview
     id="namedview16"
     pagecolor="#ffffff"
     bordercolor="#000000"
     borderopacity="0.25"
     inkscape:showpageshadow="2"
     inkscape:pageopacity="0.0"
     inkscape:pagecheckerboard="0"
     inkscape:deskcolor="#d1d1d1"
     showgrid="false"
     inkscape:zoom="9.1124545"
     inkscape:cx="58.655986"
     inkscape:cy="22.441813"
     inkscape:window-width="2560"
     inkscape:window-height="1417"
     inkscape:window-x="-8"
     inkscape:window-y="-8"
     inkscape:window-maximized="1"
     inkscape:current-layer="svg16" />
  <defs
     id="defs16" />
  <path
     fill-rule="evenodd"
     clip-rule="evenodd"
     d="M37.434 56.755C49.337 53.142 58 42.082 58 29 58 12.984 45.016 0 29 0S0 12.984 0 29c0 13.083 8.663 24.142 20.566 27.755l6.834 9.112a2 2 0 0 0 3.2 0z"
     fill="#fff"
     id="path1" />
  <path
     fill-rule="evenodd"
     clip-rule="evenodd"
     d="M29 55c14.36 0 26-11.64 26-26S43.36 3 29 3 3 14.64 3 29s11.64 26 26 26z"
     fill="#1ab3ff"
     id="path2" />
  <mask
     id="a"
     maskUnits="userSpaceOnUse"
     x="19.826"
     y="21.522"
     width="26"
     height="27"
     fill="#000">
    <path
       fill="#fff"
       d="M19.826 21.522h26v27h-26z"
       id="path3" />
    <path
       fill-rule="evenodd"
       clip-rule="evenodd"
       d="M33 46c5.596 0 10.174-4.242 10.174-12.435 0-8.192-5.276-9.043-10.513-9.043-4.638 0-9.835.85-9.835 9.043S27.404 46 33 46z"
       id="path4" />
  </mask>
  <mask
     id="b"
     maskUnits="userSpaceOnUse"
     x="16.435"
     y="16.435"
     width="32"
     height="19"
     fill="#000">
    <path
       fill="#fff"
       d="M16.435 16.435h32v19h-32z"
       id="path8" />
    <path
       fill-rule="evenodd"
       clip-rule="evenodd"
       d="M32.66 32.66c7.305 0 13.227-2.96 13.227-6.612s-5.922-6.613-13.226-6.613c-7.305 0-13.226 2.96-13.226 6.613 0 3.652 5.921 6.613 13.226 6.613z"
       id="path9" />
  </mask>
  <mask
     id="c"
     mask-type="alpha"
     maskUnits="userSpaceOnUse"
     x="20"
     y="29"
     width="26"
     height="9">
    <path
       fill-rule="evenodd"
       clip-rule="evenodd"
       d="M21.741 30.74c.521 3.168 5.391 5.651 11.797 5.651 5.388 0 10.202-2.483 10.72-5.652z"
       fill="#fff"
       id="path15" />
    <path
       d="M21.741 30.74v-1.131a1.13 1.13 0 0 0-1.115 1.314zm22.517 0 1.115.182a1.13 1.13 0 0 0-1.115-1.313zm-23.632.183c.346 2.108 2.08 3.758 4.31 4.847 2.27 1.107 5.265 1.752 8.602 1.752V35.26c-3.069 0-5.711-.597-7.61-1.523-1.936-.945-2.897-2.121-3.071-3.182zm12.912 6.599c2.855 0 5.59-.656 7.71-1.767 2.083-1.09 3.784-2.741 4.125-4.834l-2.23-.364c-.177 1.077-1.142 2.252-2.943 3.195-1.762.923-4.13 1.509-6.662 1.509zm10.72-7.913H21.74v2.26h22.517z"
       fill="#fff"
       id="path16" />
  </mask>
  <path
     style="fill:#d40000;stroke:none;stroke-width:0.102047;stroke-linecap:round;stroke-linejoin:round;stroke-miterlimit:0;fill-opacity:0.59497207"
     d="M 8.6880905,45.232438 45.549884,8.9462096 49.646596,13.19485 12.640723,49.209764 Z"
     id="path5"
     sodipodi:nodetypes="ccccc" />
  <g
     id="g6"
     transform="translate(182.84058,131.89279)">
	
</g>
  <g
     id="g5"
     transform="matrix(0.15646285,0,0,0.15646285,7.467695,5.6251242)"
     style="fill:#800000">
	<g
   id="g4"
   style="fill:#800000">
		<path
   d="m 245.083,87.639 c -3.958,0 -7.169,3.213 -7.169,7.168 v 28.035 h -8.013 v -6.389 c 0,-15.887 -12.928,-28.814 -28.811,-28.814 -8.629,0 -16.357,3.834 -21.646,9.859 -5.288,-6.025 -13.017,-9.859 -21.642,-9.859 -8.629,0 -16.362,3.834 -21.646,9.859 -5.288,-6.025 -13.019,-9.859 -21.646,-9.859 -8.625,0 -16.358,3.834 -21.644,9.859 -5.286,-6.025 -13.019,-9.859 -21.646,-9.859 -15.885,0 -28.812,12.928 -28.812,28.814 v 6.389 H 27.919 c -3.955,0 -7.168,3.211 -7.168,7.168 0,3.956 3.213,7.169 7.168,7.169 h 14.478 v 106.993 c 0,15.887 12.928,28.814 28.812,28.814 8.627,0 16.36,-3.832 21.646,-9.857 5.286,6.025 13.017,9.857 21.644,9.857 8.627,0 16.358,-3.832 21.644,-9.857 5.285,6.025 13.019,9.857 21.644,9.857 8.625,0 16.362,-3.832 21.646,-9.857 5.283,6.025 13.021,9.857 21.646,9.857 15.887,0 28.814,-12.928 28.814,-28.814 V 137.184 h 15.178 c 3.957,0 7.168,-3.213 7.168,-7.168 V 94.812 c 0.013,-3.96 -3.203,-7.173 -7.156,-7.173 z m -29.52,49.545 v 106.993 c 0,7.985 -6.492,14.478 -14.473,14.478 -7.981,0 -14.477,-6.492 -14.477,-14.478 v -106.993 -14.337 -6.389 c 0,-7.983 6.496,-14.478 14.477,-14.478 7.981,0 14.473,6.494 14.473,14.478 v 6.389 z m -43.292,106.989 c 0,7.984 -6.496,14.477 -14.477,14.477 -7.981,0 -14.478,-6.492 -14.478,-14.477 v -106.989 -14.337 -6.389 c 0,-7.983 6.496,-14.478 14.478,-14.478 7.98,0 14.477,6.494 14.477,14.478 v 6.389 14.337 z m -43.289,0 c 0,7.984 -6.494,14.477 -14.475,14.477 -7.98,0 -14.475,-6.492 -14.475,-14.477 v -106.989 -14.337 -6.389 c 0,-7.983 6.495,-14.478 14.475,-14.478 7.981,0 14.475,6.494 14.475,14.478 v 6.389 14.337 z m -43.292,0 c 0,7.984 -6.497,14.477 -14.477,14.477 -7.981,0 -14.475,-6.492 -14.475,-14.477 v -106.989 -14.337 -6.389 c 0,-7.983 6.494,-14.478 14.475,-14.478 7.98,0 14.477,6.494 14.477,14.478 v 6.389 14.337 z"
   id="path1-1"
   style="fill:#800000" />

		<path
   d="m 88.472,2.404 c -6.461,7.708 -9.12,15.87 -5.918,25.669 3.16,9.667 12.865,18.533 5.12,28.493 -5.603,7.201 4.467,17.429 10.135,10.137 6.38,-8.203 9.138,-16.57 5.918,-26.75 C 100.822,30.768 90.881,21.756 98.607,12.541 104.506,5.505 94.42,-4.692 88.472,2.404 Z"
   id="path2-5"
   style="fill:#ff0000" />

		<path
   d="m 140.825,66.702 c 6.385,-8.203 9.138,-16.57 5.918,-26.75 -2.903,-9.185 -12.847,-18.197 -5.12,-27.412 5.899,-7.036 -4.191,-17.233 -10.135,-10.137 -6.461,7.708 -9.119,15.87 -5.917,25.669 3.16,9.667 12.865,18.533 5.12,28.493 -5.608,7.202 4.461,17.429 10.134,10.137 z"
   id="path3-2"
   style="fill:#ff0000" />

		<path
   d="m 174.493,2.404 c -6.459,7.708 -9.119,15.87 -5.918,25.669 3.164,9.667 12.867,18.533 5.125,28.493 -5.605,7.201 4.462,17.429 10.132,10.137 6.38,-8.203 9.139,-16.57 5.918,-26.75 -2.907,-9.185 -12.849,-18.197 -5.12,-27.412 5.899,-7.036 -4.186,-17.233 -10.137,-10.137 z"
   id="path4-7"
   style="fill:#ff0000" />

	</g>

</g>
  <path
     style="fill:#ffff00;fill-opacity:0.594972;stroke:#780101;stroke-width:0.0111987;stroke-linecap:round;stroke-linejoin:round;stroke-miterlimit:0;stroke-opacity:1"
     d="m 16.431224,30.310449 0.02976,-7.191425 0.333784,-0.474849 c 1.024155,-1.456989 3.153324,-1.250388 3.831095,0.371746 0.144743,0.346419 0.169847,1.134555 0.169847,5.332266 v 4.925763 l -2.197127,2.113962 -2.197127,2.113963 z"
     id="path20" />
  <path
     style="fill:#ffff00;fill-opacity:0.594972;stroke:#780101;stroke-width:0.0111987;stroke-linecap:round;stroke-linejoin:round;stroke-miterlimit:0;stroke-opacity:1"
     d="m 23.209992,27.054552 c 0,-4.022833 0.005,-4.063133 0.588972,-4.705724 0.968416,-1.065707 2.843628,-0.811302 3.516502,0.477075 0.196875,0.376965 0.234163,0.671489 0.264019,2.085411 l 0.03477,1.646451 -2.202129,2.121253 -2.202129,2.121254 z"
     id="path21" />
  <path
     style="fill:#ffff00;fill-opacity:0.594972;stroke:#780101;stroke-width:0.0111987;stroke-linecap:round;stroke-linejoin:round;stroke-miterlimit:0;stroke-opacity:1"
     d="m 29.958035,23.705268 c 0.09941,-0.705816 0.270032,-1.024263 0.81036,-1.512416 0.431214,-0.389576 0.958725,-0.574602 1.429208,-0.5013 0.199109,0.03102 0.03226,0.239469 -1.039738,1.298961 l -1.276906,1.262009 z"
     id="path22" />
  <path
     style="fill:#ffff00;fill-opacity:0.594972;stroke:#780101;stroke-width:0.0111987;stroke-linecap:round;stroke-linejoin:round;stroke-miterlimit:0;stroke-opacity:1"
     d="M 31.268113,45.828178 C 30.701789,45.570959 30.177376,44.938816 30.02356,44.327957 29.945115,44.016422 29.904127,41.901965 29.904127,38.166638 V 32.47963 l 2.249669,-2.174096 2.249668,-2.174096 v 7.889781 c 0,8.730016 0.0051,8.660382 -0.682867,9.326233 -0.704974,0.682311 -1.615634,0.860815 -2.452484,0.480726 z"
     id="path23" />
  <path
     style="fill:#ffff00;fill-opacity:0.594972;stroke:#780101;stroke-width:0.0111987;stroke-linecap:round;stroke-linejoin:round;stroke-miterlimit:0;stroke-opacity:1"
     d="M 38.079751,45.833987 C 37.838323,45.71883 37.507608,45.482581 37.344828,45.308989 36.681345,44.601434 36.708002,45.032051 36.708002,35.021627 v -9.155739 l 1.826828,-1.770679 c 1.004755,-0.973874 1.881303,-1.752798 1.947883,-1.730941 0.06658,0.02186 0.231356,0.233431 0.366166,0.470166 l 0.245109,0.430428 v 10.589902 10.589902 l -0.24604,0.434396 c -0.554639,0.979238 -1.809607,1.412155 -2.768197,0.954925 z"
     id="path24" />
  <path
     style="fill:#ffff00;fill-opacity:0.594972;stroke:#780101;stroke-width:0.0111987;stroke-linecap:round;stroke-linejoin:round;stroke-miterlimit:0;stroke-opacity:1"
     d="m 24.406957,45.780556 c -0.26601,-0.140438 -0.631804,-0.46555 -0.812875,-0.722473 l -0.32922,-0.467133 -0.03256,-2.762812 -0.03256,-2.762811 2.172487,-2.138887 2.172487,-2.138886 0.03245,4.609076 c 0.02181,3.096771 -0.0068,4.744701 -0.08726,5.022421 -0.156822,0.541494 -0.711322,1.162406 -1.261136,1.412181 -0.604595,0.274662 -1.239006,0.257015 -1.821824,-0.05068 z"
     id="path25" />
  <path
     style="fill:#ffff00;fill-opacity:0.594972;stroke:#780101;stroke-width:0.0111987;stroke-linecap:round;stroke-linejoin:round;stroke-miterlimit:0;stroke-opacity:1"
     d="m 17.631776,45.755519 c -0.321778,-0.163263 -0.614905,-0.374642 -0.651395,-0.469731 -0.0471,-0.122752 0.488541,-0.705586 1.84706,-2.009782 l 1.913403,-1.836892 0.03078,1.442786 c 0.02837,1.329876 0.01072,1.481753 -0.225476,1.940731 -0.348248,0.676711 -0.972701,1.099451 -1.731733,1.172341 -0.502069,0.04822 -0.691097,0.0099 -1.182635,-0.239453 z"
     id="path26" />
</svg>
