<?xml version="1.0" encoding="UTF-8" standalone="no"?>
<svg
   width="58"
   height="66.667"
   fill="none"
   version="1.1"
   id="svg16"
   sodipodi:docname="nato.svg"
   inkscape:version="1.4 (86a8ad7, 2024-10-11)"
   xmlns:inkscape="http://www.inkscape.org/namespaces/inkscape"
   xmlns:sodipodi="http://sodipodi.sourceforge.net/DTD/sodipodi-0.dtd"
   xmlns="http://www.w3.org/2000/svg"
   xmlns:svg="http://www.w3.org/2000/svg">
  <sodipodi:namedview
     id="namedview16"
     pagecolor="#ffffff"
     bordercolor="#000000"
     borderopacity="0.25"
     inkscape:showpageshadow="2"
     inkscape:pageopacity="0.0"
     inkscape:pagecheckerboard="0"
     inkscape:deskcolor="#d1d1d1"
     showgrid="false"
     inkscape:zoom="9.1124545"
     inkscape:cx="-26.50219"
     inkscape:cy="24.636611"
     inkscape:window-width="2560"
     inkscape:window-height="1417"
     inkscape:window-x="-8"
     inkscape:window-y="-8"
     inkscape:window-maximized="1"
     inkscape:current-layer="svg16"
     showguides="true">
    <sodipodi:guide
       position="-36.323912,59.863125"
       orientation="1,0"
       id="guide1"
       inkscape:locked="false" />
    <sodipodi:guide
       position="29.904127,75.062103"
       orientation="1,0"
       id="guide2"
       inkscape:locked="false" />
  </sodipodi:namedview>
  <defs
     id="defs16" />
  <path
     fill-rule="evenodd"
     clip-rule="evenodd"
     d="M37.434 56.755C49.337 53.142 58 42.082 58 29 58 12.984 45.016 0 29 0S0 12.984 0 29c0 13.083 8.663 24.142 20.566 27.755l6.834 9.112a2 2 0 0 0 3.2 0z"
     fill="#fff"
     id="path1" />
  <path
     style="fill:#41479b;fill-opacity:1;stroke:none;stroke-width:0.00132765;stroke-linecap:round;stroke-linejoin:round;stroke-miterlimit:0;stroke-dasharray:none"
     d="M 26.330604,55.940082 C 18.858621,55.274398 11.801812,51.372438 7.4049733,45.475432 6.1029905,43.729222 5.492885,42.724714 4.5648354,40.799286 3.3327962,38.243169 2.5335688,35.497046 2.1452885,32.485792 1.9660118,31.095437 1.9648516,27.73511 2.1431659,26.338491 2.8973188,20.431712 5.3694588,15.221512 9.4106746,11.021735 13.744309,6.5180645 19.236255,3.7717876 25.510963,2.9707008 c 1.407465,-0.17969 4.766777,-0.1793854 6.147301,5.574e-4 3.058391,0.3986422 5.857302,1.2178041 8.394206,2.4567469 1.942509,0.9486587 2.82296,1.4858664 4.582371,2.7959371 4.669512,3.4769508 8.178822,8.7115188 9.671454,14.4261678 0.556196,2.12943 0.762584,3.554823 0.847705,5.854573 0.230286,6.221588 -1.638994,12.039234 -5.511592,17.153402 -0.92125,1.216609 -3.038386,3.398948 -4.225897,4.356047 -4.092536,3.298464 -9.15424,5.384159 -14.276221,5.882578 -1.192254,0.116017 -3.736725,0.138962 -4.809686,0.04337 z"
     id="path5" />
  <path
     fill-rule="evenodd"
     clip-rule="evenodd"
     d="m 29,55 c 3.217925,0 6.299263,-0.584516 9.143637,-1.653171 C 47.992288,49.646608 55,40.142075 55,29 55,14.64 43.36,3 29,3 14.64,3 3,14.64 3,29 3,43.36 14.64,55 29,55 Z"
     fill="#1ab3ff"
     id="path2"
     style="stroke:#41479b;stroke-width:1.99937;stroke-dasharray:none;stroke-opacity:1;fill:none;fill-opacity:0.02234635"
     sodipodi:nodetypes="ssssss" />
  <mask
     id="a"
     maskUnits="userSpaceOnUse"
     x="19.826"
     y="21.522"
     width="26"
     height="27"
     fill="#000">
    <path
       fill="#fff"
       d="M19.826 21.522h26v27h-26z"
       id="path3" />
    <path
       fill-rule="evenodd"
       clip-rule="evenodd"
       d="M33 46c5.596 0 10.174-4.242 10.174-12.435 0-8.192-5.276-9.043-10.513-9.043-4.638 0-9.835.85-9.835 9.043S27.404 46 33 46z"
       id="path4" />
  </mask>
  <mask
     id="b"
     maskUnits="userSpaceOnUse"
     x="16.435"
     y="16.435"
     width="32"
     height="19"
     fill="#000">
    <path
       fill="#fff"
       d="M16.435 16.435h32v19h-32z"
       id="path8" />
    <path
       fill-rule="evenodd"
       clip-rule="evenodd"
       d="M32.66 32.66c7.305 0 13.227-2.96 13.227-6.612s-5.922-6.613-13.226-6.613c-7.305 0-13.226 2.96-13.226 6.613 0 3.652 5.921 6.613 13.226 6.613z"
       id="path9" />
  </mask>
  <mask
     id="c"
     mask-type="alpha"
     maskUnits="userSpaceOnUse"
     x="20"
     y="29"
     width="26"
     height="9">
    <path
       fill-rule="evenodd"
       clip-rule="evenodd"
       d="M21.741 30.74c.521 3.168 5.391 5.651 11.797 5.651 5.388 0 10.202-2.483 10.72-5.652z"
       fill="#fff"
       id="path15" />
    <path
       d="M21.741 30.74v-1.131a1.13 1.13 0 0 0-1.115 1.314zm22.517 0 1.115.182a1.13 1.13 0 0 0-1.115-1.313zm-23.632.183c.346 2.108 2.08 3.758 4.31 4.847 2.27 1.107 5.265 1.752 8.602 1.752V35.26c-3.069 0-5.711-.597-7.61-1.523-1.936-.945-2.897-2.121-3.071-3.182zm12.912 6.599c2.855 0 5.59-.656 7.71-1.767 2.083-1.09 3.784-2.741 4.125-4.834l-2.23-.364c-.177 1.077-1.142 2.252-2.943 3.195-1.762.923-4.13 1.509-6.662 1.509zm10.72-7.913H21.74v2.26h22.517z"
       fill="#fff"
       id="path16" />
  </mask>
  <g
     id="g6"
     transform="matrix(0.16578881,0,0,0.16578881,-13.441935,-12.687592)"
     style="display:inline">
    <path
       style="fill:#f5f5f5;stroke-width:1.45956"
       d="m 398.42675,248.11672 -36.9506,-8.21157 C 356.16914,190.40221 316.8628,151.1163 267.36132,145.80491 l -8.21594,-36.97103 c -0.65389,-2.94396 -5.63689,-2.94396 -6.29078,0 l -8.1955,36.88346 c -49.52337,5.2968 -88.82243,44.66882 -94.13235,94.18781 l -36.95497,8.21157 c -1.47418,0.32694 -2.52361,1.63617 -2.52361,3.14537 0,1.50921 1.04943,2.81844 2.52214,3.14538 l 36.95497,8.21157 c 5.30849,49.51025 44.60899,88.83702 94.12214,94.1411 l 8.20572,36.9287 c 0.32841,1.47419 1.63766,2.52362 3.14686,2.52362 1.50918,0 2.81843,-1.04943 3.14538,-2.52215 l 8.21886,-36.98563 c 49.4971,-5.31139 88.80344,-44.58561 94.11191,-94.08417 l 36.95352,-8.21157 c 1.47271,-0.32841 2.52214,-1.63619 2.52214,-3.14685 0,-1.51066 -1.05236,-2.81843 -2.52506,-3.14537 z m -43.47344,-9.66238 -70.48431,-15.66271 -15.6554,-70.4449 c 44.81187,5.78137 80.36564,41.29429 86.13971,86.10761 z m -111.76692,-86.11929 -15.65832,70.4595 -70.46242,15.65832 c 5.7799,-44.81185 41.31033,-80.33937 86.12074,-86.11782 z m -13.98273,76.68604 22.23953,22.241 H 129.11624 Z m -72.13509,35.05315 70.46242,15.65832 15.66123,70.47702 c -44.81624,-5.77553 -80.34667,-41.32347 -86.12365,-86.13534 z m 98.92996,114.07014 -22.241,-100.08888 22.241,-22.23807 z m 0,-131.43761 V 124.37981 l 22.241,100.08888 z m 12.82674,103.41669 15.64226,-70.39237 70.48287,-15.66268 c -5.77262,44.80455 -41.32202,80.26639 -86.12513,86.05505 z m 13.96814,-76.62036 -22.23954,-22.24101 h 122.32695 z"
       id="path2-0" />
  </g>
</svg>
