<?xml version="1.0" encoding="UTF-8" standalone="no"?>
<svg
   width="58"
   height="66.667"
   fill="none"
   version="1.1"
   id="svg16"
   sodipodi:docname="police-car.svg"
   inkscape:version="1.4 (86a8ad7, 2024-10-11)"
   xmlns:inkscape="http://www.inkscape.org/namespaces/inkscape"
   xmlns:sodipodi="http://sodipodi.sourceforge.net/DTD/sodipodi-0.dtd"
   xmlns="http://www.w3.org/2000/svg"
   xmlns:svg="http://www.w3.org/2000/svg">
  <defs
     id="defs16" />
  <sodipodi:namedview
     id="namedview16"
     pagecolor="#ffffff"
     bordercolor="#000000"
     borderopacity="0.25"
     inkscape:showpageshadow="2"
     inkscape:pageopacity="0.0"
     inkscape:pagecheckerboard="0"
     inkscape:deskcolor="#d1d1d1"
     showguides="false"
     inkscape:zoom="9.1124545"
     inkscape:cx="21.234674"
     inkscape:cy="28.916468"
     inkscape:window-width="1147"
     inkscape:window-height="1211"
     inkscape:window-x="648"
     inkscape:window-y="10"
     inkscape:window-maximized="1"
     inkscape:current-layer="svg16"
     showgrid="false" />
  <path
     fill-rule="evenodd"
     clip-rule="evenodd"
     d="M37.434 56.755C49.337 53.142 58 42.082 58 29 58 12.984 45.016 0 29 0S0 12.984 0 29c0 13.083 8.663 24.142 20.566 27.755l6.834 9.112a2 2 0 0 0 3.2 0z"
     fill="#fff"
     id="path1" />
  <path
     fill-rule="evenodd"
     clip-rule="evenodd"
     d="M29 55c14.36 0 26-11.64 26-26S43.36 3 29 3 3 14.64 3 29s11.64 26 26 26z"
     fill="#1ab3ff"
     id="path2" />
  <mask
     id="a"
     maskUnits="userSpaceOnUse"
     x="19.826"
     y="21.522"
     width="26"
     height="27"
     fill="#000">
    <path
       fill="#fff"
       d="M19.826 21.522h26v27h-26z"
       id="path3" />
    <path
       fill-rule="evenodd"
       clip-rule="evenodd"
       d="M33 46c5.596 0 10.174-4.242 10.174-12.435 0-8.192-5.276-9.043-10.513-9.043-4.638 0-9.835.85-9.835 9.043S27.404 46 33 46z"
       id="path4" />
  </mask>
  <path
     fill-rule="evenodd"
     clip-rule="evenodd"
     d="M29 42c5.596 0 10.174-4.242 10.174-12.435 0-8.193-5.277-9.043-10.513-9.043-4.638 0-9.835.85-9.835 9.043S23.404 42 29 42z"
     fill="#cca36c"
     id="path5" />
  <path
     clip-rule="evenodd"
     d="M33 46c5.596 0 10.174-4.242 10.174-12.435 0-8.192-5.276-9.043-10.513-9.043-4.638 0-9.835.85-9.835 9.043S27.404 46 33 46z"
     stroke="#8a3700"
     stroke-width="4.522"
     mask="url(#a)"
     transform="translate(-4 -4)"
     id="path6" />
  <path
     d="M26.74 38.044h4.521"
     stroke="#8a3700"
     stroke-width="2.261"
     stroke-linecap="round"
     id="path7" />
  <mask
     id="b"
     maskUnits="userSpaceOnUse"
     x="16.435"
     y="16.435"
     width="32"
     height="19"
     fill="#000">
    <path
       fill="#fff"
       d="M16.435 16.435h32v19h-32z"
       id="path8" />
    <path
       fill-rule="evenodd"
       clip-rule="evenodd"
       d="M32.66 32.66c7.305 0 13.227-2.96 13.227-6.612s-5.922-6.613-13.226-6.613c-7.305 0-13.226 2.96-13.226 6.613 0 3.652 5.921 6.613 13.226 6.613z"
       id="path9" />
  </mask>
  <path
     fill-rule="evenodd"
     clip-rule="evenodd"
     d="M28.66 28.66c7.305 0 13.227-2.96 13.227-6.612s-5.922-6.613-13.226-6.613c-7.305 0-13.226 2.96-13.226 6.613 0 3.652 5.921 6.613 13.226 6.613z"
     fill="#0075e3"
     id="path10" />
  <path
     clip-rule="evenodd"
     d="M32.66 32.66c7.305 0 13.227-2.96 13.227-6.612s-5.922-6.613-13.226-6.613c-7.305 0-13.226 2.96-13.226 6.613 0 3.652 5.921 6.613 13.226 6.613z"
     stroke="#18427c"
     stroke-width="4.522"
     mask="url(#b)"
     transform="translate(-4 -4)"
     id="path11" />
  <path
     fill-rule="evenodd"
     clip-rule="evenodd"
     d="M29 23.348a2.26 2.26 0 1 0 0-4.522 2.26 2.26 0 0 0 0 4.522z"
     fill="#f8f9fa"
     id="path12" />
  <path
     fill-rule="evenodd"
     clip-rule="evenodd"
     d="M17.741 26.74c.521 3.168 5.391 5.651 11.797 5.651 5.388 0 10.202-2.483 10.72-5.652z"
     fill="#0075e3"
     id="path13" />
  <path
     d="M17.741 26.74v-1.131a1.13 1.13 0 0 0-1.115 1.314zm22.517 0 1.115.182a1.13 1.13 0 0 0-1.115-1.313zm-23.632.183c.346 2.108 2.08 3.758 4.31 4.847 2.27 1.107 5.265 1.752 8.602 1.752V31.26c-3.069 0-5.711-.597-7.61-1.523-1.936-.945-2.897-2.121-3.071-3.182zm12.912 6.599c2.855 0 5.59-.656 7.71-1.767 2.083-1.09 3.784-2.741 4.125-4.833l-2.23-.365c-.177 1.077-1.142 2.252-2.943 3.195-1.762.923-4.13 1.509-6.662 1.509zm10.72-7.913H17.74v2.26h22.517z"
     fill="#18427c"
     id="path14" />
  <mask
     id="c"
     mask-type="alpha"
     maskUnits="userSpaceOnUse"
     x="20"
     y="29"
     width="26"
     height="9">
    <path
       fill-rule="evenodd"
       clip-rule="evenodd"
       d="M21.741 30.74c.521 3.168 5.391 5.651 11.797 5.651 5.388 0 10.202-2.483 10.72-5.652z"
       fill="#fff"
       id="path15" />
    <path
       d="M21.741 30.74v-1.131a1.13 1.13 0 0 0-1.115 1.314zm22.517 0 1.115.182a1.13 1.13 0 0 0-1.115-1.313zm-23.632.183c.346 2.108 2.08 3.758 4.31 4.847 2.27 1.107 5.265 1.752 8.602 1.752V35.26c-3.069 0-5.711-.597-7.61-1.523-1.936-.945-2.897-2.121-3.071-3.182zm12.912 6.599c2.855 0 5.59-.656 7.71-1.767 2.083-1.09 3.784-2.741 4.125-4.834l-2.23-.364c-.177 1.077-1.142 2.252-2.943 3.195-1.762.923-4.13 1.509-6.662 1.509zm10.72-7.913H21.74v2.26h22.517z"
       fill="#fff"
       id="path16" />
  </mask>
  <path
     id="path2962"
     style="fill:#e6e6e6;fill-opacity:1;stroke-width:0.10204724;stroke-dasharray:none"
     d="m 34.341539,55.442627 c -0.490298,-0.36393 -0.934441,-1.344156 -1.098591,-2.424601 -0.126532,-0.832865 -0.07897,-2.451722 0.09486,-3.228494 0.309888,-1.384629 0.880719,-2.108404 1.584928,-2.009333 0.431321,0.0606 0.957804,0.624784 1.169087,1.252822 0.187091,0.556104 0.36765,1.706378 0.388065,2.472301 0.03873,1.452719 -0.48032,3.347667 -1.04745,3.824036 -0.288972,0.242731 -0.839428,0.29986 -1.090917,0.113228 z m 15.512432,1.755035 c -0.393947,-0.383871 -0.802075,-1.31772 -0.95366,-2.181949 -0.07292,-0.415874 -0.0848,-0.89639 -0.04585,-1.855383 0.04782,-1.177601 0.07505,-1.360044 0.302113,-2.024648 0.761054,-2.227577 2.335659,-1.816616 2.816429,0.734958 0.223263,1.184988 0.23034,2.117179 0.02447,3.221314 -0.381918,2.04842 -1.288412,2.93894 -2.143528,2.105692 z M 31.415087,50.959875 c -0.236968,-0.232473 -0.259033,-0.582667 -0.200891,-3.188769 0.04023,-1.803535 0.08432,-2.645397 0.148116,-2.828383 0.07103,-0.203804 0.790595,-0.450827 3.301137,-1.13333 l 3.210335,-0.872716 1.615015,-3.404141 1.615015,-3.404141 4.421801,0.544363 4.4218,0.544362 1.934079,4.006064 c 1.06375,2.203326 1.998802,4.191601 2.077855,4.418299 0.140115,0.401548 0.141779,0.50365 0.06473,3.957406 -0.09515,4.265307 -0.0771,4.165757 -0.741087,4.083916 l -0.455681,-0.0561 -0.09243,-0.969904 c -0.130953,-1.37418 -0.246097,-1.880908 -0.635058,-2.79504 -0.497408,-1.16897 -0.817355,-1.505045 -1.514501,-1.590875 -0.68988,-0.08493 -1.063614,0.193468 -1.564351,1.165207 -0.348369,0.676042 -0.754126,2.205081 -0.771784,2.908149 -0.02105,0.839724 0.264787,0.836182 -5.608545,0.06932 l -5.481477,-0.715702 -0.09177,-0.969808 c -0.129853,-1.372361 -0.245091,-1.880111 -0.634392,-2.79504 -0.487059,-1.144642 -0.819732,-1.501025 -1.480613,-1.586057 -0.67074,-0.08629 -1.025989,0.160954 -1.525639,1.061827 -0.399326,0.719995 -0.826252,2.239063 -0.84323,3.000361 -0.0052,0.231357 -0.04793,0.502165 -0.09503,0.601794 -0.08546,0.180753 -0.875287,0.14299 -1.073394,-0.0513 z m 13.468195,-6.215134 c 0.08566,-0.11269 0.120841,-0.667825 0.19023,-3.001316 0.05554,-1.867667 0.06179,-2.97978 0.01797,-3.19898 -0.06534,-0.32687 -0.120237,-0.342473 -2.033167,-0.577977 l -1.965999,-0.242029 -1.244811,2.520162 c -1.012611,2.050014 -1.246645,2.600567 -1.254455,2.951702 -0.02062,0.924197 -0.0079,0.929398 3.23295,1.325697 1.738009,0.212532 2.995385,0.30412 3.057256,0.222725 z m 5.935963,0.419688 c 0.11921,-0.236862 0.187342,-0.534472 0.194358,-0.84901 0.0092,-0.412205 -0.135449,-0.865887 -0.971589,-3.047263 L 49.059625,38.70524 47.456834,38.507927 c -0.881534,-0.108523 -1.652029,-0.159741 -1.712269,-0.113819 -0.09454,0.07212 -0.118729,0.499948 -0.177659,3.141228 -0.04937,2.213378 -0.04631,3.114906 0.01112,3.264708 0.06074,0.158457 0.66291,0.268177 2.568472,0.467962 l 2.489147,0.260982 0.18356,-0.364695 z" />
  <path
     id="path2962-0"
     style="fill:#1a1a1a;fill-opacity:1;stroke-width:0.102047;stroke-dasharray:none"
     d="m 35.154406,56.314232 c -0.490298,-0.36393 -0.934441,-1.344156 -1.098591,-2.424601 -0.126532,-0.832865 -0.07897,-2.451722 0.09486,-3.228494 0.309888,-1.384629 0.880719,-2.108404 1.584928,-2.009333 0.431321,0.0606 0.957804,0.624784 1.169087,1.252822 0.187091,0.556104 0.36765,1.706378 0.388065,2.472301 0.03873,1.452719 -0.48032,3.347667 -1.04745,3.824036 -0.288972,0.242731 -0.839428,0.29986 -1.090917,0.113228 z m 15.512432,1.755035 c -0.393947,-0.383871 -0.802075,-1.31772 -0.95366,-2.181949 -0.07292,-0.415874 -0.0848,-0.89639 -0.04585,-1.855383 0.04782,-1.177601 0.07505,-1.360044 0.302113,-2.024648 0.761054,-2.227577 2.335659,-1.816616 2.816429,0.734958 0.223263,1.184988 0.23034,2.117179 0.02447,3.221314 -0.381918,2.04842 -1.288412,2.93894 -2.143528,2.105692 z M 32.227954,51.83148 c -0.236968,-0.232473 -0.259033,-0.582667 -0.200891,-3.188769 0.04023,-1.803535 0.08432,-2.645397 0.148116,-2.828383 0.07103,-0.203804 0.790595,-0.450827 3.301137,-1.13333 L 38.686651,43.808282 40.301666,40.404141 41.916681,37 l 4.421801,0.544363 4.4218,0.544362 1.934079,4.006064 c 1.06375,2.203326 1.998802,4.191601 2.077855,4.418299 0.140115,0.401548 0.141779,0.50365 0.06473,3.957406 -0.09515,4.265307 -0.0771,4.165757 -0.741087,4.083916 l -0.455681,-0.0561 -0.09243,-0.969904 c -0.130953,-1.37418 -0.246097,-1.880908 -0.635058,-2.79504 -0.497408,-1.16897 -0.817355,-1.505045 -1.514501,-1.590875 -0.68988,-0.08493 -1.063614,0.193468 -1.564351,1.165207 -0.348369,0.676042 -0.754126,2.205081 -0.771784,2.908149 -0.02105,0.839724 0.264787,0.836182 -5.608545,0.06932 l -5.481477,-0.715702 -0.09177,-0.969808 c -0.129853,-1.372361 -0.245091,-1.880111 -0.634392,-2.79504 -0.487059,-1.144642 -0.819732,-1.501025 -1.480613,-1.586057 -0.67074,-0.08629 -1.025989,0.160954 -1.525639,1.061827 -0.399326,0.719995 -0.826252,2.239063 -0.84323,3.000361 -0.0052,0.231357 -0.04793,0.502165 -0.09503,0.601794 -0.08546,0.180753 -0.875287,0.14299 -1.073394,-0.0513 z m 13.468195,-6.215134 c 0.08566,-0.11269 0.120841,-0.667825 0.19023,-3.001316 0.05554,-1.867667 0.06179,-2.97978 0.01797,-3.19898 -0.06534,-0.32687 -0.120237,-0.342473 -2.033167,-0.577977 l -1.965999,-0.242029 -1.244811,2.520162 c -1.012611,2.050014 -1.246645,2.600567 -1.254455,2.951702 -0.02062,0.924197 -0.0079,0.929398 3.23295,1.325697 1.738009,0.212532 2.995385,0.30412 3.057256,0.222725 z m 5.935963,0.419688 c 0.11921,-0.236862 0.187342,-0.534472 0.194358,-0.84901 0.0092,-0.412205 -0.135449,-0.865887 -0.971589,-3.047263 l -0.982389,-2.562916 -1.602791,-0.197313 c -0.881534,-0.108523 -1.652029,-0.159741 -1.712269,-0.113819 -0.09454,0.07212 -0.118729,0.499948 -0.177659,3.141228 -0.04937,2.213378 -0.04631,3.114906 0.01112,3.264708 0.06074,0.158457 0.66291,0.268177 2.568472,0.467962 l 2.489147,0.260982 0.18356,-0.364695 z" />
</svg>
