<?xml version="1.0" encoding="UTF-8" standalone="no"?>
<svg
   width="58"
   height="66.667"
   fill="none"
   version="1.1"
   id="svg16"
   sodipodi:docname="question.svg"
   inkscape:version="1.4 (86a8ad7, 2024-10-11)"
   xmlns:inkscape="http://www.inkscape.org/namespaces/inkscape"
   xmlns:sodipodi="http://sodipodi.sourceforge.net/DTD/sodipodi-0.dtd"
   xmlns="http://www.w3.org/2000/svg"
   xmlns:svg="http://www.w3.org/2000/svg">
  <defs
     id="defs16" />
  <sodipodi:namedview
     id="namedview16"
     pagecolor="#ffffff"
     bordercolor="#000000"
     borderopacity="0.25"
     inkscape:showpageshadow="2"
     inkscape:pageopacity="0.0"
     inkscape:pagecheckerboard="0"
     inkscape:deskcolor="#d1d1d1"
     inkscape:zoom="6.4434784"
     inkscape:cx="34.686234"
     inkscape:cy="-19.942645"
     inkscape:window-width="2560"
     inkscape:window-height="1417"
     inkscape:window-x="-8"
     inkscape:window-y="-8"
     inkscape:window-maximized="1"
     inkscape:current-layer="svg16" />
  <path
     fill-rule="evenodd"
     clip-rule="evenodd"
     d="M37.434 56.755C49.337 53.142 58 42.082 58 29 58 12.984 45.016 0 29 0S0 12.984 0 29c0 13.083 8.663 24.142 20.566 27.755l6.834 9.112a2 2 0 0 0 3.2 0z"
     fill="#fff"
     id="path1" />
  <path
     fill-rule="evenodd"
     clip-rule="evenodd"
     d="M29 55c14.36 0 26-11.64 26-26S43.36 3 29 3 3 14.64 3 29s11.64 26 26 26z"
     fill="#1ab3ff"
     id="path2"
     style="fill:#aaeeff" />
  <mask
     id="a"
     maskUnits="userSpaceOnUse"
     x="19.826"
     y="21.522"
     width="26"
     height="27"
     fill="#000">
    <path
       fill="#fff"
       d="M19.826 21.522h26v27h-26z"
       id="path3" />
    <path
       fill-rule="evenodd"
       clip-rule="evenodd"
       d="M33 46c5.596 0 10.174-4.242 10.174-12.435 0-8.192-5.276-9.043-10.513-9.043-4.638 0-9.835.85-9.835 9.043S27.404 46 33 46z"
       id="path4" />
  </mask>
  <mask
     id="b"
     maskUnits="userSpaceOnUse"
     x="16.435"
     y="16.435"
     width="32"
     height="19"
     fill="#000">
    <path
       fill="#fff"
       d="M16.435 16.435h32v19h-32z"
       id="path8" />
    <path
       fill-rule="evenodd"
       clip-rule="evenodd"
       d="M32.66 32.66c7.305 0 13.227-2.96 13.227-6.612s-5.922-6.613-13.226-6.613c-7.305 0-13.226 2.96-13.226 6.613 0 3.652 5.921 6.613 13.226 6.613z"
       id="path9" />
  </mask>
  <mask
     id="c"
     mask-type="alpha"
     maskUnits="userSpaceOnUse"
     x="20"
     y="29"
     width="26"
     height="9">
    <path
       fill-rule="evenodd"
       clip-rule="evenodd"
       d="M21.741 30.74c.521 3.168 5.391 5.651 11.797 5.651 5.388 0 10.202-2.483 10.72-5.652z"
       fill="#fff"
       id="path15" />
    <path
       d="M21.741 30.74v-1.131a1.13 1.13 0 0 0-1.115 1.314zm22.517 0 1.115.182a1.13 1.13 0 0 0-1.115-1.313zm-23.632.183c.346 2.108 2.08 3.758 4.31 4.847 2.27 1.107 5.265 1.752 8.602 1.752V35.26c-3.069 0-5.711-.597-7.61-1.523-1.936-.945-2.897-2.121-3.071-3.182zm12.912 6.599c2.855 0 5.59-.656 7.71-1.767 2.083-1.09 3.784-2.741 4.125-4.834l-2.23-.364c-.177 1.077-1.142 2.252-2.943 3.195-1.762.923-4.13 1.509-6.662 1.509zm10.72-7.913H21.74v2.26h22.517z"
       fill="#fff"
       id="path16" />
  </mask>
  <text
     xml:space="preserve"
     style="font-size:13.33333333px;font-family:Arial;-inkscape-font-specification:Arial;text-align:start;writing-mode:lr-tb;direction:ltr;text-anchor:start;fill:none;stroke:#d40000;stroke-width:7.55906;stroke-linecap:round;stroke-linejoin:round;stroke-miterlimit:0"
     x="29.081078"
     y="28.751858"
     id="text1"><tspan
       sodipodi:role="line"
       id="tspan1"
       x="29.081078"
       y="28.751858" /></text>
  <text
     xml:space="preserve"
     style="font-size:56.7848px;font-family:Arial;-inkscape-font-specification:Arial;text-align:start;writing-mode:lr-tb;direction:ltr;text-anchor:start;fill:#ff0000;stroke:none;stroke-width:3.21929;stroke-linecap:round;stroke-linejoin:round;stroke-miterlimit:0"
     x="11.678769"
     y="51.772846"
     id="text2"
     transform="scale(1.0226846,0.97781858)"><tspan
       sodipodi:role="line"
       id="tspan2"
       x="11.678769"
       y="51.772846"
       style="stroke-width:3.21929">?</tspan></text>
</svg>
