<?xml version="1.0" encoding="UTF-8" standalone="no"?>
<svg
   width="58"
   height="66.667"
   fill="none"
   version="1.1"
   id="svg17"
   sodipodi:docname="shop-fish.svg"
   inkscape:version="1.4 (86a8ad7, 2024-10-11)"
   xmlns:inkscape="http://www.inkscape.org/namespaces/inkscape"
   xmlns:sodipodi="http://sodipodi.sourceforge.net/DTD/sodipodi-0.dtd"
   xmlns="http://www.w3.org/2000/svg"
   xmlns:svg="http://www.w3.org/2000/svg">
  <defs
     id="defs17" />
  <sodipodi:namedview
     id="namedview17"
     pagecolor="#ffffff"
     bordercolor="#000000"
     borderopacity="0.25"
     inkscape:showpageshadow="2"
     inkscape:pageopacity="0.0"
     inkscape:pagecheckerboard="0"
     inkscape:deskcolor="#d1d1d1"
     inkscape:zoom="9.1124545"
     inkscape:cx="41.756038"
     inkscape:cy="47.243034"
     inkscape:window-width="2560"
     inkscape:window-height="1417"
     inkscape:window-x="-8"
     inkscape:window-y="-8"
     inkscape:window-maximized="1"
     inkscape:current-layer="svg17"
     showgrid="false" />
  <path
     fill-rule="evenodd"
     clip-rule="evenodd"
     d="M37.434 56.755C49.337 53.142 58 42.082 58 29 58 12.984 45.016 0 29 0S0 12.984 0 29c0 13.083 8.663 24.142 20.566 27.755l6.834 9.112a2 2 0 0 0 3.2 0z"
     fill="#fff"
     id="path1" />
  <path
     fill-rule="evenodd"
     clip-rule="evenodd"
     d="M29 55c14.36 0 26-11.64 26-26S43.36 3 29 3 3 14.64 3 29s11.64 26 26 26z"
     fill="#ffc400"
     id="path2" />
  <mask
     id="a"
     maskUnits="userSpaceOnUse"
     x="19.317"
     y="22.84"
     width="27"
     height="27"
     fill="#000">
    <path
       fill="#fff"
       d="M19.317 22.84h27v27h-27z"
       id="path3" />
    <path
       fill-rule="evenodd"
       clip-rule="evenodd"
       d="M33 47.243c5.596 0 10.683-4.016 10.683-13.226S38.76 25.878 33 25.878c-5.102 0-10.683-1.07-10.683 8.14S27.404 47.242 33 47.242z"
       id="path4" />
  </mask>
  <mask
     id="b"
     maskUnits="userSpaceOnUse"
     x="17.754"
     y="28.142"
     width="31"
     height="11"
     fill="#000">
    <path
       fill="#fff"
       d="M17.754 28.142h31v11h-31z"
       id="path13" />
    <path
       fill-rule="evenodd"
       clip-rule="evenodd"
       d="M20.17 31.304a.387.387 0 0 1 .456-.256c1.362.318 6.593 1.443 12.374 1.443 5.78 0 11.012-1.125 12.374-1.443a.387.387 0 0 1 .456.256l.177.53a.782.782 0 0 1-.407.951c-.547.263-1.411.69-2.426 1.232C40.64 35.305 42.928 37.07 33 37.07c-9.929 0-7.503-1.602-10.174-3.053a61.285 61.285 0 0 0-2.427-1.232.782.782 0 0 1-.407-.95z"
       id="path14" />
  </mask>
  <path
     fill-rule="evenodd"
     clip-rule="evenodd"
     d="m 18.382897,27.159403 c -2.560789,-2.918377 -3.725613,-7.072181 -3.858985,-11.188821 4.459619,-0.54595 9.0415,0.171049 12.300366,2.875009 3.544916,2.941231 6.464538,7.906071 8.6695,12.459286 0.788631,1.628661 1.580463,3.259091 2.429309,4.857814 0.185743,0.349398 0.494468,0.617769 0.866449,0.752918 l 5.308408,1.930349 -3.075257,1.537713 c -0.310008,0.154999 -0.561252,0.406244 -0.716092,0.716092 l -1.537713,3.075417 -1.930349,-5.308408 c -0.135309,-0.371813 -0.403998,-0.680707 -0.753237,-0.866608 -1.608016,-0.854124 -3.232831,-1.684393 -4.887921,-2.443563 -0.01741,-0.0084 -0.0351,-0.01572 -0.05288,-0.02302 -3.287111,-1.366851 -6.671263,-3.342197 -9.301803,-5.30649 0.666444,-0.129215 1.322481,-0.315931 1.95222,-0.55996 2.100097,-0.813938 4.043099,-2.327561 4.982565,-4.650462 0.331467,-0.819861 -0.06439,-1.753263 -0.884221,-2.084824 -0.819862,-0.33156 -1.753245,0.0643 -2.084712,0.884128 -0.525427,1.299028 -1.66458,2.281208 -3.170988,2.86507 -1.352298,0.524107 -2.8912,0.678648 -4.2547,0.478399 z m 30.308168,9.949005 -8.221778,-2.989756 c -0.344926,-0.669017 -1.000644,-1.960615 -1.934037,-3.881511 0.03463,-0.891915 0.363652,-1.606884 0.830428,-2.084384 0.507926,-0.519775 1.257166,-0.842454 2.229304,-0.754847 0.612173,0.05512 1.201922,-0.24488 1.517535,-0.772188 0.315773,-0.52728 0.301847,-1.188754 -0.03575,-1.702305 -3.117222,-4.741316 -9.074152,-8.054706 -14.578241,-8.840053 -4.559308,-3.54135 -10.660437,-3.995736 -15.864654,-3.065543 -0.750954,0.134223 -1.302959,0.779563 -1.319169,1.542261 -0.106483,5.007506 1.11075,10.707081 4.709197,14.766408 0.327209,2.713056 1.574577,5.265817 3.102202,7.488401 1.643588,2.391191 3.688338,4.511447 5.520196,6.183673 0.478511,0.436828 1.173125,0.542188 1.759673,0.267089 0.586549,-0.275259 0.949564,-0.876698 0.919457,-1.523937 -0.05026,-1.084386 0.290158,-1.870135 0.780312,-2.364135 0.44307,-0.446281 1.119771,-0.766695 2.050281,-0.77406 1.415853,0.661334 3.053162,1.504882 3.884066,1.939314 l 2.991198,8.225466 c 0.218573,0.601279 0.774219,1.014729 1.412971,1.051405 0.638751,0.03669 1.237953,-0.310335 1.524096,-0.882471 l 2.963813,-5.927787 5.927787,-2.963814 c 0.572296,-0.286143 0.919298,-0.885503 0.882472,-1.524255 -0.03669,-0.638751 -0.450127,-1.194238 -1.051406,-1.412971 z M 38.803949,24.703524 c -0.868855,0.392561 -1.628502,1.004332 -2.202885,1.760825 -1.085827,-1.970956 -2.325221,-3.971514 -3.719137,-5.802267 2.226103,0.978819 4.307445,2.371678 5.922022,4.041442 z M 21.76543,35.000796 c -0.362323,-0.527139 -0.695316,-1.05893 -0.993634,-1.593117 1.671262,1.183991 3.542707,2.332428 5.464492,3.345238 -0.618911,0.512409 -1.124843,1.161577 -1.47733,1.883911 -1.066932,-1.117375 -2.10458,-2.342675 -2.993528,-3.636032 z m -0.04268,-12.40028 c 1.326552,0 2.401916,-1.075373 2.401916,-2.401925 0,-1.326552 -1.075364,-2.401916 -2.401916,-2.401916 -1.326552,0 -2.401925,1.075364 -2.401925,2.401916 0,1.326552 1.075373,2.401925 2.401925,2.401925 z"
     fill="#000000"
     id="path1-8"
     style="stroke:none;stroke-width:0.458577;stroke-dasharray:none" />
</svg>
