<?xml version="1.0" encoding="UTF-8" standalone="no"?>
<svg
   width="58"
   height="66.667"
   fill="none"
   version="1.1"
   id="svg17"
   sodipodi:docname="shop-meat.svg"
   inkscape:version="1.4 (86a8ad7, 2024-10-11)"
   xmlns:inkscape="http://www.inkscape.org/namespaces/inkscape"
   xmlns:sodipodi="http://sodipodi.sourceforge.net/DTD/sodipodi-0.dtd"
   xmlns="http://www.w3.org/2000/svg"
   xmlns:svg="http://www.w3.org/2000/svg">
  <defs
     id="defs17" />
  <sodipodi:namedview
     id="namedview17"
     pagecolor="#ffffff"
     bordercolor="#000000"
     borderopacity="0.25"
     inkscape:showpageshadow="2"
     inkscape:pageopacity="0.0"
     inkscape:pagecheckerboard="0"
     inkscape:deskcolor="#d1d1d1"
     inkscape:zoom="6.4434784"
     inkscape:cx="38.255735"
     inkscape:cy="98.937245"
     inkscape:window-width="2560"
     inkscape:window-height="1417"
     inkscape:window-x="-8"
     inkscape:window-y="-8"
     inkscape:window-maximized="1"
     inkscape:current-layer="svg17"
     showgrid="false" />
  <path
     fill-rule="evenodd"
     clip-rule="evenodd"
     d="M37.434 56.755C49.337 53.142 58 42.082 58 29 58 12.984 45.016 0 29 0S0 12.984 0 29c0 13.083 8.663 24.142 20.566 27.755l6.834 9.112a2 2 0 0 0 3.2 0z"
     fill="#fff"
     id="path1" />
  <path
     fill-rule="evenodd"
     clip-rule="evenodd"
     d="M29 55c14.36 0 26-11.64 26-26S43.36 3 29 3 3 14.64 3 29s11.64 26 26 26z"
     fill="#ffc400"
     id="path2" />
  <mask
     id="a"
     maskUnits="userSpaceOnUse"
     x="19.317"
     y="22.84"
     width="27"
     height="27"
     fill="#000">
    <path
       fill="#fff"
       d="M19.317 22.84h27v27h-27z"
       id="path3" />
    <path
       fill-rule="evenodd"
       clip-rule="evenodd"
       d="M33 47.243c5.596 0 10.683-4.016 10.683-13.226S38.76 25.878 33 25.878c-5.102 0-10.683-1.07-10.683 8.14S27.404 47.242 33 47.242z"
       id="path4" />
  </mask>
  <mask
     id="b"
     maskUnits="userSpaceOnUse"
     x="17.754"
     y="28.142"
     width="31"
     height="11"
     fill="#000">
    <path
       fill="#fff"
       d="M17.754 28.142h31v11h-31z"
       id="path13" />
    <path
       fill-rule="evenodd"
       clip-rule="evenodd"
       d="M20.17 31.304a.387.387 0 0 1 .456-.256c1.362.318 6.593 1.443 12.374 1.443 5.78 0 11.012-1.125 12.374-1.443a.387.387 0 0 1 .456.256l.177.53a.782.782 0 0 1-.407.951c-.547.263-1.411.69-2.426 1.232C40.64 35.305 42.928 37.07 33 37.07c-9.929 0-7.503-1.602-10.174-3.053a61.285 61.285 0 0 0-2.427-1.232.782.782 0 0 1-.407-.95z"
       id="path14" />
  </mask>
  <path
     id="_0306-meat"
     data-name="0306-meat"
     d="m 12.406166,45.692913 a 5.0418306,5.0418306 0 0 1 -2.161046,-2.16141 c 0.06284,-0.264149 -0.149428,-0.255746 -0.08622,-0.5188 -0.120564,0.01977 -0.103758,-0.09791 -0.08695,-0.215554 0.01681,-0.117648 0.03398,-0.235287 -0.086223,-0.215559 A 8.5079065,8.5079065 0 0 1 10.41793,39.209776 C 10.183741,38.982893 9.6667713,39.038792 9.4680209,38.777932 9.066136,38.719113 8.8834613,38.441078 8.5181111,38.345358 8.1118419,37.916072 7.5513949,37.640596 7.2214836,37.135318 A 7.9646311,7.9646311 0 0 1 6.1838897,35.665513 7.7728222,7.7728222 0 0 1 5.9244909,33.158849 10.663107,10.663107 0 0 0 6.4432884,32.121618 7.562746,7.562746 0 0 1 7.4805171,31.343789 c 1.8187123,-0.659821 3.9136299,0.09206 5.0136979,0.949911 a 1.2589963,1.2589963 0 0 1 0.789887,-0.03177 2.1464315,2.1464315 0 0 0 0.679551,0.03177 c 1.343028,-0.443903 2.344817,-1.228308 3.457673,-1.89982 0.80377,-0.636441 1.362026,-1.519857 2.074823,-2.248 0.822403,-0.58931 1.174235,-1.648824 1.899821,-2.334222 0.06064,-0.515143 0.363157,-0.789155 0.518796,-1.209674 a 1.6440753,1.6440753 0 0 1 0.345987,-0.518432 1.7050887,1.7050887 0 0 1 0.259033,-0.60502 c 0.37485,-0.748966 0.694165,-1.553831 1.123452,-2.247267 a 15.527378,15.527378 0 0 1 4.581489,-5.705306 15.93182,15.93182 0 0 1 6.829124,-3.371085 c 0.139561,0.02448 0.149066,-0.08185 0.2594,-0.08695 0.81692,0.16367 1.406231,0.553868 2.247631,0.692337 0.455225,0.351468 1.066459,0.548026 1.469073,0.949911 0.3237,0.07965 0.454497,0.352197 0.77783,0.432575 0.376677,0.02706 0.548024,0.259764 0.864784,0.34562 a 16.9084,16.9084 0 0 1 1.81506,1.899819 c 0.464357,0.198387 0.694164,0.631691 1.124182,0.864421 0.465821,0.19655 0.714989,0.610864 1.037228,0.949909 0.701838,0.623289 1.160351,1.490629 1.72847,2.247269 a 17.430486,17.430486 0 0 1 0.94991,2.679843 19.728903,19.728903 0 0 1 1.644075,4.14855 8.4490852,8.4490852 0 0 1 0.08623,1.815424 6.4016633,6.4016633 0 0 0 0.518432,1.556025 c 0.02777,0.63571 0.130787,1.194695 0.173172,1.815424 a 1.6119245,1.6119245 0 0 0 -0.08695,0.691608 c -0.182677,0.740201 -0.576523,1.267766 -0.864418,1.899819 a 21.215511,21.215511 0 0 1 -2.247263,2.161418 c -0.393848,0.355118 -0.934201,0.564099 -1.29626,0.949912 a 8.9510764,8.9510764 0 0 0 -1.469804,0.691605 c -1.300646,0.140295 -2.439444,0.442073 -3.803296,0.518434 -3.20887,-0.104114 -5.659636,-0.967813 -8.384782,-1.555663 a 31.724807,31.724807 0 0 0 -9.249198,-0.345985 c -0.834824,0.375579 -1.48734,0.933104 -2.420444,1.209675 -0.336122,0.413208 -0.621095,0.87903 -0.94991,1.296992 -0.449746,1.221728 -0.843593,2.498993 -1.556025,3.457673 a 5.2223135,5.2223135 0 0 1 -2.593986,2.333856 4.4167166,4.4167166 0 0 1 -0.974023,0.09718 5.4228907,5.4228907 0 0 1 -1.446786,-0.178667 z m 0.77783,-7.087792 c -0.148697,0.109607 -0.107046,0.411384 -0.345986,0.432575 -0.01498,0.243688 -0.410288,0.107413 -0.345621,0.431844 a 3.3104369,3.3104369 0 0 1 -0.432209,1.123815 c 0.02082,0.568487 -0.151986,0.943336 -0.08659,1.556028 a 5.0531565,5.0531565 0 0 0 0.77783,1.55566 2.3937736,2.3937736 0 0 0 1.383214,0.259764 c 0.268899,-0.0771 0.401886,-0.288992 0.691608,-0.345619 a 7.1999532,7.1999532 0 0 0 1.21004,-1.728841 c 0.421249,-0.558617 0.569581,-1.388329 1.037229,-1.90201 q 0.319682,-1.149026 0.605385,-2.33349 a 4.215409,4.215409 0 0 1 0.777465,-0.777466 c 0.165137,-0.383252 0.63644,-0.45888 0.77783,-0.865515 a 5.695442,5.695442 0 0 0 -0.172443,-1.123085 c -0.58456,-0.194368 -1.593291,0.03653 -2.074823,-0.259398 a 2.4745157,2.4745157 0 0 1 -0.43221,-1.296263 c -0.58456,0.222499 -0.941142,0.671512 -1.469437,0.949911 -0.328816,0.07307 -0.548026,0.255744 -0.86442,0.345619 -0.322237,0.109605 -0.511489,0.354391 -1.037227,0.259399 -0.657631,-0.176092 -0.986446,-0.6843 -1.555296,-0.949908 A 6.1813577,6.1813577 0 0 0 9.9842605,33.073357 2.1453354,2.1453354 0 0 0 8.9470318,32.900539 2.0434028,2.0434028 0 0 0 7.9094379,34.110576 c 0.086953,0.633883 0.2970293,1.143912 0.4322091,1.728839 a 4.2508478,4.2508478 0 0 0 0.77783,0.778193 c 0.1300642,0.129327 0.3653502,0.154896 0.4322091,0.345989 a 1.7091075,1.7091075 0 0 1 0.6057509,0.259031 h 1.210039 c 0.101567,-0.01205 0.195827,-0.153829 0.259764,0 0.517701,-0.115831 0.5272,-0.740564 1.122721,-0.777829 0.64192,0.387637 0.427094,1.281648 0.434035,2.159951 z m 23.16648,-1.642248 c 1.325858,0.348179 3.407988,0.655438 4.927111,0.259033 -0.0559,-0.376311 -0.44938,-0.415403 -0.518432,-0.777832 -0.282779,-0.149068 -0.40846,-0.456321 -0.691971,-0.605384 -0.373388,-0.490298 -0.956852,-0.771619 -1.296263,-1.29626 -0.106682,-0.182678 -0.239304,-0.337221 -0.345983,-0.518799 -0.627674,-1.504511 -1.153413,-3.110954 -1.89982,-4.493806 a 5.5496672,5.5496672 0 0 1 -1.469442,-0.172799 c -1.694491,-0.8699 -2.267726,-2.861057 -2.593984,-5.100288 -0.212634,-3.66994 0.453764,-6.46085 0.864053,-9.508599 -0.01897,-0.06685 -0.07307,-0.100103 -0.172817,-0.08623 -0.01897,0.06759 -0.07307,0.100459 -0.172819,0.08623 a 1.7880232,1.7880232 0 0 1 -0.778196,0.259398 c -0.621092,0.474956 -1.402577,0.787695 -1.987867,1.297358 -0.655806,0.43842 -1.257169,0.933105 -1.902014,1.382484 -0.5082,0.586751 -1.147564,1.042344 -1.555659,1.728838 -0.573967,0.548024 -0.850535,1.397097 -1.296629,2.074458 -0.611596,1.578677 -1.02298,3.358662 -1.815789,4.754299 -0.662745,1.55566 -1.69486,2.741951 -2.593986,4.062692 -0.485915,0.493954 -1.160351,0.79902 -1.55566,1.382851 a 6.3994711,6.3994711 0 0 0 -0.8644,0.605376 c -0.222864,0.267068 -0.762487,0.217382 -0.778196,0.69124 a 0.56519652,0.56519652 0 0 1 0.08659,0.432576 c 1.916261,-0.244786 2.715281,0.627306 2.766065,2.247267 0.115815,0.08661 0.169525,0.233824 0.345986,0.2594 0.03654,0.165131 0.03106,0.37229 0.259399,0.345621 a 14.881804,14.881804 0 0 1 1.899814,-0.432209 10.611592,10.611592 0 0 1 -0.259398,-1.555662 c -0.146141,-0.426364 -0.162216,-1.259362 0.345986,-1.296993 0.525374,0.13737 0.530854,0.795001 0.864418,1.123819 a 15.856192,15.856192 0 0 1 0.432209,1.644073 c 0.109604,-0.0028 0.225056,0 0.339776,0 a 2.2571326,2.2571326 0 0 0 0.870264,-0.08767 c -0.182674,-0.565195 -0.397501,-1.099704 -0.60502,-1.642247 -0.160024,-0.01305 -0.05297,-0.29228 -0.173176,-0.345987 -0.03654,-0.164401 -0.246611,-0.156379 -0.172445,-0.43221 a 0.41357625,0.41357625 0 0 1 0.08622,-0.691243 c 0.699645,-0.195839 1.132584,0.584562 1.469439,1.037231 a 6.4425826,6.4425826 0 0 1 0.691607,2.073727 h 0.949911 C 27.910901,34.2487 27.264951,33.33971 27.012129,32.036507 27.213797,31.890364 27.220744,31.553515 27.61715,31.604299 28.522485,31.73657 28.577654,32.718249 29,33.3335 a 13.293992,13.293992 0 0 1 0.691971,2.420444 0.85674586,0.85674586 0 0 1 0.432574,0.04274 0.86295683,0.86295683 0 0 0 0.431846,0.04311 c 0.126401,-0.43842 -0.301049,-1.007269 -0.259032,-1.644075 a 1.7675635,1.7675635 0 0 1 -0.173172,-0.863686 c -0.0079,-0.383253 0.102296,-0.647402 0.432208,-0.691973 0.826422,0.0083 0.7581,0.913375 1.123452,1.38285 0.14067,0.723393 0.333564,1.395272 0.518433,2.074824 a 5.2245056,5.2245056 0 0 0 1.037592,0.259032 c 0.03946,-0.711701 -0.633881,-2.139855 0.345256,-2.247635 0.470935,0.163314 0.575794,0.694167 0.605386,1.297358 0.208251,0.45413 0.07927,1.246211 0.69161,1.296263 0.204958,-0.05406 -0.01304,-0.531584 0.172816,-0.604655 a 0.60794248,0.60794248 0 0 1 0.518432,-0.345619 c 0.615982,0.04932 0.641555,0.686492 0.781119,1.210037 z M 35.226661,14.228235 c -0.613059,1.144641 -0.536701,2.978699 -0.864417,4.409044 -0.296301,1.4614 -0.267803,3.247233 -0.2594,5.012969 0.105221,0.84542 0.28826,1.613751 0.432208,2.42081 0.371197,0.579809 0.4998,1.401847 1.210042,1.644075 0.339408,0.179024 1.021151,0.0166 1.383581,0.172444 0.886339,0.49651 1.358002,1.408791 1.642246,2.507398 0.521721,0.860764 0.808887,1.956814 1.210041,2.938876 0.239669,0.250263 0.472396,0.50674 0.691607,0.777466 0.128242,0.102672 0.386174,0.07489 0.345986,0.345985 0.253187,0.0059 0.320412,0.19765 0.43221,0.346352 0.58748,0.420153 0.815095,1.201638 1.642249,1.382485 a 3.2753632,3.2753632 0 0 0 2.333855,-1.123816 c 0.451939,-0.123499 0.570311,-0.582734 0.949911,-0.77783 0.269993,-0.335757 0.662743,-0.548026 0.94991,-0.86442 A 14.845634,14.845634 0 0 0 47.41328,28.665409 1.1395268,1.1395268 0 0 1 47.240481,28.060753 2.1975806,2.1975806 0 0 1 47.067665,27.369145 7.670159,7.670159 0 0 1 46.722041,25.98593 5.7111519,5.7111519 0 0 1 45.857624,23.738663 C 45.411525,23.176388 45.253695,22.325487 44.820026,21.750426 44.588393,20.973693 44.098459,20.455627 43.782795,19.762193 A 1.2272109,1.2272109 0 0 1 43.264351,19.15754 17.912017,17.912017 0 0 0 41.620277,17.774324 C 41.174186,17.212052 40.473809,16.904792 39.976202,16.391475 38.622581,15.872314 37.734048,14.88806 36.518529,14.230063 a 9.2926783,9.2926783 0 0 0 -1.123453,-0.259032 0.23601614,0.23601614 0 0 0 -0.168432,0.256841 z m 6.309958,14.954508 a 2.7638732,2.7638732 0 0 1 -1.641881,-1.123452 5.3147472,5.3147472 0 0 1 -0.519161,-0.864417 c -0.192533,-0.268532 -0.245881,-0.675531 -0.431846,-0.949911 a 5.3308224,5.3308224 0 0 1 0.345989,-3.111685 2.0072332,2.0072332 0 0 1 1.210039,-0.691973 c 0.09607,-0.01462 0.15711,0.0037 0.172443,-0.08623 0.515145,0.0028 0.833363,0.203504 1.296992,0.259034 a 3.0020812,3.0020812 0 0 0 0.777464,0.518798 c 0.219211,0.328813 0.448286,0.646668 0.691974,0.949909 a 8.1242891,8.1242891 0 0 0 0.43221,1.123452 c -0.0676,0.584558 0.118004,0.919586 0.08661,1.469803 -0.06578,0.365349 -0.107413,0.757007 -0.172798,1.123452 a 6.4155471,6.4155471 0 0 0 -0.518432,0.864052 c -0.365352,0.153454 -0.615982,0.421613 -1.037599,0.518797 z m -0.777825,-5.358954 a 4.6370228,4.6370228 0 0 0 -0.345257,1.641885 4.9687605,4.9687605 0 0 0 0.345257,1.383579 3.4302714,3.4302714 0 0 0 0.691971,0.691606 c 0.219211,0.268533 0.365349,0.614885 0.94991,0.518432 0.523912,-0.311641 0.567755,-1.10372 0.605018,-1.89982 a 5.3874518,5.3874518 0 0 0 -0.691607,-1.729566 2.0598437,2.0598437 0 0 0 -1.037592,-0.864419 c -0.06576,0 -0.134445,-0.0043 -0.199487,-0.0043 -0.193271,-0.0018 -0.35585,0.03033 -0.318219,0.262319 z M 26.58321,27.799894 c -0.07599,-0.558985 0.05734,-1.320741 0,-1.899821 0.104845,-0.15454 0.0162,-0.503088 0.173175,-0.605019 -0.02448,-0.139938 0.08185,-0.149442 0.08623,-0.259399 h 0.173174 c 0.551312,0.109607 0.389464,0.935297 0.605019,1.382487 v 0.778192 c 0.109607,0.527933 0.227248,1.53849 -0.259398,1.728839 -0.560447,-0.01462 -0.705126,-0.580542 -0.778926,-1.125644 z m 1.469801,-1.123451 c 0.02119,-0.698915 -0.0643,-1.504514 0.08695,-2.074824 0.18011,-0.05005 0.246247,-0.21446 0.518068,-0.172799 0.548023,0.487741 0.554235,1.520586 0.778195,2.334221 -0.0017,0.747139 0.131896,1.62946 -0.518431,1.72847 -0.768697,-0.126047 -0.716087,-1.070112 -0.865514,-1.815424 z m 2.074458,-4.40868 c 0.11362,0.03068 0.136659,0.152348 0.259035,0.172818 -0.06138,0.134821 0.12093,0.240036 0.173175,0.345622 0.0152,0.03144 -0.02558,0.152347 0,0.172818 0.116543,0.09572 0.11838,0.129328 0.172799,0.345986 0.140293,0.560448 0.444629,2.08542 -0.2594,2.420078 -1.200539,-0.244783 -0.840305,-2.713453 -0.34635,-3.458038 z"
     style="fill:#4d4d4d;stroke:none;stroke-width:0.365352;stroke-opacity:1" />
  <path
     style="fill:#ff0000;fill-opacity:1;stroke:none;stroke-width:0.00124157;stroke-linecap:round;stroke-linejoin:round;stroke-miterlimit:0;stroke-dasharray:none;stroke-opacity:1"
     d="m 41.484851,34.723297 -1.381855,-1.359701 -0.863728,-2.171001 c -0.47505,-1.194052 -1.000947,-2.364111 -1.168659,-2.600133 -0.380846,-0.535964 -1.049065,-0.890033 -1.679718,-0.890033 -0.697534,0 -1.038392,-0.234226 -1.419106,-0.975162 -0.856835,-1.667551 -0.991961,-5.018669 -0.368655,-9.142659 0.389165,-2.574841 0.645043,-3.544803 0.931906,-3.532587 0.437272,0.01862 1.346415,0.465589 2.14105,1.05262 0.486711,0.359555 1.206922,0.824941 1.600469,1.034192 1.022854,0.543857 3.6178,2.729106 4.279858,3.604143 0.687206,0.908275 2.102843,3.70829 2.413177,4.773069 0.12517,0.429468 0.319139,0.92447 0.431043,1.100004 0.111904,0.175534 0.385304,1.002356 0.607554,1.837381 0.337006,1.266174 0.401525,1.831558 0.388623,3.405544 -0.0085,1.038023 -0.06089,2.045524 -0.116397,2.23889 -0.128412,0.44732 -2.231862,2.29954 -3.049645,2.685403 -1.052349,0.496543 -1.236146,0.425594 -2.745917,-1.05997 z m 1.309281,-5.713945 c 0.774131,-0.369157 1.084017,-1.027646 1.167708,-2.48131 0.06394,-1.110514 0.0268,-1.347703 -0.328653,-2.099065 -0.684765,-1.447474 -1.499632,-2.055855 -2.759616,-2.060336 -1.393632,-0.005 -2.034006,0.860923 -2.050857,2.773059 -0.0079,0.891655 0.06773,1.23936 0.421715,1.939946 0.961926,1.903777 2.195301,2.573576 3.549703,1.927706 z"
     id="path6" />
  <path
     style="fill:#f9f9f9;fill-opacity:1;stroke:none;stroke-width:0.00124157;stroke-linecap:round;stroke-linejoin:round;stroke-miterlimit:0;stroke-dasharray:none;stroke-opacity:1"
     d="m 41.400159,27.353238 c -0.664855,-0.679993 -1.018699,-1.63533 -0.863735,-2.331982 0.217915,-0.979657 0.397877,-1.353915 0.651029,-1.353915 0.62894,0 1.713921,1.740079 1.720744,2.759708 0.0043,0.648418 -0.38268,1.585771 -0.65474,1.585771 -0.11462,0 -0.498604,-0.296812 -0.853298,-0.659582 z"
     id="path7" />
  <path
     style="fill:#ffe680;fill-opacity:1;stroke:none;stroke-width:0.00124157;stroke-linecap:round;stroke-linejoin:round;stroke-miterlimit:0;stroke-dasharray:none;stroke-opacity:1"
     d="m 12.745598,43.461222 c -0.592032,-0.638813 -0.792336,-1.485695 -0.577738,-2.442663 0.32513,-1.449867 0.36055,-1.542308 0.734082,-1.91584 0.298979,-0.298979 0.367289,-0.529249 0.367289,-1.238122 0,-1.425412 -0.494548,-1.878385 -1.214312,-1.112232 -0.240415,0.25591 -0.537889,0.369365 -1.036073,0.395153 C 9.6642014,37.21764 8.4921118,36.276794 8.1482054,34.843232 7.9714009,34.106228 7.9812849,33.999299 8.260939,33.623638 c 0.690341,-0.927339 1.560342,-0.783864 3.623471,0.597558 0.633615,0.424254 1.278756,0.772284 1.433648,0.7734 0.420024,0.003 1.807161,-0.612229 2.501436,-1.109498 l 0.610318,-0.437134 0.190142,0.553085 c 0.104577,0.304197 0.237246,0.600267 0.294818,0.657934 0.05757,0.05767 0.533118,0.139768 1.056767,0.182447 0.920692,0.07504 0.95692,0.09452 1.098545,0.590652 0.138519,0.485252 0.103504,0.556737 -0.646176,1.319163 -0.680014,0.691577 -0.838215,0.973239 -1.113459,1.982408 -0.385283,1.412623 -1.577853,3.707991 -2.348835,4.52086 -0.473348,0.499064 -0.656855,0.588266 -1.210177,0.588266 -0.493422,0 -0.73832,-0.0929 -1.005839,-0.381557 z"
     id="path8" />
  <path
     style="fill:#ffeeaa;fill-opacity:1;stroke:none;stroke-width:0.00124157;stroke-linecap:round;stroke-linejoin:round;stroke-miterlimit:0;stroke-dasharray:none;stroke-opacity:1"
     d="m 41.562663,27.353238 c -0.924384,-0.974072 -1.127018,-1.672246 -0.813268,-2.802101 0.297403,-1.070986 0.921208,-0.862541 1.6358,0.546605 0.402395,0.793506 0.478409,1.734033 0.191108,2.364591 -0.237025,0.520212 -0.436844,0.498706 -1.01364,-0.109095 z"
     id="path9" />
  <path
     style="fill:#ffeeaa;fill-opacity:1;stroke:none;stroke-width:0.00124157;stroke-linecap:round;stroke-linejoin:round;stroke-miterlimit:0;stroke-dasharray:none;stroke-opacity:1"
     d="m 41.563911,27.198043 c -0.262575,-0.277413 -0.555627,-0.656931 -0.651227,-0.843374 -0.357709,-0.697619 -0.118577,-2.376937 0.338473,-2.376937 0.585701,0 1.350057,1.439788 1.350057,2.543051 0,1.307627 -0.272346,1.485443 -1.037303,0.67726 z"
     id="path10" />
  <path
     style="fill:#ffeeaa;fill-opacity:1;stroke:none;stroke-width:0.00124157;stroke-linecap:round;stroke-linejoin:round;stroke-miterlimit:0;stroke-dasharray:none;stroke-opacity:1"
     d="m 13.280886,43.62883 c -0.641947,-0.21399 -1.098025,-0.998776 -1.098025,-1.889402 0,-0.819703 0.380342,-2.091898 0.775652,-2.594453 0.230672,-0.293252 0.310718,-0.629691 0.310718,-1.305975 0,-1.440699 -0.592411,-1.938275 -1.333166,-1.11975 -0.19298,0.213241 -0.477279,0.294919 -1.02653,0.294919 -1.1939888,0 -2.0366378,-0.582499 -2.5215612,-1.743084 -0.3482041,-0.83337 -0.3039703,-1.402011 0.1416238,-1.820625 0.5684804,-0.534059 1.3262662,-0.365881 3.0464014,0.676102 0.789981,0.478535 1.616348,0.869381 1.836372,0.868547 0.440948,-0.0017 1.810073,-0.59701 2.495663,-1.085193 l 0.438501,-0.31224 0.284897,0.583078 c 0.267495,0.547462 0.341687,0.590951 1.214632,0.711966 1.406714,0.195011 1.531687,0.65968 0.489253,1.819118 -0.508524,0.5656 -0.80007,1.109915 -1.175977,2.195542 -0.274903,0.793923 -0.746987,1.897444 -1.049077,2.452268 -1.116413,2.050431 -1.812021,2.608313 -2.829377,2.269182 z"
     id="path11" />
</svg>
