<?xml version="1.0" encoding="UTF-8" standalone="no"?>
<svg
   width="58"
   height="66.667"
   fill="none"
   version="1.1"
   id="svg17"
   sodipodi:docname="shop-eggs.svg"
   inkscape:version="1.4 (86a8ad7, 2024-10-11)"
   xmlns:inkscape="http://www.inkscape.org/namespaces/inkscape"
   xmlns:sodipodi="http://sodipodi.sourceforge.net/DTD/sodipodi-0.dtd"
   xmlns="http://www.w3.org/2000/svg"
   xmlns:svg="http://www.w3.org/2000/svg">
  <defs
     id="defs17" />
  <sodipodi:namedview
     id="namedview17"
     pagecolor="#ffffff"
     bordercolor="#000000"
     borderopacity="0.25"
     inkscape:showpageshadow="2"
     inkscape:pageopacity="0.0"
     inkscape:pagecheckerboard="0"
     inkscape:deskcolor="#d1d1d1"
     inkscape:zoom="6.4434784"
     inkscape:cx="38.255735"
     inkscape:cy="98.937245"
     inkscape:window-width="2560"
     inkscape:window-height="1417"
     inkscape:window-x="-8"
     inkscape:window-y="-8"
     inkscape:window-maximized="1"
     inkscape:current-layer="svg17"
     showgrid="false" />
  <path
     fill-rule="evenodd"
     clip-rule="evenodd"
     d="M37.434 56.755C49.337 53.142 58 42.082 58 29 58 12.984 45.016 0 29 0S0 12.984 0 29c0 13.083 8.663 24.142 20.566 27.755l6.834 9.112a2 2 0 0 0 3.2 0z"
     fill="#fff"
     id="path1" />
  <path
     fill-rule="evenodd"
     clip-rule="evenodd"
     d="M29 55c14.36 0 26-11.64 26-26S43.36 3 29 3 3 14.64 3 29s11.64 26 26 26z"
     fill="#ffc400"
     id="path2" />
  <mask
     id="a"
     maskUnits="userSpaceOnUse"
     x="19.317"
     y="22.84"
     width="27"
     height="27"
     fill="#000">
    <path
       fill="#fff"
       d="M19.317 22.84h27v27h-27z"
       id="path3" />
    <path
       fill-rule="evenodd"
       clip-rule="evenodd"
       d="M33 47.243c5.596 0 10.683-4.016 10.683-13.226S38.76 25.878 33 25.878c-5.102 0-10.683-1.07-10.683 8.14S27.404 47.242 33 47.242z"
       id="path4" />
  </mask>
  <mask
     id="b"
     maskUnits="userSpaceOnUse"
     x="17.754"
     y="28.142"
     width="31"
     height="11"
     fill="#000">
    <path
       fill="#fff"
       d="M17.754 28.142h31v11h-31z"
       id="path13" />
    <path
       fill-rule="evenodd"
       clip-rule="evenodd"
       d="M20.17 31.304a.387.387 0 0 1 .456-.256c1.362.318 6.593 1.443 12.374 1.443 5.78 0 11.012-1.125 12.374-1.443a.387.387 0 0 1 .456.256l.177.53a.782.782 0 0 1-.407.951c-.547.263-1.411.69-2.426 1.232C40.64 35.305 42.928 37.07 33 37.07c-9.929 0-7.503-1.602-10.174-3.053a61.285 61.285 0 0 0-2.427-1.232.782.782 0 0 1-.407-.95z"
       id="path14" />
  </mask>
  <g
     id="Eggs"
     stroke="none"
     stroke-width="1"
     fill="none"
     fill-rule="evenodd"
     stroke-linecap="round"
     transform="matrix(2.0550189,0,0,2.0550189,4.0848152,2.3129249)"
     style="fill:#f9f9f9">
    <path
       d="m 8.5,4 c 2.1881,0 4.123677,2.5672536 5.301647,5.3850776 C 14.667784,7.9937508 15.783126,6.9615385 17,6.9615385 c 2.761424,0 5,5.3154995 5,8.0769235 0,2.761423 -2.238576,4.999999 -5,4.999999 -1.352839,0 -2.58019,-0.537276 -3.480315,-1.410091 C 12.32919,20.076314 10.522464,21 8.5,21 4.9101491,21 2,18.089851 2,14.5 2,13.58622 2.1885584,12.457306 2.5288888,11.281989 v 0 L 2.6839296,10.775932 C 3.7506995,7.4744915 5.9544694,4 8.5,4 Z m 0,17 c 3.589851,0 6.5,-2.910149 6.5,-6.5 0,-0.91378 -0.188558,-2.042694 -0.528889,-3.218011 L 14.31607,10.775932 C 13.249301,7.4744915 11.045531,4 8.5,4 5.9544694,4 3.7506995,7.4744915 2.6839296,10.775932 L 2.5288888,11.281989 C 2.1885584,12.457306 2,13.58622 2,14.5 2,18.089851 4.9101491,21 8.5,21 Z"
       id="Combined-Shape"
       stroke="#000000"
       style="fill:#f9f9f9" />
  </g>
  <path
     style="fill:#f9f9f9;stroke-width:0.00124157;stroke-linecap:round;stroke-linejoin:round;stroke-miterlimit:0"
     d="M 18.91276,44.076589 C 14.470858,43.110577 10.888582,39.614195 9.6892358,35.074223 8.8767724,31.998746 9.5315868,27.436252 11.482282,22.580971 c 1.433809,-3.568752 3.093197,-6.262778 5.123656,-8.318285 1.831835,-1.854433 3.208226,-2.564812 4.96944,-2.564812 1.195605,0 2.246115,0.390701 3.547559,1.319393 5.140763,3.668372 9.784536,15.655746 8.394312,21.668967 -1.090793,4.718082 -4.662013,8.28907 -9.384321,9.38371 -1.236943,0.286725 -3.916624,0.290136 -5.220168,0.0066 z"
     id="path5" />
</svg>
