<?xml version="1.0" encoding="UTF-8" standalone="no"?>
<svg
   width="58"
   height="66.667"
   fill="none"
   version="1.1"
   id="svg17"
   sodipodi:docname="shop-milk.svg"
   inkscape:version="1.4 (86a8ad7, 2024-10-11)"
   xmlns:inkscape="http://www.inkscape.org/namespaces/inkscape"
   xmlns:sodipodi="http://sodipodi.sourceforge.net/DTD/sodipodi-0.dtd"
   xmlns="http://www.w3.org/2000/svg"
   xmlns:svg="http://www.w3.org/2000/svg">
  <defs
     id="defs17" />
  <sodipodi:namedview
     id="namedview17"
     pagecolor="#ffffff"
     bordercolor="#000000"
     borderopacity="0.25"
     inkscape:showpageshadow="2"
     inkscape:pageopacity="0.0"
     inkscape:pagecheckerboard="0"
     inkscape:deskcolor="#d1d1d1"
     inkscape:zoom="9.1124545"
     inkscape:cx="-19.478835"
     inkscape:cy="57.997546"
     inkscape:window-width="2560"
     inkscape:window-height="1417"
     inkscape:window-x="-8"
     inkscape:window-y="-8"
     inkscape:window-maximized="1"
     inkscape:current-layer="svg17"
     showgrid="false" />
  <path
     fill-rule="evenodd"
     clip-rule="evenodd"
     d="M37.434 56.755C49.337 53.142 58 42.082 58 29 58 12.984 45.016 0 29 0S0 12.984 0 29c0 13.083 8.663 24.142 20.566 27.755l6.834 9.112a2 2 0 0 0 3.2 0z"
     fill="#fff"
     id="path1" />
  <path
     fill-rule="evenodd"
     clip-rule="evenodd"
     d="M29 55c14.36 0 26-11.64 26-26S43.36 3 29 3 3 14.64 3 29s11.64 26 26 26z"
     fill="#ffc400"
     id="path2" />
  <mask
     id="a"
     maskUnits="userSpaceOnUse"
     x="19.317"
     y="22.84"
     width="27"
     height="27"
     fill="#000">
    <path
       fill="#fff"
       d="M19.317 22.84h27v27h-27z"
       id="path3" />
    <path
       fill-rule="evenodd"
       clip-rule="evenodd"
       d="M33 47.243c5.596 0 10.683-4.016 10.683-13.226S38.76 25.878 33 25.878c-5.102 0-10.683-1.07-10.683 8.14S27.404 47.242 33 47.242z"
       id="path4" />
  </mask>
  <mask
     id="b"
     maskUnits="userSpaceOnUse"
     x="17.754"
     y="28.142"
     width="31"
     height="11"
     fill="#000">
    <path
       fill="#fff"
       d="M17.754 28.142h31v11h-31z"
       id="path13" />
    <path
       fill-rule="evenodd"
       clip-rule="evenodd"
       d="M20.17 31.304a.387.387 0 0 1 .456-.256c1.362.318 6.593 1.443 12.374 1.443 5.78 0 11.012-1.125 12.374-1.443a.387.387 0 0 1 .456.256l.177.53a.782.782 0 0 1-.407.951c-.547.263-1.411.69-2.426 1.232C40.64 35.305 42.928 37.07 33 37.07c-9.929 0-7.503-1.602-10.174-3.053a61.285 61.285 0 0 0-2.427-1.232.782.782 0 0 1-.407-.95z"
       id="path14" />
  </mask>
  <g
     id="g4"
     transform="matrix(-0.09226639,0,0,0.08652549,50.405367,8.3681163)"
     style="fill:#999999">
    <path
       d="M 332.026,155.641 286.64,65.715 V 45 h 2.5 c 4.142,0 7.5,-3.357 7.5,-7.5 v -30 c 0,-4.143 -3.358,-7.5 -7.5,-7.5 H 180.86 c -4.142,0 -7.5,3.357 -7.5,7.5 v 30 c 0,4.143 3.358,7.5 7.5,7.5 h 2.5 v 20.715 l -45.386,89.926 c -5.504,10.905 -9.816,29.017 -9.816,41.233 V 442.5 c 0,15.163 12.336,27.5 27.5,27.5 h 158.683 c 15.164,0 27.5,-12.337 27.5,-27.5 V 196.874 c 0,-12.217 -4.311,-30.328 -9.815,-41.233 z M 188.36,15 h 93.279 V 30 H 188.36 Z m 9.196,55.879 c 0.529,-1.048 0.804,-2.205 0.804,-3.379 V 45 h 73.279 v 22.5 c 0,1.174 0.275,2.331 0.804,3.379 l 28.543,56.553 c -5.411,1.754 -9.204,4.583 -12.487,7.037 -4.452,3.329 -7.669,5.733 -14.841,5.733 -7.172,0 -10.389,-2.404 -14.841,-5.733 -5.196,-3.884 -11.663,-8.719 -23.823,-8.719 -12.159,0 -18.625,4.835 -23.821,8.72 -4.451,3.328 -7.667,5.732 -14.838,5.732 -7.171,0 -10.387,-2.404 -14.838,-5.732 -3.282,-2.454 -7.075,-5.283 -12.485,-7.037 z M 326.841,442.5 c 0,6.893 -5.607,12.5 -12.5,12.5 H 155.659 c -6.893,0 -12.5,-5.607 -12.5,-12.5 V 196.874 c 0,-9.874 3.758,-25.661 8.207,-34.476 l 10.736,-21.271 c 4.305,0.797 6.999,2.802 10.415,5.355 5.195,3.885 11.662,8.72 23.82,8.72 12.158,0 18.625,-4.835 23.82,-8.72 4.451,-3.328 7.667,-5.732 14.838,-5.732 7.172,0 10.389,2.404 14.841,5.733 5.196,3.885 11.663,8.719 23.822,8.719 12.16,0 18.626,-4.835 23.823,-8.719 3.416,-2.554 6.111,-4.559 10.417,-5.356 l 10.736,21.272 c 4.448,8.813 8.207,24.601 8.207,34.475 z"
       id="path1-0"
       style="fill:#999999" />
    <path
       d="m 165.659,395 c -4.142,0 -7.5,3.357 -7.5,7.5 v 30 c 0,4.143 3.358,7.5 7.5,7.5 4.142,0 7.5,-3.357 7.5,-7.5 v -30 c 0,-4.143 -3.358,-7.5 -7.5,-7.5 z"
       id="path2-9"
       style="fill:#999999" />
    <path
       d="m 174.832,165.842 c -3.698,-1.866 -8.208,-0.382 -10.075,3.315 -3.33,6.598 -6.598,20.326 -6.598,27.717 V 372.5 c 0,4.143 3.358,7.5 7.5,7.5 4.142,0 7.5,-3.357 7.5,-7.5 V 196.874 c 0,-5.071 2.704,-16.431 4.989,-20.957 1.866,-3.698 0.381,-8.209 -3.316,-10.075 z"
       id="path3-4"
       style="fill:#999999" />
    <path
       d="m 220.86,75 h 28.279 c 4.142,0 7.5,-3.357 7.5,-7.5 0,-4.143 -3.358,-7.5 -7.5,-7.5 H 220.86 c -4.142,0 -7.5,3.357 -7.5,7.5 0,4.143 3.358,7.5 7.5,7.5 z"
       id="path4-8"
       style="fill:#999999" />
  </g>
  <path
     style="fill:#ffffff;stroke:none;stroke-width:0.829524;stroke-linecap:round;stroke-linejoin:round;stroke-miterlimit:0;fill-opacity:1"
     d="m 20.960324,47.57825 c -0.120714,-0.04941 -0.318246,-0.19962 -0.43896,-0.333808 -0.21644,-0.240597 -0.219479,-0.398461 -0.219479,-11.398468 0,-10.229685 0.01575,-11.213633 0.189996,-11.867802 0.213813,-0.802726 1.371711,-3.178018 1.590051,-3.261802 0.07817,-0.03 0.475069,0.14572 0.882006,0.390479 1.029744,0.619358 1.283212,0.699132 2.221373,0.699132 0.946709,0 1.227341,-0.09007 2.152883,-0.691001 0.951246,-0.617617 1.539681,-0.672962 2.346454,-0.220696 1.469348,0.823697 1.738751,0.918006 2.62029,0.917277 0.932506,-7.71e-4 1.335501,-0.133338 2.223735,-0.73151 0.321844,-0.216742 0.663991,-0.394077 0.760327,-0.394077 0.261156,0 1.477163,2.507032 1.687193,3.478471 0.148102,0.685004 0.170769,2.240673 0.170769,11.720186 0,11.873803 0.02536,11.381095 -0.600504,11.666258 -0.336826,0.153469 -15.214213,0.179586 -15.586134,0.02736 z m 14.669073,-1.285014 c 0.176864,-0.160059 0.200686,-0.370714 0.200686,-1.774632 0,-1.775626 -0.07615,-1.994386 -0.694242,-1.994386 -0.663609,0 -0.732377,0.183688 -0.732377,1.956251 0,1.328316 0.03018,1.626361 0.181618,1.7937 0.226298,0.250057 0.777945,0.26013 1.044315,0.01907 z m -0.04321,-5.146989 0.243898,-0.170834 v -8.091475 c 0,-8.587967 -0.0076,-8.729493 -0.526234,-9.777709 -0.252721,-0.510793 -0.705925,-0.660475 -1.103802,-0.364557 -0.387598,0.288271 -0.409983,0.566705 -0.106066,1.319304 l 0.254613,0.630505 0.05487,8.157092 c 0.05324,7.914589 0.0612,8.161722 0.267889,8.312799 0.277714,0.202995 0.611297,0.197479 0.914832,-0.01512 z"
     id="path5" />
</svg>
