<?xml version="1.0" encoding="UTF-8" standalone="no"?>
<svg
   width="58"
   height="66.667"
   fill="none"
   version="1.1"
   id="svg17"
   sodipodi:docname="shop-vegetables.svg"
   inkscape:version="1.4 (86a8ad7, 2024-10-11)"
   xmlns:inkscape="http://www.inkscape.org/namespaces/inkscape"
   xmlns:sodipodi="http://sodipodi.sourceforge.net/DTD/sodipodi-0.dtd"
   xmlns="http://www.w3.org/2000/svg"
   xmlns:svg="http://www.w3.org/2000/svg">
  <defs
     id="defs17" />
  <sodipodi:namedview
     id="namedview17"
     pagecolor="#ffffff"
     bordercolor="#000000"
     borderopacity="0.25"
     inkscape:showpageshadow="2"
     inkscape:pageopacity="0.0"
     inkscape:pagecheckerboard="0"
     inkscape:deskcolor="#d1d1d1"
     inkscape:zoom="6.4434784"
     inkscape:cx="38.255735"
     inkscape:cy="98.937245"
     inkscape:window-width="2560"
     inkscape:window-height="1417"
     inkscape:window-x="-8"
     inkscape:window-y="-8"
     inkscape:window-maximized="1"
     inkscape:current-layer="svg17"
     showgrid="false" />
  <path
     fill-rule="evenodd"
     clip-rule="evenodd"
     d="M37.434 56.755C49.337 53.142 58 42.082 58 29 58 12.984 45.016 0 29 0S0 12.984 0 29c0 13.083 8.663 24.142 20.566 27.755l6.834 9.112a2 2 0 0 0 3.2 0z"
     fill="#fff"
     id="path1" />
  <path
     fill-rule="evenodd"
     clip-rule="evenodd"
     d="M29 55c14.36 0 26-11.64 26-26S43.36 3 29 3 3 14.64 3 29s11.64 26 26 26z"
     fill="#ffc400"
     id="path2" />
  <mask
     id="a"
     maskUnits="userSpaceOnUse"
     x="19.317"
     y="22.84"
     width="27"
     height="27"
     fill="#000">
    <path
       fill="#fff"
       d="M19.317 22.84h27v27h-27z"
       id="path3" />
    <path
       fill-rule="evenodd"
       clip-rule="evenodd"
       d="M33 47.243c5.596 0 10.683-4.016 10.683-13.226S38.76 25.878 33 25.878c-5.102 0-10.683-1.07-10.683 8.14S27.404 47.242 33 47.242z"
       id="path4" />
  </mask>
  <mask
     id="b"
     maskUnits="userSpaceOnUse"
     x="17.754"
     y="28.142"
     width="31"
     height="11"
     fill="#000">
    <path
       fill="#fff"
       d="M17.754 28.142h31v11h-31z"
       id="path13" />
    <path
       fill-rule="evenodd"
       clip-rule="evenodd"
       d="M20.17 31.304a.387.387 0 0 1 .456-.256c1.362.318 6.593 1.443 12.374 1.443 5.78 0 11.012-1.125 12.374-1.443a.387.387 0 0 1 .456.256l.177.53a.782.782 0 0 1-.407.951c-.547.263-1.411.69-2.426 1.232C40.64 35.305 42.928 37.07 33 37.07c-9.929 0-7.503-1.602-10.174-3.053a61.285 61.285 0 0 0-2.427-1.232.782.782 0 0 1-.407-.95z"
       id="path14" />
  </mask>
  <g
     id="g5"
     style="stroke:none;stroke-width:0.371885;stroke-dasharray:none;stroke-opacity:1"
     transform="matrix(0.14600275,0,0,0.14600275,5.0506126,9.654635)">
		<path
   style="fill:#682045;stroke:none;stroke-width:0.371885;stroke-dasharray:none;stroke-opacity:1"
   d="m 240.58,131.928 13.04,-10.18 c -30.19,94.65 -71.07,129.11 -100.41,141.27 -29.51,12.23 -54,5.29 -60.94,1.58 -8.87,-4.74 -17.6,-12.54 -17.09,-19.31 0.29,-3.79 4.82,-17.4 51.06,-33.73 48.99,-17.3 74.85,-47.39 87.9,-69.59 4,-6.79 7.08,-13.27 9.44,-19.11 l 1.48,4.41 c 1.03,3.06 3.47,5.42 6.56,6.35 0.93,0.28 1.9,0.42 2.85,0.42 2.19,0 4.35,-0.73 6.11,-2.11 z"
   id="path1-1" />

		<path
   style="fill:#c45a57;stroke:none;stroke-width:0.371885;stroke-dasharray:none;stroke-opacity:1"
   d="m 169.8,150.698 c 0,5.32 -1.02,10.79 -2.91,16.19 -13.31,10.83 -29.08,19.53 -47.26,25.95 -18.56,6.55 -33.02,13.49 -43.49,20.89 -32.67,-8.4 -56.03,-37.47 -56.03,-63.03 0,-14.9 8.06,-25.99 20.41,-33.6 l 8.64,4.32 v 29.73 c 0,3.44 1.78,6.64 4.71,8.45 2.93,1.81 6.58,1.97 9.66,0.43 l 31.43,-15.71 31.42,15.71 c 1.4,0.7 2.92,1.05 4.44,1.05 1.82,0 3.63,-0.5 5.22,-1.48 2.93,-1.81 4.71,-5.01 4.71,-8.45 v -29.73 l 8.64,-4.32 c 12.35,7.61 20.41,18.7 20.41,33.6 z"
   id="path2-7" />

		<path
   style="fill:#d5ba2f;stroke:none;stroke-width:0.371885;stroke-dasharray:none;stroke-opacity:1"
   d="m 138.23,100.478 -11.85,5.92 c -3.36,1.68 -5.49,5.12 -5.49,8.88 v 19.8 L 99.4,124.338 c -1.4,-0.7 -2.92,-1.05 -4.44,-1.05 -1.53,0 -3.05,0.35 -4.45,1.05 l -21.49,10.74 v -19.8 c 0,-3.76 -2.12,-7.2 -5.49,-8.88 l -11.85,-5.92 33.35,-8.34 v 5.21 c 0,5.49 4.44,9.93 9.93,9.93 5.48,0 9.93,-4.44 9.93,-9.93 v -5.21 z"
   id="path3-1" />

		<path
   style="fill:#d5ba2f;stroke:none;stroke-width:0.371885;stroke-dasharray:none;stroke-opacity:1"
   d="m 274.19,66.198 c 1.55,0.77 2.43,2.44 2.19,4.15 l -4.52,32.25 -5.04,-5.15 c -3.53,-3.62 -9.22,-4 -13.21,-0.89 l -14.2,11.09 -4.48,-13.33 c -0.84,-2.5 -2.64,-4.56 -5,-5.73 l -5.45,-2.71 27.5,-27.65 c 1.22,-1.22 3.08,-1.53 4.62,-0.76 z"
   id="path4-1" />

		<path
   d="m 291.74,8.798 c 4.91,2.44 6.92,8.4 4.48,13.31 l -13.1,26.36 c 9.15,4.6 14.35,14.48 12.93,24.64 l -7.33,52.26 c -0.52,3.75 -3.13,6.87 -6.73,8.05 -3.6,1.19 -7.55,0.22 -10.2,-2.49 l -0.2,-0.2 c -13.6,41.81 -30.48,75.97 -50.25,101.65 -17.93,23.29 -38.29,39.77 -60.52,48.99 -14.93,6.19 -29.11,8.38 -41.37,8.38 -16.74,0 -29.9,-4.08 -36.53,-7.63 -6.87,-3.66 -29.13,-17.26 -27.54,-38.33 0.38,-4.96 2.02,-9.74 4.93,-14.35 -11.67,-4.52 -22.56,-11.29 -32.06,-20.15 -17.79,-16.56 -28,-37.92 -28,-58.59 0,-17.42 7.32,-32.33 20.3,-43.58 l -1.76,-0.89 c -3.72,-1.85 -5.89,-5.83 -5.43,-9.96 0.45,-4.13 3.43,-7.54 7.46,-8.55 l 64.21,-16.05 v -28.12 c 0,-5.48 4.44,-9.93 9.93,-9.93 5.48,0 9.93,4.45 9.93,9.93 v 28.12 l 64.2,16.05 c 4.04,1.01 7.01,4.42 7.47,8.55 0.45,4.13 -1.72,8.11 -5.43,9.96 l -1.77,0.89 c 11.18,9.69 18.16,22.1 19.87,36.49 2.61,-3.5 5.06,-7.13 7.32,-10.91 7.82,-13.07 11.64,-24.85 13.41,-31.86 l -6.65,-3.3 c -2.86,-1.42 -4.86,-4.13 -5.38,-7.28 -0.52,-3.15 0.51,-6.35 2.76,-8.62 l 37.21,-37.41 c 7.23,-7.27 18.24,-9.11 27.44,-4.59 l 13.09,-26.36 c 2.44,-4.91 8.4,-6.92 13.31,-4.48 z m -15.36,61.55 c 0.24,-1.71 -0.64,-3.38 -2.19,-4.15 l -17.59,-8.73 c -1.54,-0.77 -3.4,-0.46 -4.62,0.76 l -27.5,27.65 5.45,2.71 c 2.36,1.17 4.16,3.23 5,5.73 l 4.48,13.33 14.2,-11.09 c 3.99,-3.11 9.68,-2.73 13.21,0.89 l 5.04,5.15 z m -22.76,51.4 -13.04,10.18 c -1.76,1.38 -3.92,2.11 -6.11,2.11 -0.95,0 -1.92,-0.14 -2.85,-0.42 -3.09,-0.93 -5.53,-3.29 -6.56,-6.35 l -1.48,-4.41 c -2.36,5.84 -5.44,12.32 -9.44,19.11 -13.05,22.2 -38.91,52.29 -87.9,69.59 -46.24,16.33 -50.77,29.94 -51.06,33.73 -0.51,6.77 8.22,14.57 17.09,19.31 6.94,3.71 31.43,10.65 60.94,-1.58 29.34,-12.16 70.22,-46.62 100.41,-141.27 z m -86.73,45.14 c 1.89,-5.4 2.91,-10.87 2.91,-16.19 0,-14.9 -8.06,-25.99 -20.41,-33.6 l -8.64,4.32 v 29.73 c 0,3.44 -1.78,6.64 -4.71,8.45 -1.59,0.98 -3.4,1.48 -5.22,1.48 -1.52,0 -3.04,-0.35 -4.44,-1.05 l -31.42,-15.71 -31.43,15.71 c -3.08,1.54 -6.73,1.38 -9.66,-0.43 -2.93,-1.81 -4.71,-5.01 -4.71,-8.45 v -29.73 l -8.64,-4.32 c -12.35,7.61 -20.41,18.7 -20.41,33.6 0,25.56 23.36,54.63 56.03,63.03 10.47,-7.4 24.93,-14.34 43.49,-20.89 18.18,-6.42 33.95,-15.12 47.26,-25.95 z m -40.51,-60.49 11.85,-5.92 -33.34,-8.34 v 5.21 c 0,5.49 -4.45,9.93 -9.93,9.93 -5.49,0 -9.93,-4.44 -9.93,-9.93 v -5.21 l -33.35,8.34 11.85,5.92 c 3.37,1.68 5.49,5.12 5.49,8.88 v 19.8 l 21.49,-10.74 c 1.4,-0.7 2.92,-1.05 4.45,-1.05 1.52,0 3.04,0.35 4.44,1.05 l 21.49,10.74 v -19.8 c 0,-3.76 2.13,-7.2 5.49,-8.88 z"
   id="path5"
   style="stroke:none;stroke-width:0.371885;stroke-dasharray:none;stroke-opacity:1" />

	</g>
  <path
     style="display:inline;fill:#666666;fill-opacity:1;stroke:none;stroke-width:0.008;stroke-linecap:round;stroke-linejoin:round;stroke-miterlimit:0;stroke-dasharray:none;stroke-opacity:1"
     d="m 20.785002,51.744505 c -3.092559,-0.36116 -6.012868,-2.137311 -7.081808,-4.307203 -0.457314,-0.928323 -0.500933,-2.770162 -0.08477,-3.579568 0.149376,-0.290526 0.271592,-0.58982 0.271592,-0.665097 0,-0.07528 -0.322868,-0.275263 -0.717484,-0.444416 C 11.956816,42.227105 9.9842399,40.840019 8.8806087,39.730206 4.6251903,35.45095 4.0049562,29.867874 7.369187,26.125046 l 0.7443809,-0.82815 -0.4495667,-0.38799 C 7.0154276,24.349169 6.9319275,23.689834 7.4340423,23.093104 7.8102308,22.646029 8.1268864,22.544629 12.724445,21.398997 l 4.890265,-1.218569 0.0049,-2.33043 c 0.0051,-2.4309 0.05774,-2.64965 0.722041,-3.003461 0.546541,-0.291089 0.973501,-0.211097 1.457701,0.273104 l 0.453649,0.453648 v 2.305567 2.305566 l 4.887886,1.226243 c 5.046321,1.265991 5.43659,1.420215 5.514216,2.179078 0.06729,0.657853 -0.01985,0.899054 -0.48018,1.329067 l -0.476188,0.444827 0.541296,0.541297 c 1.133631,1.133631 2.260015,3.315304 2.270156,4.397022 0.0049,0.52494 0.248507,0.423456 0.745007,-0.310391 1.048241,-1.549339 2.155265,-3.912798 2.431212,-5.190562 0.0998,-0.4621 0.06478,-0.517481 -0.513898,-0.812699 -0.751974,-0.383629 -1.107091,-0.855805 -1.107091,-1.472027 0,-0.392355 0.468011,-0.93126 3.134626,-3.609457 1.724044,-1.731532 3.382698,-3.266001 3.685898,-3.409931 0.640332,-0.303969 2.100508,-0.347078 2.60531,-0.07692 0.332226,0.177802 0.387446,0.101289 1.432568,-1.984975 0.597862,-1.193448 1.223151,-2.24276 1.389532,-2.331804 0.548148,-0.29336 1.171245,-0.187757 1.613043,0.273382 0.229364,0.239404 0.417025,0.578018 0.417025,0.752476 0,0.174458 -0.458476,1.27747 -1.018836,2.451137 l -1.018835,2.13394 0.617202,0.528303 c 0.73104,0.625743 1.265273,1.649 1.265273,2.423472 0,0.306039 -0.246752,2.326752 -0.548336,4.490474 -0.582098,4.176268 -0.703747,4.564282 -1.522393,4.855859 -0.300985,0.107201 -0.55042,0.07863 -0.941487,-0.107863 l -0.53202,-0.253701 -0.424817,1.19423 c -1.988558,5.590149 -4.215765,10.030052 -6.691523,13.339448 -1.268743,1.695953 -3.466165,3.934788 -5.014187,5.108683 -1.554994,1.179181 -4.260219,2.550658 -5.897436,2.989842 -1.137676,0.305181 -3.572608,0.646242 -4.345479,0.608671 -0.213394,-0.01037 -0.881904,-0.07654 -1.485578,-0.147042 z m 4.548607,-2.933704 c 6.017126,-1.442563 11.077352,-6.894026 14.911601,-16.064513 0.846867,-2.025479 1.890417,-4.945141 1.890417,-5.289045 0,-0.122102 -0.52016,0.186059 -1.202767,0.712561 -0.738295,0.569453 -1.354243,0.928029 -1.595022,0.928545 -0.564468,0.0012 -1.072065,-0.411142 -1.370179,-1.113079 l -0.259318,-0.610591 -0.88805,1.75463 c -1.123823,2.22048 -2.467566,4.008504 -4.414162,5.873613 -2.512721,2.407533 -5.208195,4.02874 -9.126777,5.489342 -2.975584,1.109113 -5.18872,2.281667 -6.281991,3.328296 -1.355413,1.297588 -1.415335,1.990759 -0.278694,3.223867 1.328567,1.441326 3.016315,2.051994 5.707109,2.064972 1.111556,0.0054 2.035889,-0.08956 2.907833,-0.298598 z m -7.60784,-8.759651 c 0.835172,-0.4636 2.705742,-1.307582 4.156822,-1.875513 3.044773,-1.191681 5.155765,-2.252369 6.611767,-3.322145 0.888219,-0.652606 1.04844,-0.847089 1.202767,-1.459977 0.281284,-1.117083 0.22196,-2.768542 -0.13359,-3.718833 -0.348774,-0.932183 -1.152158,-1.949211 -2.058209,-2.605553 l -0.603418,-0.437113 -0.68611,0.333339 -0.686109,0.333337 v 2.304718 c 0,2.570729 -0.150974,3.131878 -0.895198,3.327314 -0.655253,0.172072 -0.871528,0.09819 -3.357925,-1.147082 l -2.326044,-1.164964 -2.580809,1.271182 -2.580809,1.271181 -0.557736,-0.233036 C 12.924413,32.799834 12.597972,32.55397 12.505744,32.38164 12.406493,32.196188 12.338056,31.095026 12.338056,29.683503 V 27.298692 L 11.62917,26.954288 c -0.704837,-0.342436 -0.711264,-0.342685 -1.125169,-0.04354 -0.8517312,0.615576 -1.7323813,1.672991 -2.1457377,2.576433 -1.367634,2.989134 0.4720947,7.297352 4.2082057,9.854642 0.847081,0.579809 2.953063,1.547346 3.374549,1.550345 0.14644,0.001 0.949578,-0.377415 1.784751,-0.841016 z M 17.004008,28.557863 c 1.309804,-0.64283 1.8354,-0.827588 2.143039,-0.753323 0.224185,0.05412 1.087261,0.437391 1.917946,0.851718 0.830687,0.414328 1.540347,0.753323 1.577026,0.753323 0.03668,0 0.09032,-0.761089 0.119215,-1.691308 0.06172,-1.987073 0.127728,-2.100506 1.682085,-2.890526 0.648248,-0.329479 0.925575,-0.543374 0.775979,-0.598492 -0.366198,-0.134925 -4.621411,-1.182697 -4.803171,-1.182697 -0.0897,0 -0.163091,0.284725 -0.163091,0.632721 0,0.492396 -0.100611,0.733332 -0.453649,1.08637 -0.4842,0.4842 -0.91116,0.564192 -1.457701,0.273103 -0.533768,-0.284287 -0.716723,-0.621951 -0.722041,-1.332612 -0.0027,-0.36277 -0.07833,-0.659582 -0.168026,-0.659582 -0.181761,0 -4.436974,1.047772 -4.803171,1.182697 -0.149106,0.05494 0.139743,0.274932 0.80349,0.611955 1.445649,0.734042 1.524445,0.883719 1.524445,2.895751 0,0.942173 0.0638,1.67262 0.146097,1.67262 0.08035,0 0.927041,-0.383274 1.881528,-0.851718 z m 26.126533,-4.978651 c 0.260139,0.05203 0.733966,0.349441 1.052947,0.660919 0.417391,0.407571 0.59992,0.504549 0.651145,0.345956 0.177668,-0.550062 0.698302,-4.817545 0.614412,-5.036157 -0.116952,-0.304773 -2.713533,-1.624829 -3.196076,-1.624829 -0.249063,0 -0.976743,0.627033 -2.447433,2.108922 -1.899497,1.913959 -2.065956,2.125582 -1.800604,2.289136 0.859642,0.529851 1.175497,0.935841 1.501947,1.930539 0.188302,0.573759 0.371777,1.095123 0.407724,1.158588 0.03595,0.06346 0.667818,-0.344299 1.404158,-0.90614 1.162971,-0.88737 1.400917,-1.009107 1.81178,-0.926934 z"
     id="path6" />
</svg>
