<?xml version="1.0" encoding="UTF-8" standalone="no"?>
<svg
   width="58"
   height="66.667"
   fill="none"
   version="1.1"
   id="svg17"
   sodipodi:docname="shop-cheese.svg"
   inkscape:version="1.4 (86a8ad7, 2024-10-11)"
   xmlns:inkscape="http://www.inkscape.org/namespaces/inkscape"
   xmlns:sodipodi="http://sodipodi.sourceforge.net/DTD/sodipodi-0.dtd"
   xmlns="http://www.w3.org/2000/svg"
   xmlns:svg="http://www.w3.org/2000/svg">
  <defs
     id="defs17" />
  <sodipodi:namedview
     id="namedview17"
     pagecolor="#ffffff"
     bordercolor="#000000"
     borderopacity="0.25"
     inkscape:showpageshadow="2"
     inkscape:pageopacity="0.0"
     inkscape:pagecheckerboard="0"
     inkscape:deskcolor="#d1d1d1"
     inkscape:zoom="6.4434784"
     inkscape:cx="38.255735"
     inkscape:cy="98.937245"
     inkscape:window-width="2560"
     inkscape:window-height="1417"
     inkscape:window-x="-8"
     inkscape:window-y="-8"
     inkscape:window-maximized="1"
     inkscape:current-layer="svg17"
     showgrid="false" />
  <path
     fill-rule="evenodd"
     clip-rule="evenodd"
     d="M37.434 56.755C49.337 53.142 58 42.082 58 29 58 12.984 45.016 0 29 0S0 12.984 0 29c0 13.083 8.663 24.142 20.566 27.755l6.834 9.112a2 2 0 0 0 3.2 0z"
     fill="#fff"
     id="path1" />
  <path
     fill-rule="evenodd"
     clip-rule="evenodd"
     d="M29 55c14.36 0 26-11.64 26-26S43.36 3 29 3 3 14.64 3 29s11.64 26 26 26z"
     fill="#ffc400"
     id="path2" />
  <mask
     id="a"
     maskUnits="userSpaceOnUse"
     x="19.317"
     y="22.84"
     width="27"
     height="27"
     fill="#000">
    <path
       fill="#fff"
       d="M19.317 22.84h27v27h-27z"
       id="path3" />
    <path
       fill-rule="evenodd"
       clip-rule="evenodd"
       d="M33 47.243c5.596 0 10.683-4.016 10.683-13.226S38.76 25.878 33 25.878c-5.102 0-10.683-1.07-10.683 8.14S27.404 47.242 33 47.242z"
       id="path4" />
  </mask>
  <mask
     id="b"
     maskUnits="userSpaceOnUse"
     x="17.754"
     y="28.142"
     width="31"
     height="11"
     fill="#000">
    <path
       fill="#fff"
       d="M17.754 28.142h31v11h-31z"
       id="path13" />
    <path
       fill-rule="evenodd"
       clip-rule="evenodd"
       d="M20.17 31.304a.387.387 0 0 1 .456-.256c1.362.318 6.593 1.443 12.374 1.443 5.78 0 11.012-1.125 12.374-1.443a.387.387 0 0 1 .456.256l.177.53a.782.782 0 0 1-.407.951c-.547.263-1.411.69-2.426 1.232C40.64 35.305 42.928 37.07 33 37.07c-9.929 0-7.503-1.602-10.174-3.053a61.285 61.285 0 0 0-2.427-1.232.782.782 0 0 1-.407-.95z"
       id="path14" />
  </mask>
  <g
     id="g5"
     transform="matrix(0.07236243,0,0,0.07236243,8.737796,8.1827796)">
	<path
   class="st0"
   d="m 362.662,420.313 c 7.068,6.361 16.659,10.176 27.12,10.176 10.458,0 20.046,-3.815 27.114,-10.176 7.064,-6.325 11.658,-15.419 11.651,-25.502 0.007,-10.089 -4.587,-19.176 -11.651,-25.508 -7.068,-6.353 -16.659,-10.161 -27.114,-10.161 -10.461,0 -20.049,3.808 -27.12,10.161 -7.064,6.333 -11.654,15.419 -11.648,25.508 -0.006,10.083 4.584,19.177 11.648,25.502 z m 10.375,-39.485 c 4.158,-3.75 10.075,-6.188 16.746,-6.188 6.672,0 12.585,2.438 16.739,6.188 4.165,3.771 6.517,8.64 6.52,13.983 -0.004,5.345 -2.355,10.206 -6.52,13.984 -4.154,3.75 -10.071,6.195 -16.739,6.195 -6.671,0 -12.588,-2.445 -16.746,-6.195 -4.165,-3.779 -6.513,-8.64 -6.519,-13.984 0.006,-5.343 2.354,-10.212 6.519,-13.983 z"
   id="path1-9"
   style="fill:#000000" />

	<path
   class="st0"
   d="m 255.638,402.795 c 9.39,0 18.012,-3.418 24.376,-9.145 6.36,-5.698 10.518,-13.918 10.511,-23.034 0.008,-9.124 -4.15,-17.352 -10.515,-23.05 -6.364,-5.726 -14.986,-9.138 -24.372,-9.138 -9.39,0 -18.012,3.411 -24.377,9.138 -6.36,5.698 -10.518,13.926 -10.511,23.05 -0.008,9.116 4.15,17.337 10.511,23.034 6.364,5.727 14.986,9.145 24.377,9.145 z m -14.006,-43.704 c 3.458,-3.115 8.402,-5.164 14.006,-5.164 5.604,0 10.547,2.048 14.006,5.164 3.454,3.144 5.372,7.14 5.38,11.525 -0.008,4.37 -1.926,8.373 -5.384,11.517 -3.454,3.116 -8.402,5.164 -14.002,5.164 -5.6,0 -10.548,-2.049 -14.002,-5.164 -3.462,-3.144 -5.376,-7.146 -5.384,-11.517 0.007,-4.385 1.921,-8.381 5.38,-11.525 z"
   id="path2-4"
   style="fill:#000000" />

	<path
   class="st0"
   d="m 345.844,120.773 c -7.8,-3.159 -16.89,-4.904 -26.62,-4.904 -12.97,0.014 -24.804,3.08 -33.972,8.553 -4.576,2.747 -8.514,6.13 -11.434,10.262 -2.913,4.112 -4.76,9.088 -4.749,14.374 -0.01,5.286 1.836,10.262 4.746,14.374 4.399,6.188 11.002,10.746 18.784,13.926 7.806,3.159 16.898,4.912 26.626,4.912 12.971,-0.022 24.81,-3.087 33.976,-8.561 4.573,-2.755 8.514,-6.144 11.435,-10.277 2.91,-4.111 4.756,-9.087 4.745,-14.374 0.011,-5.286 -1.835,-10.262 -4.749,-14.374 -4.4,-6.18 -11.003,-10.73 -18.788,-13.911 z m 6.116,33.73 c -2.041,2.949 -6.188,6.173 -11.939,8.488 -5.73,2.329 -12.956,3.786 -20.796,3.786 -10.45,0.015 -19.811,-2.618 -25.995,-6.361 -3.097,-1.854 -5.365,-3.952 -6.74,-5.914 -1.377,-1.99 -1.907,-3.7 -1.918,-5.445 0.01,-1.745 0.537,-3.455 1.918,-5.438 2.038,-2.95 6.184,-6.166 11.94,-8.474 5.73,-2.336 12.956,-3.779 20.795,-3.779 10.451,-0.021 19.819,2.611 26,6.339 3.094,1.86 5.365,3.952 6.736,5.914 1.381,1.983 1.908,3.692 1.914,5.438 -0.007,1.746 -0.537,3.456 -1.915,5.446 z"
   id="path3-8"
   style="fill:#000000" />

	<path
   class="st0"
   d="m 255.782,209.963 c -5.903,-2.769 -12.754,-4.291 -20.056,-4.299 -9.736,0.022 -18.679,2.683 -25.631,7.486 -3.469,2.402 -6.451,5.38 -8.626,8.95 -2.174,3.541 -3.501,7.731 -3.494,12.13 -0.007,4.392 1.316,8.59 3.49,12.138 3.282,5.344 8.308,9.36 14.197,12.137 5.906,2.762 12.758,4.292 20.064,4.292 9.736,-0.015 18.675,-2.683 25.628,-7.479 3.469,-2.416 6.452,-5.387 8.629,-8.95 2.174,-3.548 3.494,-7.746 3.49,-12.138 0.004,-4.399 -1.32,-8.59 -3.494,-12.13 -3.279,-5.351 -8.305,-9.375 -14.197,-12.137 z m 0.962,28.335 c -1.273,2.128 -3.851,4.457 -7.54,6.181 -3.668,1.716 -8.355,2.82 -13.479,2.82 -6.833,0.007 -12.888,-1.983 -16.793,-4.724 -1.962,-1.356 -3.372,-2.863 -4.23,-4.277 -0.862,-1.436 -1.219,-2.712 -1.226,-4.068 0.007,-1.356 0.364,-2.632 1.226,-4.068 1.273,-2.12 3.851,-4.45 7.54,-6.173 3.671,-1.724 8.359,-2.827 13.483,-2.82 6.83,-0.014 12.888,1.984 16.789,4.717 1.962,1.356 3.372,2.856 4.23,4.277 0.862,1.436 1.215,2.712 1.222,4.068 -0.007,1.356 -0.36,2.632 -1.222,4.067 z"
   id="path4-8"
   style="fill:#000000" />

	<path
   class="st0"
   d="m 511.949,291.14 c -2.517,-29.461 -8.546,-55.676 -17.085,-79.007 l -4.035,-11.027 -11.565,1.976 c -2.906,0.498 -5.848,0.772 -8.845,0.772 -10.447,0.029 -19.671,-3.086 -25.505,-7.248 -2.935,-2.055 -4.998,-4.313 -6.228,-6.376 -1.237,-2.084 -1.716,-3.887 -1.727,-5.784 0.022,-2.597 0.916,-5.192 3.527,-8.243 2.578,-2.993 6.924,-6.058 12.57,-8.164 l 17.583,-6.606 -11.255,-15.03 C 434.164,112.701 403.052,90.013 373.776,74.089 344.516,58.165 316.841,48.833 298.555,42.068 290.972,39.262 283.716,38 277.064,38.008 c -13.072,-0.021 -23.32,4.825 -29.872,9.578 -4.936,3.57 -8.03,7.053 -9.548,8.964 l -117.717,113.834 4.991,9.376 c 1.741,3.282 2.643,6.664 2.65,10.27 -0.018,6.484 -2.831,12.412 -8.056,17.164 -5.211,4.702 -12.722,7.839 -21.272,7.832 -3.974,0 -7.717,-0.692 -11.193,-1.933 L 78.807,210.151 0,286.366 v 137.582 c 0.007,27.65 22.4,50.036 50.047,50.043 h 45.407 l -1.598,-15.534 c -0.091,-0.88 -0.134,-1.601 -0.134,-2.206 0.018,-7.003 3.065,-13.4 8.661,-18.492 5.586,-5.034 13.616,-8.38 22.739,-8.373 9.116,-0.007 17.146,3.339 22.732,8.373 5.596,5.091 8.644,11.488 8.661,18.492 0,0.548 -0.043,1.312 -0.14,2.329 l -1.453,15.412 h 307.03 c 27.647,-0.007 50.04,-22.393 50.048,-50.043 V 291.746 Z M 86.399,242.02 c 3.826,0.75 7.778,1.19 11.842,1.19 15.43,-0.008 29.63,-5.625 40.131,-15.073 10.493,-9.39 17.398,-23.006 17.38,-38.108 0.004,-4.602 -0.696,-9.037 -1.882,-13.262 l 105.096,-101.638 0.688,-0.988 c 0.329,-0.419 2.2,-2.604 5.15,-4.45 3.007,-1.868 6.844,-3.476 12.261,-3.497 3.17,0.007 6.991,0.569 11.723,2.315 18.841,6.937 44.688,15.736 71.516,30.333 22.862,12.447 46.222,29.057 66.361,52.019 -2.676,2.077 -5.221,4.299 -7.439,6.837 -6.26,7.118 -10.476,16.509 -10.454,26.75 -0.01,7.349 2.171,14.366 5.752,20.294 5.398,8.936 13.649,15.614 23.255,20.208 9.635,4.579 20.781,7.082 32.641,7.096 0.443,0 0.865,-0.05 1.308,-0.065 4.832,15.152 8.507,31.696 10.757,49.798 H 45.287 Z m 397.417,181.928 c -0.008,6.08 -2.428,11.46 -6.404,15.455 -3.995,3.981 -9.376,6.397 -15.459,6.404 H 183.586 c -2.372,-11.388 -8.495,-21.491 -16.872,-28.992 -10.876,-9.787 -25.592,-15.606 -41.592,-15.614 -16.006,0.007 -30.722,5.827 -41.602,15.614 -8.376,7.501 -14.492,17.604 -16.868,28.992 H 50.047 c -6.083,-0.008 -11.463,-2.423 -15.458,-6.404 -3.978,-3.995 -6.397,-9.375 -6.404,-15.455 v -121.03 h 455.632 v 121.03 z"
   id="path5"
   style="fill:#000000" />

</g>
  <path
     style="fill:#ffeeaa;stroke-width:0.00124157;stroke-linecap:round;stroke-linejoin:round;stroke-miterlimit:0"
     d="m 13.579622,27.159244 1.31231,-1.319164 h 0.868155 c 2.411235,0 4.206783,-1.618435 4.268219,-3.847201 0.03205,-1.162873 -0.396384,-0.648994 4.441162,-5.326851 4.327469,-4.184618 3.852173,-3.985597 6.769004,-2.834385 3.346862,1.320935 5.369206,2.512315 7.248071,4.269903 l 1.011255,0.945979 -0.449408,0.511846 c -1.256706,1.43131 -0.955806,3.446921 0.682883,4.574369 0.644689,0.443557 2.109181,0.930362 2.798881,0.930362 0.288594,0 0.370919,0.181116 0.665774,1.464728 0.185052,0.805601 0.33646,1.573819 0.33646,1.707153 0,0.218164 -1.564399,0.242424 -15.632538,0.242424 H 12.267311 Z m 13.545807,-0.133469 c 2.525843,-1.067518 1.55623,-3.979217 -1.325103,-3.979217 -1.640291,0 -2.753768,0.843516 -2.753768,2.08612 0,0.820463 0.425319,1.409438 1.306965,1.809861 0.750471,0.340847 2.068716,0.380432 2.771906,0.08324 z m 6.876473,-6.063935 c 1.009666,-0.458268 1.46031,-1.075835 1.46031,-2.001219 0,-0.836716 -0.470424,-1.486646 -1.455082,-2.010316 -0.528413,-0.281025 -0.897234,-0.340748 -2.114418,-0.342385 -1.264732,-0.0017 -1.584657,0.05318 -2.250112,0.386007 -2.382215,1.191451 -1.757331,3.755624 1.059202,4.346373 0.94569,0.198352 2.395604,0.03207 3.3001,-0.37846 z"
     id="path6" />
  <path
     style="fill:#ffeeaa;stroke-width:0.00124157;stroke-linecap:round;stroke-linejoin:round;stroke-miterlimit:0"
     d="M 11.717274,40.156641 C 10.866042,39.731403 10.80475,39.355017 10.794859,34.492239 l -0.0088,-4.30668 h 16.450742 16.450741 l -0.0023,4.461876 c -0.0025,4.918048 -0.02569,5.055124 -0.931045,5.509206 -0.498368,0.249955 -1.332414,0.27137 -10.577911,0.271592 l -10.036884,2.41e-4 -0.190182,-0.576257 c -0.28764,-0.871555 -1.615808,-2.114058 -2.614341,-2.445717 -2.227764,-0.739945 -4.738375,0.277223 -5.594114,2.266441 -0.305639,0.710477 -0.359471,0.755519 -0.902691,0.755292 -0.317718,-1.33e-4 -0.822103,-0.122349 -1.120854,-0.271592 z m 26.768091,-1.169443 c 1.551133,-0.878513 1.760947,-3.046945 0.405199,-4.187732 -1.285596,-1.081758 -3.293054,-0.880324 -4.29308,0.43078 -0.902238,1.182895 -0.542614,2.939759 0.761809,3.721641 0.872553,0.523016 2.237735,0.538437 3.126072,0.03531 z M 28.635181,36.97537 c 0.832257,-0.566429 1.162389,-1.128416 1.162389,-1.978745 0,-1.356231 -1.068874,-2.327935 -2.560728,-2.327935 -1.491855,0 -2.560729,0.971704 -2.560729,2.327935 0,1.356232 1.068874,2.327936 2.560729,2.327936 0.662576,0 1.014337,-0.08784 1.398339,-0.349191 z"
     id="path7" />
</svg>
