<?xml version="1.0" encoding="UTF-8" standalone="no"?>
<svg
   width="58"
   height="66.667"
   fill="none"
   version="1.1"
   id="svg16"
   sodipodi:docname="smoke.svg"
   inkscape:version="1.4 (86a8ad7, 2024-10-11)"
   xmlns:inkscape="http://www.inkscape.org/namespaces/inkscape"
   xmlns:sodipodi="http://sodipodi.sourceforge.net/DTD/sodipodi-0.dtd"
   xmlns="http://www.w3.org/2000/svg"
   xmlns:svg="http://www.w3.org/2000/svg">
  <sodipodi:namedview
     id="namedview16"
     pagecolor="#ffffff"
     bordercolor="#000000"
     borderopacity="0.25"
     inkscape:showpageshadow="2"
     inkscape:pageopacity="0.0"
     inkscape:pagecheckerboard="0"
     inkscape:deskcolor="#d1d1d1"
     inkscape:zoom="12.886957"
     inkscape:cx="-24.326923"
     inkscape:cy="44.89035"
     inkscape:window-width="2560"
     inkscape:window-height="1417"
     inkscape:window-x="-8"
     inkscape:window-y="-8"
     inkscape:window-maximized="1"
     inkscape:current-layer="svg16"
     showgrid="false" />
  <defs
     id="defs16">
    <inkscape:path-effect
       effect="spiro"
       id="path-effect3201" />
    <inkscape:path-effect
       effect="spiro"
       id="path-effect3197" />
    <inkscape:path-effect
       effect="spiro"
       id="path-effect3193" />
    <inkscape:path-effect
       effect="spiro"
       id="path-effect3189" />
    <inkscape:path-effect
       effect="spiro"
       id="path-effect3185" />
    <inkscape:path-effect
       effect="spiro"
       id="path-effect3181" />
    <inkscape:path-effect
       effect="spiro"
       id="path-effect3177" />
    <inkscape:path-effect
       effect="spiro"
       id="path-effect3173" />
    <inkscape:path-effect
       effect="spiro"
       id="path-effect3169" />
    <inkscape:path-effect
       effect="spiro"
       id="path-effect3165" />
    <inkscape:path-effect
       effect="spiro"
       id="path-effect3161" />
    <inkscape:path-effect
       effect="spiro"
       id="path-effect3157" />
    <inkscape:path-effect
       effect="spiro"
       id="path-effect3153" />
    <inkscape:path-effect
       effect="spiro"
       id="path-effect3149" />
    <inkscape:path-effect
       effect="spiro"
       id="path-effect3149-6" />
    <inkscape:path-effect
       effect="spiro"
       id="path-effect3153-1" />
    <inkscape:path-effect
       effect="spiro"
       id="path-effect3157-8" />
    <inkscape:path-effect
       effect="spiro"
       id="path-effect3161-4" />
    <inkscape:path-effect
       effect="spiro"
       id="path-effect3165-8" />
    <inkscape:path-effect
       effect="spiro"
       id="path-effect3169-4" />
    <inkscape:path-effect
       effect="spiro"
       id="path-effect3173-0" />
    <inkscape:path-effect
       effect="spiro"
       id="path-effect3177-7" />
    <inkscape:path-effect
       effect="spiro"
       id="path-effect3181-6" />
    <inkscape:path-effect
       effect="spiro"
       id="path-effect3185-8" />
    <inkscape:path-effect
       effect="spiro"
       id="path-effect3189-9" />
    <inkscape:path-effect
       effect="spiro"
       id="path-effect3193-7" />
    <inkscape:path-effect
       effect="spiro"
       id="path-effect3197-3" />
    <inkscape:path-effect
       effect="spiro"
       id="path-effect3201-3" />
  </defs>
  <path
     fill-rule="evenodd"
     clip-rule="evenodd"
     d="M37.434 56.755C49.337 53.142 58 42.082 58 29 58 12.984 45.016 0 29 0S0 12.984 0 29c0 13.083 8.663 24.142 20.566 27.755l6.834 9.112a2 2 0 0 0 3.2 0z"
     fill="#fff"
     id="path1" />
  <path
     fill-rule="evenodd"
     clip-rule="evenodd"
     d="M29 55c14.36 0 26-11.64 26-26S43.36 3 29 3 3 14.64 3 29s11.64 26 26 26z"
     fill="#1ab3ff"
     id="path2" />
  <path
     fill="#000000"
     fill-rule="nonzero"
     d="m 24.421111,31.447956 c -2.38238,0.797581 -7.373305,2.721328 -8.96368,1.674358 -1.008725,-0.663718 -1.816662,-1.581612 -2.383168,-2.607066 -0.564125,-1.025453 -0.897979,-2.162465 -0.961717,-3.2668 -0.08127,-1.415884 0.274092,-2.790328 1.139394,-3.846061 -0.733836,-1.159317 -0.893988,-2.491532 -0.629455,-3.78312 0.207957,-1.015894 0.684438,-2.005492 1.348952,-2.857251 0.661328,-0.848573 1.516274,-1.56807 2.485159,-2.046136 1.254131,-0.619896 2.693117,-0.84459 4.157602,-0.44938 0.352177,-1.317876 1.206326,-2.358473 2.334567,-3.113029 1.019878,-0.682837 2.264449,-1.123462 3.548062,-1.3138933 1.271664,-0.18883 2.598303,-0.135449 3.796663,0.1681263 1.449341,0.366516 2.723396,1.098758 3.536909,2.211864 1.19358,-0.843793 2.693921,-1.146571 4.211788,-1.028648 1.202343,0.09403 2.427787,0.456557 3.5138,1.023868 1.102749,0.574473 2.070838,1.363291 2.741726,2.300305 0.70037,0.976852 1.088402,2.106686 1.002351,3.323376 1.99673,0.19361 3.465198,1.410299 4.294644,3.017403 0.398397,0.772082 0.644599,1.64057 0.724277,2.528185 0.07887,0.886818 -0.008,1.791959 -0.274889,2.636549 -0.59121,1.87084 -2.027009,3.466002 -4.435677,4.000636 0.05736,0.615116 -0.04461,1.227046 -0.266923,1.801526 -0.23266,0.602362 -0.600777,1.161707 -1.056537,1.63579 -0.45177,0.469303 -0.995175,0.862115 -1.583198,1.135411 -1.011114,0.4701 -4.161585,0.79359 -5.241224,0.376083 l 0.112765,-2.52449 c 0.548184,0.211151 3.750821,0.650464 4.316539,0.387524 0.368905,-0.170516 0.712319,-0.419108 0.999165,-0.717903 0.282855,-0.294008 0.509142,-0.634235 0.646184,-0.990395 0.188042,-0.485244 0.211152,-1.011911 -0.01514,-1.498748 l -0.58882,-1.268478 1.396757,-0.105169 c 2.168034,-0.164135 3.407826,-1.368876 3.865179,-2.815827 0.191228,-0.606346 0.254177,-1.254131 0.198398,-1.88518 -0.05656,-0.632649 -0.233457,-1.254138 -0.519498,-1.808695 -0.652565,-1.264495 -1.912272,-2.15928 -3.649256,-1.963272 l -1.517867,0.172109 0.494006,-1.446952 c 0.355363,-1.042987 0.113136,-2.031796 -0.479667,-2.858852 -0.494803,-0.690811 -1.222258,-1.280427 -2.058085,-1.716265 -0.852556,-0.444608 -1.815865,-0.729853 -2.763235,-0.803157 -1.403926,-0.109161 -2.753675,0.252583 -3.584714,1.265291 l -1.09558,1.334605 -0.566507,-1.634197 C 32.258349,12.958184 31.15799,12.227534 29.822588,11.8889 c -0.952953,-0.241423 -2.017449,-0.282058 -3.045293,-0.129872 -1.015105,0.150592 -1.981593,0.487625 -2.752082,1.003148 -0.97925,0.654955 -1.644561,1.613477 -1.65412,2.852472 l -0.01195,1.584002 -1.399147,-0.72587 c -1.266088,-0.657345 -2.558464,-0.556947 -3.64607,-0.01912 -0.70515,0.347397 -1.329825,0.875658 -1.817459,1.499537 -0.484439,0.620692 -0.829446,1.332223 -0.976852,2.053305 -0.20477,0.999165 -0.01912,2.022229 0.722676,2.823793 l 0.701971,0.756946 -0.799971,0.650964 c -0.824667,0.670895 -1.162504,1.753721 -1.096369,2.903471 0.047,0.823073 0.297991,1.674036 0.721879,2.440541 0.427074,0.764912 1.019089,1.442969 1.74973,1.924229 1.126648,0.740209 5.372042,-1.081805 7.119382,-1.665845 z M 20.57197,26.835712 c 0.362532,0.391219 0.338626,1.003149 -0.05258,1.365681 -0.391219,0.362541 -1.003141,0.338634 -1.365681,-0.05258 -1.180826,-1.274851 -1.482808,-2.865226 -1.168877,-4.399822 0.202381,-0.985622 0.663718,-1.946534 1.309113,-2.772802 0.641405,-0.823073 1.471655,-1.521053 2.411855,-1.985576 1.559299,-0.771285 3.414207,-0.913107 5.237242,0.03266 0.475676,0.245406 0.662124,0.829446 0.417515,1.30513 -0.245414,0.475676 -0.829454,0.662921 -1.30513,0.418304 -1.212699,-0.630252 -2.450897,-0.533837 -3.493088,-0.01832 -0.675667,0.333854 -1.276444,0.839809 -1.743357,1.438985 -0.464524,0.595193 -0.795184,1.278037 -0.937014,1.968848 -0.195211,0.955335 -0.01912,1.933789 0.690015,2.699489 z m 11.080828,-6.453923 c -0.339431,0.412736 -0.949759,0.47249 -1.361698,0.133059 -0.412736,-0.339422 -0.47249,-0.948962 -0.133059,-1.361698 1.243775,-1.515477 3.143301,-2.066847 5.073895,-1.916255 1.16569,0.09003 2.3521,0.44221 3.40624,0.991996 1.07008,0.557744 2.009484,1.323452 2.659659,2.230983 0.916293,1.278833 1.282817,2.826183 0.717099,4.485083 -0.172101,0.506752 -0.722684,0.778454 -1.229436,0.607142 -0.506752,-0.171305 -0.778454,-0.722675 -0.607142,-1.229428 0.339423,-0.995978 0.108364,-1.940161 -0.458947,-2.73137 C 39.24453,20.92838 38.545753,20.36267 37.743392,19.943562 36.923505,19.516488 35.998441,19.242395 35.087724,19.171481 33.741959,19.0671 32.447989,19.4137 31.652798,20.381789 Z m -8.013885,9.458812 c -0.26055,-0.466913 -0.324434,-1.910113 0.142485,-2.169858 0.466913,-0.259753 1.057334,-0.09164 1.317079,0.375278 1.552926,2.800692 1.842958,5.031674 1.43102,6.924031 -0.411135,1.886772 -1.504325,3.36719 -2.734549,4.728896 -0.331464,0.366516 -0.70515,0.757735 -1.075656,1.14497 -1.340986,1.403927 -2.566917,4.472777 -2.903161,6.055186 -0.110754,0.524285 -0.703071,-0.84902 -1.227348,-0.959774 -0.523489,-0.110754 -0.858133,-0.625472 -0.747387,-1.14975 0.450185,-2.11944 1.944145,-3.680332 3.481139,-5.285046 0.33943,-0.350584 0.680454,-0.705955 1.038207,-1.10275 1.03581,-1.146563 1.951314,-2.371219 2.271618,-3.841281 0.319515,-1.465282 0.295724,-2.394894 -0.993447,-4.719902 z m 10.697442,-0.853576 c -0.259745,-0.466913 -0.09163,-1.056537 0.376083,-1.316282 0.466913,-0.259753 1.05653,-0.09164 1.316283,0.375278 1.553722,2.800692 1.843747,5.031674 1.431816,6.924031 -0.411142,1.886772 -1.505121,3.36719 -2.734557,4.728896 -0.329863,0.365719 -0.705149,0.757735 -1.075648,1.144174 -1.340986,1.403926 -2.644523,2.765624 -2.981556,4.34883 -0.110754,0.524285 -0.625472,0.858132 -1.148961,0.747378 -0.524278,-0.110754 -0.858929,-0.625472 -0.747379,-1.14975 0.450185,-2.120237 1.944145,-3.681129 3.481935,-5.285843 0.338626,-0.350591 0.67965,-0.705954 1.037403,-1.101953 1.035021,-1.146563 1.951323,-2.371219 2.271626,-3.841281 0.319508,-1.465282 0.06214,-3.247673 -1.227045,-5.573478 z m -5.321699,0 c -0.259753,-0.466913 -0.09163,-1.056537 0.375286,-1.316282 0.466914,-0.259753 1.057327,-0.09164 1.31708,0.375278 1.552926,2.800692 1.843747,5.031674 1.431019,6.924031 -0.410345,1.886772 -1.504324,3.36719 -2.733759,4.728896 -0.33066,0.365719 -0.70515,0.756938 -1.075649,1.143377 -2.182389,2.283575 -4.261186,4.454804 -2.127407,8.243492 0.261339,0.466914 0.09481,1.058131 -0.3721,1.320266 -0.466913,0.261346 -1.058919,0.09482 -1.320265,-0.372092 -2.83654,-5.036454 -0.270906,-7.716824 2.423812,-10.531051 0.339422,-0.349794 0.678853,-0.705157 1.037402,-1.101156 1.035022,-1.146563 1.951323,-2.371219 2.271627,-3.841281 0.31871,-1.465282 0.06214,-3.247673 -1.227046,-5.573478 z"
     id="path1-8"
     style="stroke-width:0.0796785"
     sodipodi:nodetypes="ccccccccccccccccccccccccccccccccccccccccccccccccccccccccccccccscccccccccccccccccccsccccccccccccccccccccccccccccccccsccccccccccc" />
  <mask
     id="a"
     maskUnits="userSpaceOnUse"
     x="19.826"
     y="21.522"
     width="26"
     height="27"
     fill="#000">
    <path
       fill="#fff"
       d="M19.826 21.522h26v27h-26z"
       id="path3" />
    <path
       fill-rule="evenodd"
       clip-rule="evenodd"
       d="M33 46c5.596 0 10.174-4.242 10.174-12.435 0-8.192-5.276-9.043-10.513-9.043-4.638 0-9.835.85-9.835 9.043S27.404 46 33 46z"
       id="path4" />
  </mask>
  <mask
     id="b"
     maskUnits="userSpaceOnUse"
     x="16.435"
     y="16.435"
     width="32"
     height="19"
     fill="#000">
    <path
       fill="#fff"
       d="M16.435 16.435h32v19h-32z"
       id="path8" />
    <path
       fill-rule="evenodd"
       clip-rule="evenodd"
       d="M32.66 32.66c7.305 0 13.227-2.96 13.227-6.612s-5.922-6.613-13.226-6.613c-7.305 0-13.226 2.96-13.226 6.613 0 3.652 5.921 6.613 13.226 6.613z"
       id="path9" />
  </mask>
  <mask
     id="c"
     mask-type="alpha"
     maskUnits="userSpaceOnUse"
     x="20"
     y="29"
     width="26"
     height="9">
    <path
       fill-rule="evenodd"
       clip-rule="evenodd"
       d="M21.741 30.74c.521 3.168 5.391 5.651 11.797 5.651 5.388 0 10.202-2.483 10.72-5.652z"
       fill="#fff"
       id="path15" />
    <path
       d="M21.741 30.74v-1.131a1.13 1.13 0 0 0-1.115 1.314zm22.517 0 1.115.182a1.13 1.13 0 0 0-1.115-1.313zm-23.632.183c.346 2.108 2.08 3.758 4.31 4.847 2.27 1.107 5.265 1.752 8.602 1.752V35.26c-3.069 0-5.711-.597-7.61-1.523-1.936-.945-2.897-2.121-3.071-3.182zm12.912 6.599c2.855 0 5.59-.656 7.71-1.767 2.083-1.09 3.784-2.741 4.125-4.834l-2.23-.364c-.177 1.077-1.142 2.252-2.943 3.195-1.762.923-4.13 1.509-6.662 1.509zm10.72-7.913H21.74v2.26h22.517z"
       fill="#fff"
       id="path16" />
  </mask>
  <path
     style="fill:#ac9d93;fill-opacity:0.594972;stroke:#780101;stroke-width:0.102047;stroke-linecap:round;stroke-linejoin:round;stroke-miterlimit:0"
     d="m 18.588783,45.93933 5.920078,4.094661"
     id="path5" />
  <path
     style="fill:#ac9d93;fill-opacity:0.594972;stroke:#780101;stroke-width:0.102047;stroke-linecap:round;stroke-linejoin:round;stroke-miterlimit:0"
     d="M 25.829126,50.406083 29.519815,45.93933"
     id="path6" />
  <path
     style="fill:#ac9d93;fill-opacity:0.594972;stroke:#780101;stroke-width:0.00791865;stroke-linecap:round;stroke-linejoin:round;stroke-miterlimit:0"
     d="m 22.110101,48.257042 c -1.149422,-0.793103 -2.11879,-1.46925 -2.15415,-1.502548 -0.136429,-0.128471 0.523445,-1.987342 1.207248,-3.400832 0.566238,-1.17047 1.167387,-2.027236 2.188572,-3.119182 1.588222,-1.698276 2.439898,-2.940142 2.91296,-4.247511 0.456907,-1.262725 0.57704,-2.614772 0.350815,-3.948296 -0.267242,-1.575316 -1.274313,-3.988109 -1.817327,-4.354045 -0.429143,-0.2892 -1.067539,-0.18855 -1.244813,0.196259 -0.145699,0.316267 -0.187481,1.022805 -0.08794,1.486971 0.04878,0.227459 0.07216,0.430096 0.05195,0.450305 -0.02021,0.02021 -0.762963,0.297208 -1.650564,0.615554 -2.164113,0.776177 -3.379831,1.108021 -4.265308,1.164264 -0.674688,0.04285 -0.73015,0.03429 -1.070797,-0.165341 -1.342449,-0.786728 -2.440622,-2.817354 -2.445395,-4.52177 -0.0032,-1.148292 0.324046,-1.904721 1.155528,-2.670881 0.318651,-0.293617 0.607739,-0.533849 0.642419,-0.533849 0.149863,0 0.03451,-0.200958 -0.371591,-0.647377 -0.574721,-0.631775 -0.850483,-1.127723 -0.965252,-1.735978 -0.245805,-1.302718 0.365124,-2.817128 1.602707,-3.972894 0.709049,-0.662174 1.44775,-1.048805 2.339534,-1.224496 0.945127,-0.1862 1.59869,-0.04436 2.908904,0.631317 l 0.989373,0.510217 V 16.38444 c 0,-1.583835 0.230803,-2.246591 1.069165,-3.07012 1.178141,-1.157295 3.294017,-1.777252 5.313257,-1.556797 1.636269,0.178644 2.937552,0.825407 3.530216,1.754586 0.132572,0.207847 0.384355,0.795043 0.559517,1.304879 0.175164,0.509836 0.329944,0.93844 0.343958,0.952455 0.01401,0.01401 0.292645,-0.303303 0.619179,-0.70515 0.762977,-0.938953 1.1232,-1.259622 1.717905,-1.529274 2.494751,-1.131174 6.609327,0.46378 7.57327,2.935664 0.285257,0.731499 0.242957,1.473548 -0.148399,2.603306 l -0.317342,0.916094 0.558739,-0.06252 c 0.307307,-0.03439 0.978652,-0.06252 1.49188,-0.06252 0.892423,0 0.955062,0.0108 1.43556,0.247521 0.979077,0.48235 1.614099,1.241519 1.989621,2.378592 0.284589,0.861732 0.299003,2.153701 0.03257,2.91917 -0.237176,0.681404 -0.506792,1.120644 -0.974786,1.588056 -0.771836,0.770875 -1.812245,1.153404 -3.403582,1.251399 -0.497693,0.03065 -0.904896,0.06407 -0.904896,0.07428 0,0.01021 0.16352,0.363379 0.363376,0.78483 0.313256,0.660581 0.363992,0.835845 0.367839,1.270661 0.0033,0.378592 -0.04096,0.597013 -0.177663,0.875783 -0.252078,0.514047 -0.84934,1.144512 -1.334272,1.408444 -0.402394,0.219011 -0.416705,0.220828 -1.384295,0.175846 -0.922916,-0.04291 -2.34213,-0.219474 -2.844933,-0.353945 -0.213391,-0.05707 -0.236161,-0.101971 -0.362537,-0.714921 -0.204276,-0.990789 -0.486149,-1.790931 -1.027624,-2.917078 -0.524812,-1.091492 -0.669419,-1.252284 -1.188894,-1.321961 -0.556337,-0.07462 -1.100994,0.397502 -1.101665,0.954949 -1.61e-4,0.134314 0.202496,0.666913 0.457661,1.202767 1.469754,3.086525 1.335442,5.177446 -0.487957,7.596324 -0.273463,0.36277 -1.168191,1.375421 -1.988283,2.250337 -2.087862,2.227435 -2.728749,3.121422 -3.192288,4.452992 -0.33789,0.970632 -0.264792,1.605103 0.213819,1.855873 l 0.200348,0.104973 -1.497625,1.811863 -1.497625,1.811864 -0.0665,-0.256633 c -0.03657,-0.141148 -0.115225,-0.330996 -0.174777,-0.421884 -0.222426,-0.339465 -0.583842,-1.329058 -0.706531,-1.934555 -0.301292,-1.48694 0.181449,-2.937807 1.506167,-4.52674 0.21907,-0.262764 0.885539,-0.996064 1.481042,-1.629554 1.879602,-1.999505 2.528476,-2.855349 3.160331,-4.168383 0.48206,-1.00175 0.660346,-1.747393 0.707376,-2.958453 0.06496,-1.672685 -0.274555,-3.085281 -1.171179,-4.872886 -0.55193,-1.100385 -0.796343,-1.334108 -1.333674,-1.275336 -0.442847,0.04844 -0.702409,0.245576 -0.857284,0.65111 -0.150469,0.393997 -0.20064,0.222296 0.54058,1.850014 0.194348,0.426788 0.448512,1.090249 0.564809,1.474359 0.186551,0.616144 0.212106,0.830873 0.217029,1.823549 0.0049,0.979514 -0.01769,1.194617 -0.174143,1.661654 -0.471013,1.406001 -1.035492,2.191624 -3.339361,4.647609 -1.609193,1.715441 -2.375711,2.701774 -2.84593,3.662059 -0.517123,1.056073 -0.620275,1.521587 -0.610414,2.754724 0.0094,1.172092 0.173961,1.886626 0.693679,3.011486 0.148051,0.320437 0.257792,0.594006 0.243868,0.607929 -0.01392,0.01392 -0.965753,-0.623587 -2.115175,-1.416691 z M 20.2425,28.410212 c 0.388464,-0.16231 0.592617,-0.470222 0.591978,-0.892843 -4.56e-4,-0.301286 -0.06168,-0.447842 -0.385724,-0.923403 -0.760523,-1.116116 -0.793675,-2.214697 -0.108181,-3.584919 0.344783,-0.68918 1.23662,-1.646608 1.900916,-2.04072 1.121568,-0.665403 2.337384,-0.779754 3.443396,-0.323863 0.875888,0.361035 1.429727,0.25984 1.700467,-0.310702 0.283173,-0.596742 0.04509,-1.11326 -0.673723,-1.461627 -1.474405,-0.714562 -3.460608,-0.688743 -4.961486,0.0645 -0.747975,0.375382 -1.173389,0.676752 -1.796751,1.272845 -0.67127,0.641906 -1.134094,1.286282 -1.516983,2.112045 -0.435628,0.939508 -0.577449,1.577352 -0.575288,2.587385 0.0015,0.72107 0.03451,0.949945 0.212393,1.474359 0.322097,0.949596 0.960289,1.855319 1.442343,2.046975 0.271219,0.107832 0.431184,0.103423 0.726643,-0.02003 z M 41.61712,25.48853 c 0.32051,-0.195408 0.522458,-0.636057 0.641023,-1.398707 0.114276,-0.735068 0.04473,-1.485216 -0.207312,-2.236026 -0.675341,-2.011807 -2.741078,-3.710575 -5.363041,-4.410323 -0.661329,-0.176495 -0.921169,-0.20366 -2.001556,-0.209253 -1.417459,-0.0073 -1.839485,0.077 -2.875744,0.574656 -0.694109,0.333344 -1.652934,1.151047 -1.818557,1.550896 -0.237265,0.572807 0.130318,1.275461 0.717046,1.370674 0.438198,0.07111 0.650517,-0.02017 1.16919,-0.502629 0.77145,-0.717594 1.591227,-1.022353 2.750042,-1.022353 2.157555,0 4.548671,1.296435 5.327636,2.888583 0.33684,0.688476 0.409918,1.271932 0.24626,1.966135 -0.07739,0.328275 -0.115203,0.676434 -0.08626,0.794212 0.168137,0.684107 0.907239,0.996303 1.501269,0.634135 z"
     id="path7" />
</svg>
