<?xml version="1.0" encoding="UTF-8" standalone="no"?>
<svg
   width="58"
   height="66.667"
   fill="none"
   version="1.1"
   id="svg16"
   sodipodi:docname="soldier-car.svg"
   inkscape:version="1.4 (86a8ad7, 2024-10-11)"
   xmlns:inkscape="http://www.inkscape.org/namespaces/inkscape"
   xmlns:sodipodi="http://sodipodi.sourceforge.net/DTD/sodipodi-0.dtd"
   xmlns="http://www.w3.org/2000/svg"
   xmlns:svg="http://www.w3.org/2000/svg">
  <defs
     id="defs16" />
  <sodipodi:namedview
     id="namedview16"
     pagecolor="#ffffff"
     bordercolor="#000000"
     borderopacity="0.25"
     inkscape:showpageshadow="2"
     inkscape:pageopacity="0.0"
     inkscape:pagecheckerboard="0"
     inkscape:deskcolor="#d1d1d1"
     inkscape:zoom="12.886957"
     inkscape:cx="9.7773276"
     inkscape:cy="43.881577"
     inkscape:window-width="1873"
     inkscape:window-height="1143"
     inkscape:window-x="0"
     inkscape:window-y="54"
     inkscape:window-maximized="0"
     inkscape:current-layer="svg16" />
  <path
     fill-rule="evenodd"
     clip-rule="evenodd"
     d="M37.434 56.755C49.337 53.142 58 42.082 58 29 58 12.984 45.016 0 29 0S0 12.984 0 29c0 13.083 8.663 24.142 20.566 27.755l6.834 9.112a2 2 0 0 0 3.2 0z"
     fill="#fff"
     id="path1" />
  <path
     fill-rule="evenodd"
     clip-rule="evenodd"
     d="M29 55c14.36 0 26-11.64 26-26S43.36 3 29 3 3 14.64 3 29s11.64 26 26 26z"
     fill="#1ab3ff"
     id="path2" />
  <mask
     id="a"
     maskUnits="userSpaceOnUse"
     x="19.826"
     y="21.522"
     width="26"
     height="27"
     fill="#000">
    <path
       fill="#fff"
       d="M19.826 21.522h26v27h-26z"
       id="path3" />
    <path
       fill-rule="evenodd"
       clip-rule="evenodd"
       d="M33 46c5.596 0 10.174-4.242 10.174-12.435 0-8.192-5.276-9.043-10.513-9.043-4.638 0-9.835.85-9.835 9.043S27.404 46 33 46z"
       id="path4" />
  </mask>
  <mask
     id="b"
     maskUnits="userSpaceOnUse"
     x="16.435"
     y="16.435"
     width="32"
     height="19"
     fill="#000">
    <path
       fill="#fff"
       d="M16.435 16.435h32v19h-32z"
       id="path8" />
    <path
       fill-rule="evenodd"
       clip-rule="evenodd"
       d="M32.66 32.66c7.305 0 13.227-2.96 13.227-6.612s-5.922-6.613-13.226-6.613c-7.305 0-13.226 2.96-13.226 6.613 0 3.652 5.921 6.613 13.226 6.613z"
       id="path9" />
  </mask>
  <mask
     id="c"
     mask-type="alpha"
     maskUnits="userSpaceOnUse"
     x="20"
     y="29"
     width="26"
     height="9">
    <path
       fill-rule="evenodd"
       clip-rule="evenodd"
       d="M21.741 30.74c.521 3.168 5.391 5.651 11.797 5.651 5.388 0 10.202-2.483 10.72-5.652z"
       fill="#fff"
       id="path15" />
    <path
       d="M21.741 30.74v-1.131a1.13 1.13 0 0 0-1.115 1.314zm22.517 0 1.115.182a1.13 1.13 0 0 0-1.115-1.313zm-23.632.183c.346 2.108 2.08 3.758 4.31 4.847 2.27 1.107 5.265 1.752 8.602 1.752V35.26c-3.069 0-5.711-.597-7.61-1.523-1.936-.945-2.897-2.121-3.071-3.182zm12.912 6.599c2.855 0 5.59-.656 7.71-1.767 2.083-1.09 3.784-2.741 4.125-4.834l-2.23-.364c-.177 1.077-1.142 2.252-2.943 3.195-1.762.923-4.13 1.509-6.662 1.509zm10.72-7.913H21.74v2.26h22.517z"
       fill="#fff"
       id="path16" />
  </mask>
  <path
     d="m 18.226239,34.841683 c 0.09767,-0.899177 0.463909,-2.11022 0.932701,-3.084514 0.773997,-1.607135 0.773997,-1.607135 -0.131847,-3.248416 -1.20128,-2.17168 -1.291621,-3.114108 -0.710513,-7.416493 0.476116,-3.523859 0.515182,-3.660443 1.540666,-5.235708 3.430487,-5.263024 12.520666,-4.914735 15.306561,0.589587 1.5895,3.136872 1.931326,9.271755 0.64215,11.509451 -1.005949,1.745994 -1.059666,2.444847 -0.273463,3.624021 0.319851,0.480317 0.896077,1.791522 1.281853,2.916059 0.700747,2.044204 0.700747,2.044204 1.799482,2.085179 2.356166,0.09105 3.904162,0.858202 4.436435,2.192166 0.815504,2.051033 1.179309,0.965191 1.179309,-3.521582 0,-2.70891 0.08056,-3.699138 0.305203,-3.794748 0.234394,-0.102442 0.336943,0.826332 0.446815,4.074746 0.168475,4.998962 0.224631,5.156032 2.544178,6.968042 0.940025,0.733002 -0.719297,2.0542 -0.147953,2.837279 l -2.743316,0.1534 -0.352684,-1.712451 1.036188,0.447055 c -1.81413,-0.976575 -2.067734,0.493369 -2.309248,-0.277496 -56.359227,4.188405 -22.940004,0.46348 -24.782517,-9.105577 z m 17.213476,10.926694 -1.145124,-0.28455 c -4.101937,-1.019822 1.145124,0.28455 1.145124,0.28455 z m 6.043027,0.07513 c -0.08057,-0.509912 -3.381653,-1.538843 -3.655116,-1.140474 -0.415082,0.610074 -0.495655,0.589588 -0.495655,0.589588 -0.06836,-0.794462 4.150771,0.550886 4.150771,0.550886 z M 17.005426,45.313098 c -0.710514,0 -0.70563,-0.0068 -0.236838,0.512187 0.422612,0.466977 0.847243,0.566718 0.847243,-0.05691 0,-0.334631 -0.163587,-0.455279 -0.610405,-0.455279 m 16.480984,-2.276393 -0.793527,0.22536 c -0.993742,0.282271 -2.380588,0.983403 -2.380588,1.204213 0,0.08878 0.769111,0.163901 3.418278,0.163901 l 1.037689,0.311866 c 1.186632,0.357395 1.289182,0.309588 1.523581,-0.726172 0.168469,-0.74438 0.153821,-0.760313 -1.008395,-1.085838 -0.649475,-0.182111 -1.318476,-0.277721 -1.797038,-0.09333 z m -15.875462,0.865025 c -17.5748332,-35.0109479 -17.5748332,-35.0109479 0,0 z m 2.202349,-1.775587 -0.112315,-0.282271 c -0.212422,-0.532676 -0.756904,-0.516744 -0.37601,0.509912 l -0.168473,0.928767 c -0.268579,1.477381 0.09767,1.727782 1.941094,1.329414 2.043642,-0.441621 2.077825,-0.985677 -1.284296,-2.485822 z m 21.730485,1.821115 0.244162,-0.45528 -0.06104,-0.38471 c -0.104989,-0.666982 -3.601397,-1.506973 -3.601397,-0.525845 l -0.244166,0.45528 v 0.434788 c 0,0.339184 0.407752,0.562273 1.84343,1.012998 1.840985,0.575927 1.840985,0.575927 1.819014,-0.537231 z M 29.482143,38.939189 c -0.634828,0 -5.762243,4.484497 -5.762243,5.039937 0,0.106993 0.03908,0.195769 0.08546,0.195769 0.04395,0 0.280787,-0.202599 0.522507,-0.453001 0.241723,-0.248126 1.45277,-0.805844 2.690675,-1.238357 1.240346,-0.432518 2.304898,-0.919664 2.368378,-1.083567 0.158706,-0.423409 0.239278,-2.460781 0.09522,-2.460781 m -11.866312,1.365835 0.06104,0.682919 c 0.03419,0.373328 0.0879,0.680644 0.122081,0.68292 h 0.183123 c 0.06836,0 0.122081,-0.357395 0.122081,-0.796737 0,-0.437068 -0.109873,-0.796743 -0.488326,-0.796743 v -0.45527 -0.455279 c 0,-0.252681 -0.163589,-0.455279 -0.732488,-0.455279 0,0 0.769113,-0.637392 0.693423,-1.211044 -0.08302,-0.619179 -0.234398,3.530689 0.03906,2.804517 z m -0.97665,1.821117 0.427285,-0.225363 c 0.407751,-0.213983 0.407751,-0.218532 -0.427285,-0.0024 -3.686578,0.712418 -2.830972,1.104768 0,0.22764 z m 20.265506,-2.731672 0.139173,-0.07968 c 0.07814,-0.04553 0.104989,-0.430239 0.06104,-0.853649 -0.05861,-0.58048 -0.124519,-0.673811 -0.444376,0.02275 l -0.129405,0.446171 c -0.07081,0.245852 -0.681214,0.974299 -1.355106,1.620794 -0.673885,0.646495 -1.191511,1.197385 -1.152447,1.226976 0.08546,0.06374 2.441629,0.80357 2.558825,0.80357 0.0415,0 0.13185,-0.717064 0.322296,-3.186952 z m 5.615743,1.593474 -1.709141,-0.682919 v -0.227641 l 0.54937,0.102443 c 0.739812,0.141138 1.018159,0.04553 0.671447,-0.557714 v -0.22764 l 0.227071,-0.626008 c 0.22219,-0.61235 0.190444,-0.637392 -1.281853,-1.122266 -2.031436,-0.666983 -2.363495,-0.660153 -2.363495,0.610075 v 0.455281 l -0.06104,0.254954 c -0.03416,0.141138 0.241717,0.346012 1.281852,0.655604 l -0.488325,0.22764 -0.549365,-0.05691 c -0.393106,-0.04097 -0.568903,0.07512 -0.622614,0.412027 -0.06104,0.414305 0.183121,0.532678 4.101932,1.465999 l -0.13185,0.455279 c -0.07081,0.250402 -0.04884,0.455279 0.05128,0.455279 0.334504,0 0.642146,-0.751213 0.324735,-1.593478 z m -4.150764,0.382435 c 0.202654,0.05008 0.778874,0.241299 1.281852,0.42341 0.502978,0.182112 1.081644,0.332353 1.281853,0.332353 0.202659,0 0.366249,-0.04097 0.366249,-0.09333 0,-0.179837 -3.017855,-1.040314 -3.154584,-0.899176 -0.07814,0.07967 0.0244,0.184386 0.22463,0.236743 M 19.569135,38.028634 19.20289,37.516448 c -0.346711,-0.489424 -0.363803,-0.459833 -0.363803,0.626009 0,1.327135 0.471236,2.308263 1.706698,2.617852 l 0.522508,0.398367 c 0.371128,0.282276 0.954677,0.398373 2.014343,0.398373 1.491834,0 1.491834,0 -3.513501,-3.528415 z m 12.713551,-0.876409 c -2.20967,1.445507 -2.20967,1.445507 -2.212114,2.868257 -0.0023,0.783078 0.04884,1.422745 0.109873,1.422745 0.06104,0 0.74714,-0.482595 1.523575,-1.069905 1.858078,-1.411367 2.370825,-2.00778 3.266902,-3.792473 0.888752,-1.771037 0.927816,-2.891019 0.05615,-1.641282 -0.29544,0.421134 -1.530899,1.418195 -2.744393,2.212658 m 5.35449,2.697528 v 1.138194 h 0.244162 v -1.138194 z m -3.174111,-0.22764 1.015718,-1.308928 c 0.800857,-1.031206 1.013274,-1.502423 1.003511,-2.219486 -0.01219,-0.876411 -0.04884,-0.830883 -2.019229,3.300774 l -0.878984,0.585031 c -0.483441,0.320974 -0.805735,0.651049 -0.715395,0.735276 0.0879,0.08196 0.483441,-0.129756 1.594379,-1.092667 z M 22.254924,38.483914 21.94972,38.244891 c -0.212421,-0.1639 -0.0074,-0.1639 0.671448,0 0.537158,0.129756 1.552875,0.236748 3.54036,0.239023 l 0.91561,-0.286825 c 0.915611,-0.284552 0.915611,-0.284552 -1.159772,-0.623734 l -1.777505,-0.512187 c -0.979093,-0.282271 -2.077824,-0.639666 -3.10575,-1.081287 l -0.732488,-0.692023 c -0.593315,-0.559993 -0.732488,-0.883243 -0.732488,-1.707296 0,-1.042589 -0.234398,-1.320311 -0.522508,-0.616905 -0.278346,0.685195 0.0879,2.390216 1.254996,3.926783 l 1.709138,1.821115 0.11964,0.207152 c 0.271021,0.475766 3.047151,1.41364 3.957878,1.338518 0.927819,-0.0774 0.927819,-0.0774 -0.537158,-0.493978 -0.805736,-0.229914 -1.877612,-0.61235 -3.296197,-1.279333 z M 19.080809,36.207521 18.834204,35.69533 c -0.249045,-0.512187 -0.249045,-0.512187 0.0024,0.512191 l 0.288112,0.284546 c 0.229513,0.22764 0.253929,0.22764 -0.04395,-0.284546 z m 4.883254,0 -2.929952,-2.048758 -0.49565,-0.739826 c -0.366245,-0.54861 -0.534717,-0.653325 -0.647032,-0.407476 -0.08546,0.18439 -0.02686,0.516744 0.410194,1.147302 l 0.671447,0.73983 c 0.368686,0.407477 1.193956,0.919664 2.990993,1.536567 l 0.09279,0.141134 c 0.05372,0.0774 0.236838,0.09789 0.410194,0.04325 0.222188,-0.06829 0.195329,-0.143413 -0.502975,-0.412026 z m -0.97665,-1.821118 -1.953302,-1.821115 -0.275904,-0.626008 c -0.23928,-0.546335 -0.288113,-0.571376 -0.393102,-0.184386 -0.06348,0.243573 0.0586,0.626008 0.669006,1.265674 l 0.100106,0.284547 c 0.05615,0.157074 0.495649,0.566822 1.853195,1.536568 l 0.368685,0.264064 c 0.202656,0.143412 0.427285,0.207152 0.500534,0.141133 0.07081,-0.06829 -0.09522,-0.2891 -0.869219,-0.860477 z m 5.37158,-6.601544 2.197463,0.682919 h 0.651916 c 0.97177,0 1.03525,-0.268615 -0.651916,-0.910558 l -1.709141,-1.138196 -0.915608,-0.279998 c -0.832594,-0.257232 -1.045016,-0.225362 -2.348845,0.34146 -1.721347,0.746657 -3.132608,0.796738 -5.769565,-0.289103 l -0.615291,-1.377217 c -0.72028,-1.609412 -0.969325,-1.475105 -0.75202,0.407473 0.163589,1.422747 2.719973,6.508215 4.297264,8.026569 l 1.159772,0.817224 c 0.815504,0.575931 1.504044,0.855924 2.319547,0.944704 1.159772,0.125201 1.159772,0.125201 1.159772,-2.290051 0,-2.387941 -0.0074,-2.422086 -0.75202,-3.148255 -0.969327,-0.942428 -0.82283,-1.338521 1.728672,-1.786971 z m -0.976652,-2.276394 1.464974,0.22764 0.769117,0.341459 c 1.323362,0.58731 3.340144,0.453003 4.089724,-0.273167 0.634822,-0.614627 0.634822,-0.614627 -0.481,-0.302761 -0.722724,0.202599 -1.557761,0.259509 -3.645348,0.0068 l -0.673891,-0.341455 c -0.371128,-0.186663 -0.864336,-0.341458 -1.523576,-0.341458 l -0.305203,-0.01139 c -0.168472,-0.0046 -1.108498,0.270891 -2.092475,0.612351 -2.632074,0.919663 -5.156717,0.03415 -4.927204,-2.194444 l 1.281855,-0.626009 c 0.87166,-0.425686 2.004575,-0.717064 5.798865,-1.195107 h 0.488326 l 1.91668,0.05691 c 1.914233,0.05691 1.914233,0.05691 2.568587,-1.081287 0.783764,-1.361285 0.820389,-2.394768 -0.334503,-5.349526 l 0.48833,0.227638 1.220811,0.910557 0.615291,0.717065 c 0.791087,0.924217 1.005948,0.721617 -0.126967,-1.172342 L 32.509761,14.35412 32.404772,14.183389 C 32.180147,13.812337 28.962077,12.69918 27.382346,12.760643 h -0.244162 l -0.79353,-0.04781 c -2.553942,-0.152519 -6.160226,2.481269 -6.885389,5.030831 -0.883869,3.102726 -0.344269,6.690324 1.196398,7.951447 1.218372,0.999338 2.077824,1.072182 6.726683,-0.186664 z"
     fill="rgba(35,20,30,1)"
     id="path3-0"
     sodipodi:nodetypes="cccccccccccsccccccccccccccccccscccsccccccccccccccccccscccsscccccccssccsccccccccccccscscccccccccsccccccccsccsssccccsccscccsccccccccccccccsccccccccccsccccccccccccccccccccccccccccccccccsccccccccccscccccccccccccsccccccccccccccccc"
     style="stroke-width:0.235757" />
  <path
     d="m 22.74325,33.248208 0.04639,-0.170728 c 0.02686,-0.09334 -0.402868,-0.990233 -0.952235,-1.991848 -0.551807,-1.001613 -1.230579,-2.51314 -2.024109,-4.894249 2.636958,1.085841 4.048219,1.03576 5.769566,0.289103 1.303829,-0.566822 1.516251,-0.598692 2.348845,-0.34146 l 0.915606,0.279998 -0.488321,1.365835 c -2.5515,0.44845 -2.697998,0.844543 -1.728672,1.786971 0.744696,0.726169 0.752021,0.760314 0.752021,3.148255 0,2.415252 0,2.415252 -1.159772,2.290051 -0.815504,-0.08878 -1.504044,-0.368773 -2.319547,-0.944704 z"
     fill="rgba(153,145,117,1)"
     id="path4-9"
     style="stroke-width:0.235757" />
  <path
     d="m 20.057459,23.23207 0.305204,-1.425022 c 0.227071,-1.056248 0.451701,-1.513803 0.874102,-1.764206 0.439493,-0.259509 0.64459,-0.703406 0.888753,-1.912172 0.402868,-1.991845 1.027925,-2.581431 5.012661,-3.548899 v 6.829184 c -3.79429,0.478043 -4.927205,0.769422 -5.798865,1.195108 z"
     fill="rgba(153,145,117,1)"
     id="path5"
     style="stroke-width:0.235757" />
  <path
     d="m 27.138179,12.760657 v 1.821114 c -3.984736,0.967468 -4.609793,1.557054 -5.012661,3.548899 -0.244163,1.208766 -0.44926,1.652663 -0.888753,1.912172 -0.422401,0.250403 -0.647031,0.707958 -0.874102,1.764206 l -0.305204,1.425022 c -0.229513,2.228591 2.29513,3.114108 4.927204,2.194445 0.983977,-0.341459 1.924003,-0.616903 2.092475,-0.612349 l 0.305203,0.01138 v 0.682918 c -4.648858,1.258847 -5.50831,1.186001 -6.726683,0.186665 -1.540667,-1.261123 -2.080266,-4.848721 -1.196397,-7.951447 0.725162,-2.549562 4.331446,-5.183351 6.885389,-5.030831 z"
     fill="rgba(214,209,193,1)"
     id="path6"
     style="stroke-width:0.235757" />
  <path
     d="m 27.626505,21.410955 v -7.056823 -0.227639 l 0.500533,0.257231 c 0.297878,0.154795 0.988862,0.204877 1.71158,0.125203 0.886313,-0.09788 1.311153,-0.04553 1.938651,0.528122 1.154892,2.954761 1.118267,3.988244 0.334503,5.349529 -0.654354,1.138196 -0.654354,1.138196 -2.568587,1.081287 z"
     fill="rgba(130,122,99,1)"
     id="path7"
     style="stroke-width:0.235757" />
  <path
     d="m 32.282686,37.152225 c 1.213493,-0.794463 2.448952,-1.791524 2.744391,-2.212658 0.871661,-1.249737 0.832597,-0.129755 -0.05615,1.641282 -0.896078,1.784693 -1.408823,2.381106 -3.266901,3.792473 -0.776436,0.58731 -1.462536,1.069905 -1.523576,1.069905 -0.06104,0 -0.112312,-0.639667 -0.109873,-1.422745 0.0023,-1.42275 0.0023,-1.42275 2.212113,-2.868257"
     fill="rgba(153,145,117,1)"
     id="path14"
     style="stroke-width:0.235757" />
  <path
     d="m 29.482143,38.939193 c 0.144052,0 0.06349,2.037372 -0.09522,2.460781 -0.06348,0.163904 -1.128032,0.65105 -2.368379,1.083567 -1.237905,0.432513 -2.448952,0.990232 -2.690673,1.238357 -0.241722,0.250403 -0.478559,0.453001 -0.522508,0.453001 -0.04639,0 -0.08546,-0.08878 -0.08546,-0.195769 0,-0.55544 5.127414,-5.039937 5.762243,-5.039937 m -1.367313,2.504034 0.549363,-0.250402 c 0.341827,-0.154796 0.437054,-0.29138 0.246607,-0.359674 -0.163589,-0.05918 -0.466351,0.0024 -1.040134,0.382436 l -0.305203,0.261785 c -0.236838,0.204878 -0.20998,0.229918 0.549367,-0.03412 z"
     fill="rgba(214,209,193,1)"
     id="path20"
     style="stroke-width:0.235757" />
  <path
     d="m 19.813297,26.191383 c 0.793529,2.381109 1.472301,3.892636 2.024109,4.894249 0.549366,1.001615 0.979092,1.898513 0.952235,1.991848 l -0.04639,0.170728 c -1.577291,-1.518354 -4.133676,-6.603822 -4.297264,-8.026569 -0.217304,-1.882578 0.03173,-2.016885 0.752021,-0.407473 z"
     fill="rgba(214,209,193,1)"
     id="path21"
     style="stroke-width:0.235757" />
  <path
     d="m 20.301623,36.89044 -0.07569,-0.441621 c -0.05372,-0.295934 0.06593,-0.446177 0.808179,-0.468938 1.027926,0.441621 2.126657,0.799016 3.10575,1.081287 l 1.777505,0.512187 0.244163,0.910559 c -1.987485,-0.0024 -3.003203,-0.109267 -3.540361,-0.239023 -0.678773,-0.1639 -0.883868,-0.1639 -0.671447,0 l 0.305203,0.239023 -0.244162,0.227641 z"
     fill="rgba(153,145,117,1)"
     id="path23"
     style="stroke-width:0.235757" />
  <path
     d="m 31.777269,15.037049 c -0.627498,-0.57365 -1.052338,-0.626007 -1.938651,-0.528122 -0.722718,0.07968 -1.413702,0.0296 -1.71158,-0.125203 l -0.500533,-0.257231 -0.244164,-1.365836 c 1.579731,-0.06146 4.797801,1.051693 5.022426,1.422745 l 0.104989,0.17073 -0.244162,0.910558 z"
     fill="rgba(153,145,117,1)"
     id="path28"
     style="stroke-width:0.235757" />
  <path
     d="m 20.545785,40.760309 0.341828,-0.05691 c 0.234396,-0.03869 0.08057,-0.339187 -0.488325,-0.949259 -0.456584,-0.489425 -0.830153,-1.079013 -0.830153,-1.725508 5.005335,3.528415 5.005335,3.528415 3.513501,3.528415 -1.059666,0 -1.643215,-0.116097 -2.014343,-0.398374 z"
     fill="rgba(153,145,117,1)"
     id="path29"
     style="stroke-width:0.235757" />
  <path
     d="m 36.660525,38.483914 0.244163,0.910559 c -0.190446,2.469888 -0.280787,3.186952 -0.322296,3.186952 -0.117196,0 -2.473368,-0.73983 -2.558825,-0.80357 -0.03907,-0.02961 0.478562,-0.58048 1.152447,-1.226976 0.673891,-0.646494 1.284298,-1.374942 1.355106,-1.620793 z"
     fill="rgba(153,145,117,1)"
     id="path32"
     style="stroke-width:0.235757" />
  <path
     d="m 42.032107,39.394473 -3.418278,-1.138199 c 0,-1.270228 0.332059,-1.277058 2.363495,-0.610075 1.472298,0.484874 1.504044,0.509916 1.281853,1.122266 z"
     fill="rgba(130,122,99,1)"
     id="path37"
     style="stroke-width:0.235757" />
  <path
     d="m 14.197554,39.166834 0.03173,-0.398369 c 0.0171,-0.218536 0.18068,-0.525848 0.700747,-0.96747 2.563708,-0.919663 2.563708,-0.919663 2.646724,-0.300484 0.07569,0.573652 -0.263696,0.90373 -0.998626,0.967471 l -0.183122,0.01593 z"
     fill="rgba(153,145,117,1)"
     id="path47"
     style="stroke-width:0.235757" />
  <path
     d="m 14.197554,39.622113 2.68579,-0.910558 c 0.5689,0 0.732487,0.202598 0.732487,0.455279 v 0.455279 L 14.68588,40.532667 C 13.687254,40.361939 13.604239,39.96357 14.019316,39.724548 Z"
     fill="rgba(153,145,117,1)"
     id="path50"
     style="stroke-width:0.235757" />
  <path
     d="m 28.847315,25.736105 0.732493,-0.22764 c 2.087587,0.25268 2.922624,0.19577 3.645348,-0.0068 1.115822,-0.311866 1.115822,-0.311866 0.481,0.302761 -0.74958,0.72617 -2.766362,0.860477 -4.089724,0.273167 z"
     fill="rgba(130,122,99,1)"
     id="path51"
     style="stroke-width:0.235757" />
  <path
     d="m 19.569135,38.028634 c 0,0.646495 0.373569,1.236085 0.830153,1.725509 0.568898,0.610071 0.722721,0.910558 0.488325,0.949258 l -0.341828,0.05691 c -1.235462,-0.309588 -1.706698,-1.290717 -1.706698,-2.617852 0,-1.085842 0.0171,-1.115432 0.363803,-0.626008 z"
     fill="rgba(214,209,193,1)"
     id="path53"
     style="stroke-width:0.235757" />
  <path
     d="m 27.138179,21.410955 v -6.829184 l 0.488326,-0.227639 v 7.056823 z"
     fill="rgba(99,86,79,1)"
     id="path54"
     style="stroke-width:0.235757" />
  <path
     d="m 21.034111,35.979881 c -0.742255,0.02275 -0.861895,0.173004 -0.808179,0.468938 l 0.07569,0.441621 c -1.167098,-1.536567 -1.533341,-3.241588 -1.254995,-3.926783 0.288111,-0.703406 0.522507,-0.425684 0.522507,0.616905 0,0.824053 0.139173,1.147303 0.732488,1.707296 z"
     fill="rgba(214,209,193,1)"
     id="path58"
     style="stroke-width:0.235757" />
  <path
     d="m 34.46306,39.622113 v -0.22764 c 1.970395,-4.131657 2.00702,-4.177185 2.019228,-3.300774 0.0098,0.717063 -0.202653,1.18828 -1.003511,2.219486 z"
     fill="rgba(130,122,99,1)"
     id="path59"
     style="stroke-width:0.235757" />
  <path
     d="m 28.358993,27.784859 0.488322,-1.365835 1.709141,1.138196 v 0.910558 z"
     fill="rgba(130,122,99,1)"
     id="path62"
     style="stroke-width:0.235757" />
  <path
     d="m 20.301623,34.158763 h 0.732488 l 2.929952,2.048758 V 36.43516 C 22.167026,35.818257 21.341756,35.30607 20.97307,34.898593 Z"
     fill="rgba(153,145,117,1)"
     id="path64"
     style="stroke-width:0.235757" />
  <path
     d="m 22.010761,38.711555 0.244163,-0.227641 c 1.418585,0.666983 2.490461,1.049419 3.296197,1.279333 1.464977,0.41658 1.464977,0.41658 0.537158,0.493978 -0.910727,0.07512 -3.686857,-0.862752 -3.957878,-1.338518 z"
     fill="rgba(130,122,99,1)"
     id="path65"
     style="stroke-width:0.235757" />
  <path
     d="m 40.811289,40.077388 -0.976648,-0.455275 c -1.040134,-0.309592 -1.316038,-0.514466 -1.281852,-0.655604 l 0.06104,-0.254954 3.418277,0.910558 c 0.346711,0.603242 0.06836,0.698852 -0.671448,0.557714 z"
     fill="rgba(130,122,99,1)"
     id="path67"
     style="stroke-width:0.235757" />
  <path
     d="m 32.265599,15.26469 0.244162,-0.910558 1.464973,1.365836 -0.488324,0.455279 z"
     fill="rgba(130,122,99,1)"
     id="path72"
     style="stroke-width:0.235757" />
  <path
     d="m 38.613829,38.711555 v -0.455281 l 3.418278,1.138199 v 0.22764 z"
     fill="rgba(68,53,53,1)"
     id="path79"
     style="stroke-width:0.235757" />
  <path
     d="m 21.034111,33.020568 v -0.45528 l 1.953302,1.821115 v 0.45528 c -1.357545,-0.969746 -1.797039,-1.379494 -1.853195,-1.536568 z"
     fill="rgba(130,122,99,1)"
     id="path82"
     style="stroke-width:0.235757" />
  <path
     d="m 27.382341,25.508465 v -0.682917 c 0.65924,0 1.152448,0.154794 1.523576,0.341458 l 0.673891,0.341459 -0.732493,0.22764 z"
     fill="rgba(153,145,117,1)"
     id="path83"
     style="stroke-width:0.235757" />
  <path
     d="m 14.197554,39.622113 -0.244163,-0.455279 h 0.244163 l 2.197465,-0.68292 0.488325,0.227641 z"
     fill="rgba(68,53,53,1)"
     id="path89"
     style="stroke-width:0.235757" />
  <path
     d="m 21.034111,34.158763 h -0.732488 c -0.437052,-0.630558 -0.495651,-0.962912 -0.410194,-1.147302 0.112315,-0.245849 0.280787,-0.141134 0.647032,0.407476 z"
     fill="rgba(214,209,193,1)"
     id="path92"
     style="stroke-width:0.235757" />
  <path
     d="m 26.161528,38.483914 -0.244162,-0.910559 c 2.075383,0.339182 2.075383,0.339182 1.159772,0.623734 z"
     fill="rgba(130,122,99,1)"
     id="path95"
     style="stroke-width:0.235757" />
  <path
     d="m 33.48641,16.175247 0.488324,-0.455279 c 1.132915,1.89396 0.918054,2.09656 0.126967,1.172344 z"
     fill="rgba(109,102,86,1)"
     id="path96"
     style="stroke-width:0.235757" />
  <path
     d="M 30.556456,28.467778 V 27.55722 c 1.687166,0.641943 1.623686,0.910558 0.651916,0.910558 z"
     fill="rgba(109,102,86,1)"
     id="path100"
     style="stroke-width:0.235757" />
  <path
     d="m 27.138179,14.581771 v -1.821114 h 0.244162 l 0.244164,1.365836 v 0.227639 z"
     fill="rgba(109,102,86,1)"
     id="path110"
     style="stroke-width:0.235757" />
  <path
     d="m 21.034111,32.565288 v 0.45528 c -0.610407,-0.639666 -0.732488,-1.022101 -0.669006,-1.265674 0.104989,-0.38699 0.153822,-0.361949 0.393102,0.184386 z"
     fill="rgba(214,209,193,1)"
     id="path113"
     style="stroke-width:0.235757" />
  <path
     d="m 13.953391,39.166834 c 0.100106,-1.022102 0.278346,-1.272509 0.549367,-1.308928 l 0.427284,-0.05691 c -0.520067,0.441617 -0.683655,0.74893 -0.700747,0.967466 l -0.03173,0.398368 z"
     fill="rgba(214,209,193,1)"
     id="path117"
     style="stroke-width:0.235757" />
  <path
     d="m 36.904688,39.394473 -0.244163,-0.910559 c 0.319857,-0.696577 0.385776,-0.603246 0.444377,-0.02275 0.04393,0.423411 0.01711,0.808121 -0.06104,0.853649 z"
     fill="rgba(109,102,86,1)"
     id="path143"
     style="stroke-width:0.235757" />
  <path
     d="m 22.987413,34.841683 v -0.45528 c 0.773995,0.571377 0.940026,0.792187 0.869219,0.860477 -0.07325,0.06602 -0.297878,0.0024 -0.500534,-0.141133 z"
     fill="rgba(68,53,53,1)"
     id="path144"
     style="stroke-width:0.235757" />
  <path
     d="m 18.836645,36.207521 c -0.251486,-1.024378 -0.251486,-1.024378 -0.0024,-0.512191 l 0.246603,0.512191 z"
     fill="rgba(249,249,237,1)"
     id="path161"
     style="stroke-width:0.235757" />
  <path
     d="m 23.964063,36.43516 v -0.227639 c 0.698305,0.268613 0.725163,0.343737 0.502976,0.412027 -0.173356,0.05463 -0.356478,0.03412 -0.410194,-0.04325 z"
     fill="rgba(109,102,86,1)"
     id="path168"
     style="stroke-width:0.235757" />
  <path
     d="m 18.836645,36.207521 h 0.244164 c 0.297878,0.512186 0.273462,0.512186 0.04395,0.284546 z"
     fill="rgba(214,209,193,1)"
     id="path170"
     style="stroke-width:0.235757" />
  <path
     id="path2962"
     style="fill:#f9f9f9;fill-opacity:1;stroke-width:0.112021;stroke-dasharray:none"
     d="m 34.427915,56.758096 c -0.538506,-0.385932 -1.026318,-1.425419 -1.206608,-2.571184 -0.138973,-0.883217 -0.08673,-2.599945 0.104191,-3.423678 0.340358,-1.468339 0.967315,-2.235871 1.740764,-2.130811 0.47373,0.06426 1.051978,0.662556 1.284035,1.328564 0.205487,0.589724 0.403799,1.809539 0.426221,2.621768 0.04254,1.540545 -0.527547,3.550055 -1.150439,4.055224 -0.317384,0.257406 -0.921963,0.317989 -1.198179,0.120073 z m 17.037666,1.861139 C 51.0329,58.212156 50.584644,57.22185 50.418153,56.305372 c -0.08009,-0.441016 -0.09314,-0.950583 -0.05036,-1.967553 0.05252,-1.248795 0.08242,-1.442268 0.331818,-2.147052 0.835883,-2.362248 2.565309,-1.926442 3.093349,0.779392 0.245216,1.256628 0.252988,2.245176 0.02688,3.416064 -0.41947,2.17226 -1.415093,3.116618 -2.354287,2.232995 z M 31.213725,52.004332 c -0.260268,-0.246528 -0.284503,-0.617893 -0.220644,-3.381552 0.04419,-1.91257 0.09261,-2.805328 0.162679,-2.999377 0.07801,-0.216126 0.86833,-0.478083 3.625716,-1.201848 l 3.525986,-0.925477 1.773809,-3.609944 1.773809,-3.609944 4.856566,0.577273 4.856567,0.577273 2.124244,4.248257 c 1.168342,2.336532 2.195331,4.445011 2.282157,4.685415 0.153891,0.425824 0.155719,0.534098 0.07109,4.196657 -0.104511,4.523173 -0.08468,4.417605 -0.813953,4.330816 l -0.500485,-0.05949 -0.101513,-1.028542 c -0.143829,-1.457258 -0.270294,-1.994621 -0.6975,-2.964018 -0.546315,-1.239643 -0.89772,-1.596035 -1.663412,-1.687054 -0.75771,-0.09006 -1.168192,0.205164 -1.718163,1.235651 -0.382622,0.716913 -0.828274,2.338393 -0.847668,3.083966 -0.02312,0.890491 0.290821,0.886735 -6.159996,0.07351 l -6.020433,-0.758971 -0.100789,-1.02844 c -0.142621,-1.455329 -0.269189,-1.993776 -0.696768,-2.964018 -0.534948,-1.213843 -0.900331,-1.591772 -1.626191,-1.681945 -0.73669,-0.09151 -1.126868,0.170685 -1.675645,1.126022 -0.438589,0.763523 -0.907492,2.374429 -0.92614,3.181752 -0.0057,0.245344 -0.05264,0.532525 -0.104377,0.638177 -0.09386,0.19168 -0.961348,0.151634 -1.178934,-0.0544 z m 14.792433,-6.59088 c 0.09408,-0.119503 0.132722,-0.7082 0.208934,-3.182766 0.061,-1.98058 0.06786,-3.159928 0.01974,-3.39238 -0.07177,-0.346631 -0.132059,-0.363177 -2.233075,-0.612919 l -2.159303,-0.256662 -1.367205,2.672523 c -1.112174,2.173951 -1.369219,2.757789 -1.377797,3.130152 -0.02265,0.980071 -0.0087,0.985586 3.550825,1.405844 1.908896,0.225381 3.289901,0.322506 3.357854,0.236191 z m 6.519606,0.44506 c 0.130932,-0.251181 0.205763,-0.566784 0.213468,-0.900338 0.01009,-0.437125 -0.148767,-0.918236 -1.067119,-3.23149 l -1.07898,-2.717862 -1.760383,-0.209241 c -0.96821,-0.115084 -1.814462,-0.169399 -1.880625,-0.120701 -0.103833,0.07648 -0.130403,0.530174 -0.195127,3.331137 -0.05423,2.347191 -0.05086,3.303222 0.01221,3.462081 0.06671,0.168037 0.728089,0.28439 2.821012,0.496253 l 2.733889,0.27676 0.201608,-0.386743 z" />
  <path
     id="path2962-9"
     style="fill:#1a1a1a;fill-opacity:1;stroke-width:0.112021;stroke-dasharray:none"
     d="m 35.092698,57.623521 c -0.538506,-0.385932 -1.026318,-1.425419 -1.206608,-2.571184 -0.138973,-0.883217 -0.08673,-2.599945 0.104191,-3.423678 0.340358,-1.468339 0.967315,-2.235871 1.740764,-2.130811 0.47373,0.06426 1.051978,0.662556 1.284035,1.328564 0.205487,0.589724 0.403799,1.809539 0.426221,2.621768 0.04254,1.540545 -0.527547,3.550055 -1.150439,4.055224 -0.317384,0.257406 -0.921963,0.317989 -1.198179,0.120073 z m 17.037666,1.861139 c -0.432681,-0.407079 -0.880937,-1.397385 -1.047428,-2.313863 -0.08009,-0.441016 -0.09314,-0.950583 -0.05036,-1.967553 0.05252,-1.248795 0.08242,-1.442268 0.331818,-2.147052 0.835883,-2.362248 2.565309,-1.926442 3.093349,0.779392 0.245216,1.256628 0.252988,2.245176 0.02688,3.416064 -0.41947,2.17226 -1.415093,3.116618 -2.354287,2.232995 z M 31.878508,52.869757 c -0.260268,-0.246528 -0.284503,-0.617893 -0.220644,-3.381552 0.04419,-1.91257 0.09261,-2.805328 0.162679,-2.999377 0.07801,-0.216126 0.86833,-0.478083 3.625716,-1.201848 l 3.525986,-0.925477 1.773809,-3.609944 1.773809,-3.609944 4.856566,0.577273 4.856567,0.577273 2.124244,4.248257 c 1.168342,2.336532 2.195331,4.445011 2.282157,4.685415 0.153891,0.425824 0.155719,0.534098 0.07109,4.196657 -0.104511,4.523173 -0.08468,4.417605 -0.813953,4.330816 l -0.500485,-0.05949 -0.101513,-1.028542 c -0.143829,-1.457258 -0.270294,-1.994621 -0.6975,-2.964018 -0.546315,-1.239643 -0.89772,-1.596035 -1.663412,-1.687054 -0.75771,-0.09006 -1.168192,0.205164 -1.718163,1.235651 -0.382622,0.716913 -0.828274,2.338393 -0.847668,3.083966 -0.02312,0.890491 0.290821,0.886735 -6.159996,0.07351 l -6.020433,-0.758971 -0.100789,-1.02844 c -0.142621,-1.455329 -0.269189,-1.993776 -0.696768,-2.964018 -0.534948,-1.213843 -0.900331,-1.591772 -1.626191,-1.681945 -0.73669,-0.09151 -1.126868,0.170685 -1.675645,1.126022 -0.438589,0.763523 -0.907492,2.374429 -0.92614,3.181752 -0.0057,0.245344 -0.05264,0.532525 -0.104377,0.638177 -0.09386,0.19168 -0.961348,0.151634 -1.178934,-0.0544 z m 14.792433,-6.59088 c 0.09408,-0.119503 0.132722,-0.7082 0.208934,-3.182766 0.061,-1.98058 0.06786,-3.159928 0.01974,-3.39238 -0.07177,-0.346631 -0.132059,-0.363177 -2.233075,-0.612919 l -2.159303,-0.256662 -1.367205,2.672523 c -1.112174,2.173951 -1.369219,2.757789 -1.377797,3.130152 -0.02265,0.980071 -0.0087,0.985586 3.550825,1.405844 1.908896,0.225381 3.289901,0.322506 3.357854,0.236191 z m 6.519606,0.44506 c 0.130932,-0.251181 0.205763,-0.566784 0.213468,-0.900338 0.01009,-0.437125 -0.148767,-0.918236 -1.067119,-3.23149 l -1.07898,-2.717862 -1.760383,-0.209241 c -0.96821,-0.115084 -1.814462,-0.169399 -1.880625,-0.120701 -0.103833,0.07648 -0.130403,0.530174 -0.195127,3.331137 -0.05423,2.347191 -0.05086,3.303222 0.01221,3.462081 0.06671,0.168037 0.728089,0.28439 2.821012,0.496253 l 2.733889,0.27676 0.201608,-0.386743 z" />
</svg>
