<?xml version="1.0" encoding="UTF-8" standalone="no"?>
<svg
   width="58"
   height="66.667"
   fill="none"
   version="1.1"
   id="svg16"
   sodipodi:docname="water-on.svg"
   inkscape:version="1.4 (86a8ad7, 2024-10-11)"
   xmlns:inkscape="http://www.inkscape.org/namespaces/inkscape"
   xmlns:sodipodi="http://sodipodi.sourceforge.net/DTD/sodipodi-0.dtd"
   xmlns="http://www.w3.org/2000/svg"
   xmlns:svg="http://www.w3.org/2000/svg">
  <sodipodi:namedview
     id="namedview16"
     pagecolor="#ffffff"
     bordercolor="#000000"
     borderopacity="0.25"
     inkscape:showpageshadow="2"
     inkscape:pageopacity="0.0"
     inkscape:pagecheckerboard="0"
     inkscape:deskcolor="#d1d1d1"
     showgrid="false"
     inkscape:zoom="12.886957"
     inkscape:cx="-11.212888"
     inkscape:cy="44.191969"
     inkscape:window-width="2560"
     inkscape:window-height="1417"
     inkscape:window-x="-8"
     inkscape:window-y="-8"
     inkscape:window-maximized="1"
     inkscape:current-layer="g4" />
  <defs
     id="defs16" />
  <path
     style="fill:#a3e067;fill-opacity:1;stroke:none;stroke-width:0.155196;stroke-linecap:round;stroke-linejoin:round;stroke-miterlimit:0"
     d="m 40.079283,15.532388 c -0.70367,-0.261482 -0.775978,-0.294237 -0.775978,-0.35152 0,-0.02778 0.831481,-0.881442 1.847735,-1.897034 l 1.847735,-1.846532 0.200779,0.372779 c 0.565645,1.050213 0.410883,2.195297 -0.418278,3.09483 -0.683068,0.741041 -1.737449,0.985897 -2.701993,0.627477 z"
     id="path21" />
  <path
     fill-rule="evenodd"
     clip-rule="evenodd"
     d="M37.434 56.755C49.337 53.142 58 42.082 58 29 58 12.984 45.016 0 29 0S0 12.984 0 29c0 13.083 8.663 24.142 20.566 27.755l6.834 9.112a2 2 0 0 0 3.2 0z"
     fill="#fff"
     id="path1" />
  <path
     fill-rule="evenodd"
     clip-rule="evenodd"
     d="m 29,55 c 3.217925,0 6.299263,-0.584516 9.143637,-1.653171 C 47.992288,49.646608 55,40.142075 55,29 55,14.64 43.36,3 29,3 14.64,3 3,14.64 3,29 3,43.36 14.64,55 29,55 Z"
     fill="#1ab3ff"
     id="path2"
     style="stroke:#1aff00;stroke-width:1.99937;stroke-dasharray:none;stroke-opacity:1;fill:#348933;fill-opacity:1"
     sodipodi:nodetypes="ssssss" />
  <mask
     id="a"
     maskUnits="userSpaceOnUse"
     x="19.826"
     y="21.522"
     width="26"
     height="27"
     fill="#000">
    <path
       fill="#fff"
       d="M19.826 21.522h26v27h-26z"
       id="path3" />
    <path
       fill-rule="evenodd"
       clip-rule="evenodd"
       d="M33 46c5.596 0 10.174-4.242 10.174-12.435 0-8.192-5.276-9.043-10.513-9.043-4.638 0-9.835.85-9.835 9.043S27.404 46 33 46z"
       id="path4" />
  </mask>
  <mask
     id="b"
     maskUnits="userSpaceOnUse"
     x="16.435"
     y="16.435"
     width="32"
     height="19"
     fill="#000">
    <path
       fill="#fff"
       d="M16.435 16.435h32v19h-32z"
       id="path8" />
    <path
       fill-rule="evenodd"
       clip-rule="evenodd"
       d="M32.66 32.66c7.305 0 13.227-2.96 13.227-6.612s-5.922-6.613-13.226-6.613c-7.305 0-13.226 2.96-13.226 6.613 0 3.652 5.921 6.613 13.226 6.613z"
       id="path9" />
  </mask>
  <mask
     id="c"
     mask-type="alpha"
     maskUnits="userSpaceOnUse"
     x="20"
     y="29"
     width="26"
     height="9">
    <path
       fill-rule="evenodd"
       clip-rule="evenodd"
       d="M21.741 30.74c.521 3.168 5.391 5.651 11.797 5.651 5.388 0 10.202-2.483 10.72-5.652z"
       fill="#fff"
       id="path15" />
    <path
       d="M21.741 30.74v-1.131a1.13 1.13 0 0 0-1.115 1.314zm22.517 0 1.115.182a1.13 1.13 0 0 0-1.115-1.313zm-23.632.183c.346 2.108 2.08 3.758 4.31 4.847 2.27 1.107 5.265 1.752 8.602 1.752V35.26c-3.069 0-5.711-.597-7.61-1.523-1.936-.945-2.897-2.121-3.071-3.182zm12.912 6.599c2.855 0 5.59-.656 7.71-1.767 2.083-1.09 3.784-2.741 4.125-4.834l-2.23-.364c-.177 1.077-1.142 2.252-2.943 3.195-1.762.923-4.13 1.509-6.662 1.509zm10.72-7.913H21.74v2.26h22.517z"
       fill="#fff"
       id="path16" />
  </mask>
  <g
     id="g5"
     transform="matrix(0.11568806,0,0,0.11675606,14.9004,9.25256)">
    <g
       id="g4"
       style="fill:#4d4d4d">
      <path
         d="m 187.5,107.812 v -9.374 c 0,-7.753 -6.309,-14.063 -14.063,-14.063 h -4.688 v -37.28 c 12.853,1.041 23.32,6.145 32.662,10.73 8.517,4.186 15.877,7.8 23.588,7.8 18.094,0 32.813,-14.719 32.813,-32.813 C 257.812,14.718 243.094,0 225,0 217.289,0 209.93,3.614 201.412,7.8 192.004,12.422 181.443,17.555 168.459,18.544 164.165,13.008 157.528,9.375 150,9.375 c -7.528,0 -14.166,3.633 -18.459,9.169 C 118.557,17.555 107.996,12.422 98.588,7.8 90.07,3.614 82.711,0 75,0 56.906,0 42.188,14.719 42.188,32.813 c 0,18.094 14.718,32.812 32.812,32.812 7.711,0 15.07,-3.614 23.588,-7.8 9.342,-4.584 19.809,-9.689 32.662,-10.73 v 37.28 h -4.688 c -7.753,0 -14.063,6.309 -14.063,14.063 v 9.375 H 60.938 C 27.337,107.813 0,135.15 0,168.75 v 79.688 h 9.375 v 42.188 h 9.375 v -42.188 h 28.125 v 42.188 h 9.375 v -42.188 h 9.375 v -56.25 c 0,-7.753 6.309,-14.063 14.063,-14.063 H 290.626 V 107.812 Z M 172.772,27.497 c 13.125,-1.716 23.864,-6.914 32.77,-11.288 7.472,-3.666 13.927,-6.834 19.458,-6.834 12.923,0 23.438,10.514 23.438,23.438 0,12.924 -10.515,23.437 -23.438,23.437 -5.531,0 -11.986,-3.169 -19.458,-6.834 -8.906,-4.373 -19.645,-9.567 -32.77,-11.283 0.403,-1.72 0.666,-3.483 0.666,-5.32 0,-1.837 -0.262,-3.6 -0.666,-5.316 z M 127.228,38.128 C 114.103,39.844 103.364,45.042 94.458,49.416 86.986,53.081 80.531,56.25 75,56.25 62.077,56.25 51.562,45.736 51.562,32.812 51.562,19.888 62.077,9.375 75,9.375 c 5.531,0 11.986,3.169 19.458,6.834 8.906,4.373 19.645,9.567 32.77,11.283 -0.403,1.72 -0.666,3.483 -0.666,5.32 0,1.837 0.262,3.6 0.666,5.316 z M 150,18.75 c 7.753,0 14.063,6.309 14.063,14.063 0,7.754 -6.31,14.062 -14.063,14.062 -7.753,0 -14.063,-6.309 -14.063,-14.063 0,-7.754 6.31,-14.062 14.063,-14.062 z m 9.375,35.513 v 30.112 h -18.75 V 54.263 c 2.878,1.266 6.037,1.987 9.375,1.987 3.338,0 6.497,-0.722 9.375,-1.987 z M 281.25,168.75 H 79.688 c -12.923,0 -23.438,10.514 -23.438,23.438 v 46.875 H 9.375 V 168.75 c 0,-28.43 23.133,-51.563 51.563,-51.563 h 60.938 v -18.75 c 0,-2.583 2.105,-4.688 4.688,-4.688 h 46.875 c 2.583,0 4.688,2.105 4.688,4.688 v 18.75 H 281.25 Z"
         id="path1-5"
         style="fill:#4d4d4d;stroke:#010101;stroke-opacity:1" />
      <rect
         x="23.438"
         y="281.25"
         width="9.375"
         height="9.375"
         id="rect1"
         style="fill:#4d4d4d" />
      <rect
         x="23.438"
         y="262.5"
         width="9.375"
         height="9.375"
         id="rect2"
         style="fill:#4d4d4d" />
      <path
         d="m 112.5,281.25 v 9.375 c 23.259,0 42.188,-18.928 42.188,-42.188 h -9.375 c 0,18.094 -14.719,32.813 -32.813,32.813 z"
         id="path2-1"
         style="fill:#4d4d4d" />
      <path
         d="m 79.688,281.25 v 9.375 c 15.511,0 28.125,-12.614 28.125,-28.125 h -9.375 c 0,10.341 -8.41,18.75 -18.75,18.75 z"
         id="path3-7"
         style="fill:#4d4d4d" />
      <path
         d="m 145.313,220.313 c 0,-12.923 -10.514,-23.438 -23.438,-23.438 -12.924,0 -23.438,10.514 -23.438,23.438 v 28.125 l 8.803,2.245 c 0.159,-0.281 4.036,-6.933 14.634,-6.933 12.924,0 23.439,-10.514 23.439,-23.437 z m -37.5,17.503 v -17.503 c 0,-7.753 6.309,-14.063 14.063,-14.063 7.754,0 14.063,6.309 14.063,14.063 0,7.754 -6.309,14.063 -14.063,14.063 -5.968,-0.001 -10.59,1.504 -14.063,3.44 z"
         id="path4-1"
         style="fill:#4d4d4d" />
      <rect
         x="159.375"
         y="107.813"
         width="9.375"
         height="9.375"
         id="rect4"
         style="fill:#4d4d4d" />
      <path
         style="fill:#ffff00;fill-opacity:0.594972;stroke:#780101;stroke-width:0.00791865;stroke-linecap:round;stroke-linejoin:round;stroke-miterlimit:0;stroke-opacity:1"
         d="m 31.23313,17.345038 v -1.627634 l 0.213394,0.08367 c 0.275809,0.108142 1.314948,0.108142 1.590756,0 l 0.213394,-0.08367 v 1.627634 1.627634 H 32.241902 31.23313 Z"
         id="path12"
         transform="matrix(8.6439344,0,0,8.5648659,-128.79808,-79.246936)" />
      <path
         style="fill:#ffff00;fill-opacity:0.594972;stroke:#780101;stroke-width:0.00791865;stroke-linecap:round;stroke-linejoin:round;stroke-miterlimit:0;stroke-opacity:1"
         d="m 31.698717,14.508407 c -0.697794,-0.313971 -1.106543,-1.088327 -0.928221,-1.75847 0.230463,-0.866092 1.040382,-1.369598 1.851675,-1.151139 0.621913,0.167464 1.166125,0.856158 1.169984,1.480602 0.0025,0.401073 -0.337648,1.027394 -0.690858,1.272168 -0.380238,0.263505 -1.009205,0.333837 -1.40258,0.156839 z"
         id="path13"
         transform="matrix(8.6439344,0,0,8.5648659,-128.79808,-79.246936)" />
      <path
         style="fill:#00ffff;fill-opacity:0.594972;stroke:#780101;stroke-width:0.00791865;stroke-linecap:round;stroke-linejoin:round;stroke-miterlimit:0;stroke-opacity:1"
         d="m 27.430836,35.900445 v -0.997328 l 0.756579,-0.747608 c 0.796917,-0.787468 0.918209,-0.845636 1.39171,-0.667421 0.601602,0.226429 1.11949,1.127118 0.990836,1.723224 -0.186229,0.862869 -0.837776,1.376069 -1.74703,1.376069 -0.203222,0 -0.590851,0.06939 -0.861396,0.154195 -0.270545,0.08481 -0.50063,0.154645 -0.511299,0.155196 -0.01067,5.5e-4 -0.0194,-0.447797 -0.0194,-0.996327 z"
         id="path18"
         transform="matrix(8.6439344,0,0,8.5648659,-128.79808,-79.246936)" />
      <path
         style="fill:#00ffff;fill-opacity:0.594972;stroke:#780101;stroke-width:0.00791865;stroke-linecap:round;stroke-linejoin:round;stroke-miterlimit:0;stroke-opacity:1"
         d="m 17.653508,40.428474 v -0.504386 h 0.504386 0.504386 v 0.504386 0.504386 h -0.504386 -0.504386 z"
         id="path19"
         transform="matrix(8.6439344,0,0,8.5648659,-128.79808,-79.246936)" />
      <path
         style="fill:#ffff00;fill-opacity:0.596078;stroke:#41479b;stroke-width:0.00821193;stroke-linecap:round;stroke-linejoin:round;stroke-miterlimit:0"
         d="m 22.805718,15.603513 c -0.413419,-0.129395 -0.965156,-0.511867 -1.267941,-0.878956 -0.510668,-0.61912 -0.686699,-1.624472 -0.432381,-2.469414 0.247398,-0.821953 1.061025,-1.550453 1.95509,-1.750536 0.638813,-0.14296 1.156703,-0.01008 2.5687,0.65909 1.60557,0.760905 2.251195,1.012922 3.131781,1.22248 l 0.726211,0.17282 v 0.528038 0.528038 l -0.426788,0.08776 c -0.837571,0.172231 -1.687399,0.484839 -2.987136,1.098812 -0.72533,0.342634 -1.507745,0.687983 -1.738699,0.767443 -0.481188,0.165553 -1.067686,0.178759 -1.528837,0.03442 z"
         id="path6"
         transform="matrix(8.6439344,0,0,8.5648659,-128.79808,-79.246936)" />
      <path
         style="fill:#ffff00;fill-opacity:0.596078;stroke:#41479b;stroke-width:0.00821193;stroke-linecap:round;stroke-linejoin:round;stroke-miterlimit:0"
         d="m 16.101551,32.682941 c 0,-2.822648 0.02997,-4.533062 0.08464,-4.830465 0.449986,-2.447865 2.512977,-4.416571 4.988958,-4.760949 0.36102,-0.05021 2.060946,-0.08377 4.243756,-0.08377 h 3.641483 v -1.153503 c 0,-1.049469 0.0145,-1.171943 0.160828,-1.357962 l 0.160828,-0.204459 h 2.865488 c 2.762024,0 2.871091,0.0056 3.020683,0.155195 0.141846,0.141846 0.155196,0.25866 0.155196,1.357962 v 1.202767 h 5.975034 5.975033 v 2.909919 2.909919 l -11.581477,5.86e-4 c -7.589228,3.84e-4 -11.75165,0.0282 -12.075147,0.08069 -1.184156,0.192145 -2.066269,1.017458 -2.335642,2.185246 -0.04294,0.186158 -0.07765,1.573433 -0.07871,3.145926 l -0.0019,2.812922 h -2.599527 -2.599528 z m 18.374688,-10.276565 0.0228,-0.562585 h -0.585383 -0.585384 v 0.530252 c 0,0.291639 0.02471,0.554962 0.05491,0.585162 0.0302,0.0302 0.283364,0.04475 0.562584,0.03233 l 0.507675,-0.02258 z"
         id="path7"
         transform="matrix(8.6439344,0,0,8.5648659,-128.79808,-79.246936)" />
    </g>
  </g>
  <g
     id="g6"
     transform="translate(182.84058,131.89279)" />
  <path
     style="fill:#ffff00;fill-opacity:0.59607846;stroke:#41479b;stroke-width:0.00821193;stroke-linecap:round;stroke-linejoin:round;stroke-miterlimit:0"
     d="m 40.079283,15.532342 c -0.277412,-0.10311 -0.991959,-0.420872 -1.587881,-0.706137 -1.110411,-0.531548 -2.322686,-0.989061 -2.873994,-1.084646 -0.601041,-0.104207 -0.581984,-0.08247 -0.581984,-0.663763 V 12.54763 l 0.601383,-0.133342 c 0.863504,-0.191459 1.517293,-0.43955 2.968117,-1.126301 0.704201,-0.333335 1.486856,-0.665329 1.739235,-0.737764 1.142995,-0.328051 2.360526,0.258463 2.927563,1.41028 0.502867,1.021468 0.275685,2.232193 -0.566706,3.020151 -0.750741,0.70223 -1.689847,0.899544 -2.625733,0.551688 z"
     id="path5" />
</svg>
