<?xml version="1.0" encoding="UTF-8" standalone="no"?>
<svg
   width="58"
   height="66.667"
   fill="none"
   version="1.1"
   id="svg16"
   sodipodi:docname="water-sale.svg"
   inkscape:version="1.4 (86a8ad7, 2024-10-11)"
   xmlns:inkscape="http://www.inkscape.org/namespaces/inkscape"
   xmlns:sodipodi="http://sodipodi.sourceforge.net/DTD/sodipodi-0.dtd"
   xmlns="http://www.w3.org/2000/svg"
   xmlns:svg="http://www.w3.org/2000/svg">
  <sodipodi:namedview
     id="namedview16"
     pagecolor="#ffffff"
     bordercolor="#000000"
     borderopacity="0.25"
     inkscape:showpageshadow="2"
     inkscape:pageopacity="0.0"
     inkscape:pagecheckerboard="0"
     inkscape:deskcolor="#d1d1d1"
     showgrid="false"
     inkscape:zoom="18.224909"
     inkscape:cx="13.909534"
     inkscape:cy="23.676387"
     inkscape:window-width="2560"
     inkscape:window-height="1417"
     inkscape:window-x="-8"
     inkscape:window-y="-8"
     inkscape:window-maximized="1"
     inkscape:current-layer="svg16"
     showguides="true">
    <sodipodi:guide
       position="-36.323912,59.863125"
       orientation="1,0"
       id="guide1"
       inkscape:locked="false" />
    <sodipodi:guide
       position="29.904127,75.062103"
       orientation="1,0"
       id="guide2"
       inkscape:locked="false" />
  </sodipodi:namedview>
  <defs
     id="defs16" />
  <path
     fill-rule="evenodd"
     clip-rule="evenodd"
     d="M37.434 56.755C49.337 53.142 58 42.082 58 29 58 12.984 45.016 0 29 0S0 12.984 0 29c0 13.083 8.663 24.142 20.566 27.755l6.834 9.112a2 2 0 0 0 3.2 0z"
     fill="#fff"
     id="path1" />
  <path
     fill-rule="evenodd"
     clip-rule="evenodd"
     d="m 29,55 c 3.217925,0 6.299263,-0.584516 9.143637,-1.653171 C 47.992288,49.646608 55,40.142075 55,29 55,14.64 43.36,3 29,3 14.64,3 3,14.64 3,29 3,43.36 14.64,55 29,55 Z"
     fill="#1ab3ff"
     id="path2"
     style="stroke:#1aff00;stroke-width:1.99937;stroke-dasharray:none;stroke-opacity:1;fill:#1ab3ff;fill-opacity:0.02234637"
     sodipodi:nodetypes="ssssss" />
  <mask
     id="a"
     maskUnits="userSpaceOnUse"
     x="19.826"
     y="21.522"
     width="26"
     height="27"
     fill="#000">
    <path
       fill="#fff"
       d="M19.826 21.522h26v27h-26z"
       id="path3" />
    <path
       fill-rule="evenodd"
       clip-rule="evenodd"
       d="M33 46c5.596 0 10.174-4.242 10.174-12.435 0-8.192-5.276-9.043-10.513-9.043-4.638 0-9.835.85-9.835 9.043S27.404 46 33 46z"
       id="path4" />
  </mask>
  <mask
     id="b"
     maskUnits="userSpaceOnUse"
     x="16.435"
     y="16.435"
     width="32"
     height="19"
     fill="#000">
    <path
       fill="#fff"
       d="M16.435 16.435h32v19h-32z"
       id="path8" />
    <path
       fill-rule="evenodd"
       clip-rule="evenodd"
       d="M32.66 32.66c7.305 0 13.227-2.96 13.227-6.612s-5.922-6.613-13.226-6.613c-7.305 0-13.226 2.96-13.226 6.613 0 3.652 5.921 6.613 13.226 6.613z"
       id="path9" />
  </mask>
  <mask
     id="c"
     mask-type="alpha"
     maskUnits="userSpaceOnUse"
     x="20"
     y="29"
     width="26"
     height="9">
    <path
       fill-rule="evenodd"
       clip-rule="evenodd"
       d="M21.741 30.74c.521 3.168 5.391 5.651 11.797 5.651 5.388 0 10.202-2.483 10.72-5.652z"
       fill="#fff"
       id="path15" />
    <path
       d="M21.741 30.74v-1.131a1.13 1.13 0 0 0-1.115 1.314zm22.517 0 1.115.182a1.13 1.13 0 0 0-1.115-1.313zm-23.632.183c.346 2.108 2.08 3.758 4.31 4.847 2.27 1.107 5.265 1.752 8.602 1.752V35.26c-3.069 0-5.711-.597-7.61-1.523-1.936-.945-2.897-2.121-3.071-3.182zm12.912 6.599c2.855 0 5.59-.656 7.71-1.767 2.083-1.09 3.784-2.741 4.125-4.834l-2.23-.364c-.177 1.077-1.142 2.252-2.943 3.195-1.762.923-4.13 1.509-6.662 1.509zm10.72-7.913H21.74v2.26h22.517z"
       fill="#fff"
       id="path16" />
  </mask>
  <path
     d="M 40.854344,43.612165 V 27.750168 c 0.286112,-0.08358 0.495271,-0.347484 0.495271,-0.660532 0,-1.707802 -0.916347,-3.303179 -2.391397,-4.163579 l -3.428161,-1.99959 c -0.895515,-0.522384 -1.451899,-1.491063 -1.451899,-2.52791 v -1.4976 h 0.0034 c 0.380275,0 0.688594,-0.308321 0.688594,-0.688599 V 9.825227 c 0,-1.068434 -0.869349,-1.9377862 -1.937787,-1.9377862 h -5.496264 c -1.068437,0 -1.937787,0.8693522 -1.937787,1.9377862 v 6.387052 c 0,0.38027 0.308317,0.68859 0.688592,0.68859 h 0.0034 v 1.497601 c 0,1.036847 -0.556383,2.005525 -1.451985,2.527909 l -3.428073,1.999591 c -1.475051,0.8604 -2.391397,2.455776 -2.391397,4.163579 0,0.313055 0.209159,0.576952 0.495271,0.660532 v 15.861996 c -0.286112,0.08358 -0.495271,0.347486 -0.495271,0.660533 v 0.867629 c 0,2.088328 1.698932,3.787264 3.787262,3.787264 h 14.95627 c 2.088331,0 3.787264,-1.698936 3.787264,-3.787264 V 44.27261 c -5.4e-5,-0.31296 -0.209214,-0.576777 -0.495326,-0.660445 z M 26.775543,15.523679 v -1.462225 h 6.617466 v 1.462137 h -0.0034 -6.610579 -0.0034 z m 0.560601,-6.259047 h 5.496265 c 0.30909,0 0.5606,0.251503 0.5606,0.560595 v 2.859125 H 26.775543 V 9.825227 c 0,-0.309092 0.251508,-0.560595 0.560601,-0.560595 z m -5.431878,14.850967 3.427988,-1.999583 C 26.64936,21.3478 27.46758,19.923271 27.46758,18.39847 v -1.497601 h 5.233391 v 1.497601 c 0,1.524801 0.818222,2.94933 2.135243,3.717459 l 3.428075,1.999583 c 0.851961,0.496907 1.44303,1.33708 1.637989,2.285445 h -1.003969 c -0.380273,0 -0.688593,0.308313 -0.688593,0.688592 0,0.38027 0.30832,0.688592 0.688593,0.688592 h 0.578935 v 3.650576 c -0.52204,-0.05537 -0.844989,-0.193583 -1.20478,-0.34843 -0.529787,-0.227926 -1.130324,-0.486406 -2.272098,-0.486406 -1.141774,0 -1.742313,0.25848 -2.272099,0.486406 -0.466609,0.200899 -0.869607,0.374336 -1.727593,0.374336 -0.857902,0 -1.260813,-0.173437 -1.727336,-0.374336 -0.529699,-0.227926 -1.130154,-0.486406 -2.271927,-0.486406 -1.141772,0 -1.742226,0.25848 -2.272011,0.486493 -0.466524,0.200812 -0.869523,0.374249 -1.727337,0.374249 -0.857814,0 -1.260812,-0.173437 -1.727336,-0.374336 -0.411261,-0.176965 -0.866421,-0.371835 -1.583247,-0.450339 v -2.85172 H 34.4914 c 0.380279,0 0.688594,-0.308321 0.688594,-0.688592 0,-0.380278 -0.308315,-0.688599 -0.688594,-0.688599 H 20.266274 c 0.195045,-0.948358 0.786027,-1.788444 1.637992,-2.285438 z m 18.068163,21.024814 c 0,1.328899 -1.081178,2.410074 -2.410074,2.410074 H 22.606114 c -1.3289,0 -2.410077,-1.081175 -2.410077,-2.410074 v -0.179036 h 14.295191 c 0.380276,0 0.688592,-0.308321 0.688592,-0.688592 0,-0.380279 -0.308316,-0.688592 -0.688592,-0.688592 H 20.691307 V 32.01772 c 0.428133,0.06482 0.718462,0.189707 1.038658,0.327602 0.5297,0.228012 1.130153,0.486491 2.271926,0.486491 1.141772,0 1.742141,-0.258479 2.271927,-0.486404 0.466521,-0.2009 0.86952,-0.374337 1.727421,-0.374337 0.8579,0 1.260813,0.173437 1.727336,0.374337 0.5297,0.227925 1.130154,0.486404 2.271927,0.486404 1.141858,0 1.742313,-0.258479 2.272097,-0.486404 0.466609,-0.2009 0.869609,-0.374337 1.727595,-0.374337 0.857987,0 1.260987,0.173437 1.727593,0.374337 0.442251,0.190223 0.934939,0.401275 1.749285,0.466004 v 10.772868 h -0.578934 c -0.380275,0 -0.688595,0.308313 -0.688595,0.688591 0,0.380271 0.30832,0.688592 0.688595,0.688592 h 1.074118 v 0.178949 z"
     id="path1-0"
     style="fill:#00002a;fill-opacity:0.59217876;stroke:#656b68;stroke-width:0.0143085;stroke-dasharray:none;stroke-opacity:1" />
  <path
     style="fill:#00ffff;fill-opacity:0.592179;stroke:#656b68;stroke-width:0.00580671;stroke-linecap:round;stroke-linejoin:round;stroke-miterlimit:0;stroke-dasharray:none;stroke-opacity:1"
     d="M 22.304638,47.487404 C 21.403087,47.368286 20.620743,46.713063 20.35578,45.855211 20.295959,45.661534 20.247014,45.394559 20.247014,45.261935 V 45.0208 l 7.091942,-0.0013 c 4.133546,-7.63e-4 7.183498,-0.02244 7.311422,-0.05196 0.265577,-0.06128 0.501399,-0.306306 0.551417,-0.572926 0.04716,-0.251354 -0.104726,-0.565238 -0.353769,-0.731115 l -0.186442,-0.124182 h -6.96037 -6.96037 v -5.73827 -5.73827 l 0.178327,0.03726 c 0.09808,0.02049 0.476972,0.156733 0.841982,0.302751 0.9538,0.381559 1.376467,0.454752 2.45671,0.425427 0.966267,-0.02623 0.840756,0.0039 2.476371,-0.594393 0.418507,-0.153085 0.588135,-0.184485 1.112114,-0.205861 0.771017,-0.03145 1.108436,0.03278 1.96281,0.373632 0.869046,0.34671 1.330583,0.438079 2.212887,0.438079 0.900426,0 1.343298,-0.0859 2.250506,-0.436523 0.849771,-0.328423 1.114268,-0.386526 1.759553,-0.386526 0.66075,0 1.014317,0.0767 1.781276,0.38644 0.369595,0.149261 0.887646,0.310195 1.170572,0.363642 l 0.507547,0.09588 v 5.338365 5.338364 h -0.330982 c -0.18204,0 -0.416068,0.03555 -0.520063,0.079 -0.358326,0.149718 -0.519086,0.65015 -0.32773,1.020192 0.138839,0.268485 0.363294,0.347652 1.055318,0.372222 0.703343,0.02497 0.669682,-0.0089 0.561649,0.565 -0.187205,0.994473 -1.043064,1.780042 -2.08429,1.91311 -0.497573,0.06359 -15.0188,0.06225 -15.500763,-0.0014 z"
     id="path5" />
  <path
     style="fill:#0000ff;fill-opacity:0.592179;stroke:#656b68;stroke-width:0.00580671;stroke-linecap:round;stroke-linejoin:round;stroke-miterlimit:0;stroke-dasharray:none;stroke-opacity:1"
     d="M 26.831409,11.134381 V 9.621236 l 0.160389,-0.1603891 0.160389,-0.1603891 h 2.882312 c 2.11781,0 2.920472,0.017387 3.026183,0.065552 0.281366,0.1281988 0.300252,0.2429746 0.300252,1.8247362 v 1.456779 h -3.264762 -3.264763 z"
     id="path6" />
  <path
     style="fill:#0000ff;fill-opacity:0.592179;stroke:#656b68;stroke-width:0.00580671;stroke-linecap:round;stroke-linejoin:round;stroke-miterlimit:0;stroke-dasharray:none;stroke-opacity:1"
     d="m 26.831409,14.787454 v -0.71331 h 3.264763 3.264762 v 0.71331 0.713309 h -3.264762 -3.264763 z"
     id="path7" />
</svg>
