<?xml version="1.0" encoding="UTF-8" standalone="no"?>
<svg
   width="58"
   height="66.667"
   fill="none"
   version="1.1"
   id="svg16"
   sodipodi:docname="water-off.svg"
   inkscape:version="1.4 (86a8ad7, 2024-10-11)"
   xmlns:inkscape="http://www.inkscape.org/namespaces/inkscape"
   xmlns:sodipodi="http://sodipodi.sourceforge.net/DTD/sodipodi-0.dtd"
   xmlns="http://www.w3.org/2000/svg"
   xmlns:svg="http://www.w3.org/2000/svg">
  <sodipodi:namedview
     id="namedview16"
     pagecolor="#ffffff"
     bordercolor="#000000"
     borderopacity="0.25"
     inkscape:showpageshadow="2"
     inkscape:pageopacity="0.0"
     inkscape:pagecheckerboard="0"
     inkscape:deskcolor="#d1d1d1"
     showgrid="false"
     inkscape:zoom="12.886957"
     inkscape:cx="60.099527"
     inkscape:cy="44.19197"
     inkscape:window-width="2560"
     inkscape:window-height="1417"
     inkscape:window-x="-8"
     inkscape:window-y="-8"
     inkscape:window-maximized="1"
     inkscape:current-layer="g4" />
  <defs
     id="defs16" />
  <path
     fill-rule="evenodd"
     clip-rule="evenodd"
     d="M37.434 56.755C49.337 53.142 58 42.082 58 29 58 12.984 45.016 0 29 0S0 12.984 0 29c0 13.083 8.663 24.142 20.566 27.755l6.834 9.112a2 2 0 0 0 3.2 0z"
     fill="#fff"
     id="path1" />
  <path
     fill-rule="evenodd"
     clip-rule="evenodd"
     d="M29 55c14.36 0 26-11.64 26-26S43.36 3 29 3 3 14.64 3 29s11.64 26 26 26z"
     fill="#1ab3ff"
     id="path2" />
  <mask
     id="a"
     maskUnits="userSpaceOnUse"
     x="19.826"
     y="21.522"
     width="26"
     height="27"
     fill="#000">
    <path
       fill="#fff"
       d="M19.826 21.522h26v27h-26z"
       id="path3" />
    <path
       fill-rule="evenodd"
       clip-rule="evenodd"
       d="M33 46c5.596 0 10.174-4.242 10.174-12.435 0-8.192-5.276-9.043-10.513-9.043-4.638 0-9.835.85-9.835 9.043S27.404 46 33 46z"
       id="path4" />
  </mask>
  <mask
     id="b"
     maskUnits="userSpaceOnUse"
     x="16.435"
     y="16.435"
     width="32"
     height="19"
     fill="#000">
    <path
       fill="#fff"
       d="M16.435 16.435h32v19h-32z"
       id="path8" />
    <path
       fill-rule="evenodd"
       clip-rule="evenodd"
       d="M32.66 32.66c7.305 0 13.227-2.96 13.227-6.612s-5.922-6.613-13.226-6.613c-7.305 0-13.226 2.96-13.226 6.613 0 3.652 5.921 6.613 13.226 6.613z"
       id="path9" />
  </mask>
  <mask
     id="c"
     mask-type="alpha"
     maskUnits="userSpaceOnUse"
     x="20"
     y="29"
     width="26"
     height="9">
    <path
       fill-rule="evenodd"
       clip-rule="evenodd"
       d="M21.741 30.74c.521 3.168 5.391 5.651 11.797 5.651 5.388 0 10.202-2.483 10.72-5.652z"
       fill="#fff"
       id="path15" />
    <path
       d="M21.741 30.74v-1.131a1.13 1.13 0 0 0-1.115 1.314zm22.517 0 1.115.182a1.13 1.13 0 0 0-1.115-1.313zm-23.632.183c.346 2.108 2.08 3.758 4.31 4.847 2.27 1.107 5.265 1.752 8.602 1.752V35.26c-3.069 0-5.711-.597-7.61-1.523-1.936-.945-2.897-2.121-3.071-3.182zm12.912 6.599c2.855 0 5.59-.656 7.71-1.767 2.083-1.09 3.784-2.741 4.125-4.834l-2.23-.364c-.177 1.077-1.142 2.252-2.943 3.195-1.762.923-4.13 1.509-6.662 1.509zm10.72-7.913H21.74v2.26h22.517z"
       fill="#fff"
       id="path16" />
  </mask>
  <g
     id="g5"
     transform="matrix(0.11568806,0,0,0.11675606,14.9004,9.25256)">
		<g
   id="g4"
   style="fill:#4d4d4d">
			<path
   d="m 187.5,107.812 v -9.374 c 0,-7.753 -6.309,-14.063 -14.063,-14.063 h -4.688 v -37.28 c 12.853,1.041 23.32,6.145 32.662,10.73 8.517,4.186 15.877,7.8 23.588,7.8 18.094,0 32.813,-14.719 32.813,-32.813 C 257.812,14.718 243.094,0 225,0 217.289,0 209.93,3.614 201.412,7.8 192.004,12.422 181.443,17.555 168.459,18.544 164.165,13.008 157.528,9.375 150,9.375 c -7.528,0 -14.166,3.633 -18.459,9.169 C 118.557,17.555 107.996,12.422 98.588,7.8 90.07,3.614 82.711,0 75,0 56.906,0 42.188,14.719 42.188,32.813 c 0,18.094 14.718,32.812 32.812,32.812 7.711,0 15.07,-3.614 23.588,-7.8 9.342,-4.584 19.809,-9.689 32.662,-10.73 v 37.28 h -4.688 c -7.753,0 -14.063,6.309 -14.063,14.063 v 9.375 H 60.938 C 27.337,107.813 0,135.15 0,168.75 v 79.688 h 9.375 v 42.188 h 9.375 v -42.188 h 28.125 v 42.188 h 9.375 v -42.188 h 9.375 v -56.25 c 0,-7.753 6.309,-14.063 14.063,-14.063 H 290.626 V 107.812 Z M 172.772,27.497 c 13.125,-1.716 23.864,-6.914 32.77,-11.288 7.472,-3.666 13.927,-6.834 19.458,-6.834 12.923,0 23.438,10.514 23.438,23.438 0,12.924 -10.515,23.437 -23.438,23.437 -5.531,0 -11.986,-3.169 -19.458,-6.834 -8.906,-4.373 -19.645,-9.567 -32.77,-11.283 0.403,-1.72 0.666,-3.483 0.666,-5.32 0,-1.837 -0.262,-3.6 -0.666,-5.316 z M 127.228,38.128 C 114.103,39.844 103.364,45.042 94.458,49.416 86.986,53.081 80.531,56.25 75,56.25 62.077,56.25 51.562,45.736 51.562,32.812 51.562,19.888 62.077,9.375 75,9.375 c 5.531,0 11.986,3.169 19.458,6.834 8.906,4.373 19.645,9.567 32.77,11.283 -0.403,1.72 -0.666,3.483 -0.666,5.32 0,1.837 0.262,3.6 0.666,5.316 z M 150,18.75 c 7.753,0 14.063,6.309 14.063,14.063 0,7.754 -6.31,14.062 -14.063,14.062 -7.753,0 -14.063,-6.309 -14.063,-14.063 0,-7.754 6.31,-14.062 14.063,-14.062 z m 9.375,35.513 v 30.112 h -18.75 V 54.263 c 2.878,1.266 6.037,1.987 9.375,1.987 3.338,0 6.497,-0.722 9.375,-1.987 z M 281.25,168.75 H 79.688 c -12.923,0 -23.438,10.514 -23.438,23.438 v 46.875 H 9.375 V 168.75 c 0,-28.43 23.133,-51.563 51.563,-51.563 h 60.938 v -18.75 c 0,-2.583 2.105,-4.688 4.688,-4.688 h 46.875 c 2.583,0 4.688,2.105 4.688,4.688 v 18.75 H 281.25 Z"
   id="path1-5"
   style="fill:#4d4d4d;stroke:#010101;stroke-opacity:1" />

			<rect
   x="23.438"
   y="281.25"
   width="9.375"
   height="9.375"
   id="rect1"
   style="fill:#4d4d4d" />

			<rect
   x="23.438"
   y="262.5"
   width="9.375"
   height="9.375"
   id="rect2"
   style="fill:#4d4d4d" />

			<path
   d="m 112.5,281.25 v 9.375 c 23.259,0 42.188,-18.928 42.188,-42.188 h -9.375 c 0,18.094 -14.719,32.813 -32.813,32.813 z"
   id="path2-1"
   style="fill:#4d4d4d" />

			<path
   d="m 79.688,281.25 v 9.375 c 15.511,0 28.125,-12.614 28.125,-28.125 h -9.375 c 0,10.341 -8.41,18.75 -18.75,18.75 z"
   id="path3-7"
   style="fill:#4d4d4d" />

			<path
   d="m 145.313,220.313 c 0,-12.923 -10.514,-23.438 -23.438,-23.438 -12.924,0 -23.438,10.514 -23.438,23.438 v 28.125 l 8.803,2.245 c 0.159,-0.281 4.036,-6.933 14.634,-6.933 12.924,0 23.439,-10.514 23.439,-23.437 z m -37.5,17.503 v -17.503 c 0,-7.753 6.309,-14.063 14.063,-14.063 7.754,0 14.063,6.309 14.063,14.063 0,7.754 -6.309,14.063 -14.063,14.063 -5.968,-0.001 -10.59,1.504 -14.063,3.44 z"
   id="path4-1"
   style="fill:#4d4d4d" />

			<rect
   x="159.375"
   y="107.813"
   width="9.375"
   height="9.375"
   id="rect4"
   style="fill:#4d4d4d" />

		<path
   style="fill:#ffff00;fill-opacity:0.594972;stroke:#780101;stroke-width:0.00791865;stroke-linecap:round;stroke-linejoin:round;stroke-miterlimit:0;stroke-opacity:1"
   d="m 16.102899,32.649291 c 0.0015,-4.793924 0.01272,-4.94476 0.445732,-5.975364 0.804244,-1.914158 2.593532,-3.299637 4.626521,-3.582399 0.361019,-0.05021 2.060945,-0.08377 4.243755,-0.08377 h 3.641484 v -1.15964 c 0,-1.091434 0.01027,-1.171436 0.174595,-1.360196 l 0.174595,-0.200555 2.256929,0.02163 2.25693,0.02163 -4.299689,4.229082 -4.299688,4.229082 -0.828361,0.04979 c -0.455599,0.02738 -0.968037,0.08752 -1.138752,0.133644 -0.799173,0.21591 -1.590532,0.942664 -1.870414,1.717717 -0.07416,0.205359 -0.142489,0.710018 -0.165893,1.225192 l -0.0398,0.876001 -2.17849,2.130915 -2.17849,2.130915 h -0.411157 -0.411157 z"
   id="path10"
   transform="matrix(8.6439344,0,0,8.5648659,-128.79808,-79.246936)" />
<path
   style="fill:#ffff00;fill-opacity:0.594972;stroke:#780101;stroke-width:0.00791865;stroke-linecap:round;stroke-linejoin:round;stroke-miterlimit:0;stroke-opacity:1"
   d="m 33.716261,28.79596 c 0,-0.0174 1.329707,-1.326864 2.954905,-2.909919 l 2.954905,-2.878282 h 3.873705 3.873705 v 2.909919 2.909919 h -6.82861 c -3.755735,0 -6.82861,-0.01424 -6.82861,-0.03164 z"
   id="path11"
   transform="matrix(8.6439344,0,0,8.5648659,-128.79808,-79.246936)" />
<path
   style="fill:#ffff00;fill-opacity:0.594972;stroke:#780101;stroke-width:0.00791865;stroke-linecap:round;stroke-linejoin:round;stroke-miterlimit:0;stroke-opacity:1"
   d="m 31.23313,17.345038 v -1.627634 l 0.213394,0.08367 c 0.275809,0.108142 1.314948,0.108142 1.590756,0 l 0.213394,-0.08367 v 1.627634 1.627634 H 32.241902 31.23313 Z"
   id="path12"
   transform="matrix(8.6439344,0,0,8.5648659,-128.79808,-79.246936)" />
<path
   style="fill:#ffff00;fill-opacity:0.594972;stroke:#780101;stroke-width:0.00791865;stroke-linecap:round;stroke-linejoin:round;stroke-miterlimit:0;stroke-opacity:1"
   d="m 31.698717,14.508407 c -0.697794,-0.313971 -1.106543,-1.088327 -0.928221,-1.75847 0.230463,-0.866092 1.040382,-1.369598 1.851675,-1.151139 0.621913,0.167464 1.166125,0.856158 1.169984,1.480602 0.0025,0.401073 -0.337648,1.027394 -0.690858,1.272168 -0.380238,0.263505 -1.009205,0.333837 -1.40258,0.156839 z"
   id="path13"
   transform="matrix(8.6439344,0,0,8.5648659,-128.79808,-79.246936)" />
<path
   style="fill:#ffff00;fill-opacity:0.594972;stroke:#780101;stroke-width:0.00791865;stroke-linecap:round;stroke-linejoin:round;stroke-miterlimit:0;stroke-opacity:1"
   d="m 22.775384,15.58413 c -0.769959,-0.269384 -1.41841,-0.920941 -1.676261,-1.684291 -0.178126,-0.527327 -0.118218,-1.429434 0.129481,-1.949772 0.36106,-0.758472 1.195299,-1.369138 2.025928,-1.482989 0.559725,-0.07672 1.089372,0.08632 2.568097,0.790532 1.433336,0.682596 2.394068,1.042169 3.198963,1.197278 l 0.465587,0.08972 v 0.533432 0.533432 l -0.581984,0.129199 c -0.86815,0.192728 -1.687295,0.502395 -3.03869,1.148737 -1.773445,0.848199 -2.308645,0.968483 -3.091121,0.69472 z"
   id="path14"
   transform="matrix(8.6439344,0,0,8.5648659,-128.79808,-79.246936)" />
<path
   style="fill:#00ffff;fill-opacity:0.594972;stroke:#780101;stroke-width:0.00791865;stroke-linecap:round;stroke-linejoin:round;stroke-miterlimit:0;stroke-opacity:1"
   d="m 38.488528,14.81508 c -1.251462,-0.602234 -2.073662,-0.894712 -3.239709,-1.152449 -0.207656,-0.0459 -0.213395,-0.06159 -0.213395,-0.583372 v -0.536205 l 0.446188,-0.08661 c 0.746112,-0.144836 1.778243,-0.530192 3.123313,-1.166118 1.536433,-0.726399 2.049237,-0.889657 2.592402,-0.825327 0.471813,0.05588 1.246609,0.421741 1.538634,0.72655 l 0.210868,0.220098 -1.87996,1.869757 -1.87996,1.869757 z"
   id="path17"
   transform="matrix(8.6439344,0,0,8.5648659,-128.79808,-79.246936)" />
<path
   style="fill:#00ffff;fill-opacity:0.594972;stroke:#780101;stroke-width:0.00791865;stroke-linecap:round;stroke-linejoin:round;stroke-miterlimit:0;stroke-opacity:1"
   d="m 27.430836,35.900445 v -0.997328 l 0.756579,-0.747608 c 0.796917,-0.787468 0.918209,-0.845636 1.39171,-0.667421 0.601602,0.226429 1.11949,1.127118 0.990836,1.723224 -0.186229,0.862869 -0.837776,1.376069 -1.74703,1.376069 -0.203222,0 -0.590851,0.06939 -0.861396,0.154195 -0.270545,0.08481 -0.50063,0.154645 -0.511299,0.155196 -0.01067,5.5e-4 -0.0194,-0.447797 -0.0194,-0.996327 z"
   id="path18"
   transform="matrix(8.6439344,0,0,8.5648659,-128.79808,-79.246936)" />
<path
   style="fill:#00ffff;fill-opacity:0.594972;stroke:#780101;stroke-width:0.00791865;stroke-linecap:round;stroke-linejoin:round;stroke-miterlimit:0;stroke-opacity:1"
   d="m 17.653508,40.428474 v -0.504386 h 0.504386 0.504386 v 0.504386 0.504386 h -0.504386 -0.504386 z"
   id="path19"
   transform="matrix(8.6439344,0,0,8.5648659,-128.79808,-79.246936)" />
<path
   style="fill:#ffff00;fill-opacity:0.594972;stroke:#780101;stroke-width:0.00791865;stroke-linecap:round;stroke-linejoin:round;stroke-miterlimit:0;stroke-opacity:1"
   d="m 38.410931,14.738643 c -0.939446,-0.458876 -1.71799,-0.752482 -2.580129,-0.973023 l -0.71778,-0.183613 V 13.06584 12.549673 l 0.359995,-0.05399 c 0.550042,-0.08248 1.724996,-0.514936 3.137167,-1.154661 1.630434,-0.7386 1.986614,-0.854308 2.498923,-0.811792 0.464869,0.03858 1.140472,0.325555 1.51797,0.644788 l 0.258657,0.218735 -1.848806,1.850011 c -1.016844,1.017506 -1.866539,1.847083 -1.888212,1.843506 -0.02167,-0.0036 -0.353676,-0.160012 -0.737785,-0.347632 z"
   id="path20"
   transform="matrix(8.6439344,0,0,8.5648659,-128.79808,-79.246936)" />
</g>

	</g>
  <path
     style="fill:#d40000;stroke:none;stroke-width:0.102047;stroke-linecap:round;stroke-linejoin:round;stroke-miterlimit:0;fill-opacity:0.59497207"
     d="M 8.6880905,45.232438 45.549884,8.9462096 49.646596,13.19485 12.640723,49.209764 Z"
     id="path5"
     sodipodi:nodetypes="ccccc" />
  <g
     id="g6"
     transform="translate(182.84058,131.89279)">
	
</g>
</svg>
